<svg width="18" height="16" viewBox="0 0 18 16" fill="none" xmlns="http://www.w3.org/2000/svg">
<path d="M8.99967 0.173828C4.4978 0.173828 0.833008 3.16691 0.833008 6.84531C0.833008 10.1399 3.73898 12.9002 7.66238 13.4249C7.92848 13.4814 8.29054 13.6019 8.38241 13.8292C8.46408 14.0354 8.43617 14.3539 8.40827 14.5689L8.29666 15.2672C8.26604 15.4734 8.13333 16.0791 9.01056 15.7089C9.88916 15.34 13.7173 12.9159 15.4323 10.932C16.6056 9.639 17.1663 8.31395 17.1663 6.84531C17.1663 3.16691 13.5015 0.173828 8.99967 0.173828ZM5.80311 9.03262H4.1793C3.94451 9.03262 3.75055 8.8373 3.75055 8.60183V5.33448C3.75055 5.09833 3.94451 4.90301 4.1793 4.90301C4.41613 4.90301 4.60805 5.09833 4.60805 5.33448V8.17036H5.80311C6.03994 8.17036 6.23117 8.36431 6.23117 8.60183C6.23117 8.8373 6.03926 9.03262 5.80311 9.03262ZM7.48136 8.60183C7.48136 8.8373 7.28944 9.03262 7.05192 9.03262C6.81713 9.03262 6.62522 8.8373 6.62522 8.60183V5.33448C6.62522 5.09833 6.81713 4.90301 7.05397 4.90301C7.28944 4.90301 7.48136 5.09833 7.48136 5.33448V8.60183ZM11.3884 8.60183C11.3884 8.78694 11.27 8.95095 11.0944 9.01016C11.0509 9.02445 11.0039 9.03126 10.959 9.03126C10.8154 9.03126 10.6929 8.96933 10.6119 8.85976L8.94931 6.58806V8.60115C8.94931 8.83662 8.75944 9.03194 8.51988 9.03194C8.28441 9.03194 8.09385 8.83662 8.09385 8.60115V5.33448C8.09385 5.14937 8.21159 4.98536 8.38649 4.92683C8.42733 4.91118 8.47905 4.90437 8.51852 4.90437C8.65123 4.90437 8.77373 4.97583 8.8554 5.07859L10.5309 7.35913V5.33448C10.5309 5.09833 10.7228 4.90301 10.9597 4.90301C11.1945 4.90301 11.3884 5.09833 11.3884 5.33448V8.60183ZM14.012 6.53634C14.2495 6.53634 14.4407 6.73166 14.4407 6.96849C14.4407 7.20465 14.2495 7.39997 14.012 7.39997H12.8176V8.17036H14.012C14.2495 8.17036 14.4407 8.36431 14.4407 8.60183C14.4407 8.8373 14.2495 9.03262 14.012 9.03262H12.3882C12.1534 9.03262 11.9615 8.8373 11.9615 8.60183V5.33448C11.9615 5.09833 12.1534 4.90301 12.3902 4.90301H14.014C14.2495 4.90301 14.4407 5.09833 14.4407 5.33448C14.4407 5.57336 14.2495 5.76595 14.012 5.76595H12.8176V6.53634H14.012Z" fill="#8E59FF"/>
</svg>
