<svg width="18" height="18" viewBox="0 0 18 18" fill="none" xmlns="http://www.w3.org/2000/svg">
<path fill-rule="evenodd" clip-rule="evenodd" d="M8.99861 0.833008H9.00269C13.5056 0.833008 17.1673 4.49678 17.1673 8.99967C17.1673 13.5026 13.5056 17.1663 9.00269 17.1663C7.3418 17.1663 5.80136 16.6723 4.51001 15.8168L1.37094 16.8203L2.38871 13.7864C1.40973 12.4419 0.833984 10.7861 0.833984 8.99967C0.833984 4.49576 4.49571 0.833008 8.99861 0.833008ZM12.152 13.518C12.7757 13.3833 13.5577 12.9218 13.7547 12.3655C13.9517 11.8081 13.9517 11.3334 13.8946 11.2324C13.8484 11.1522 13.7393 11.0996 13.5763 11.0212C13.5339 11.0007 13.4878 10.9786 13.4383 10.9537C13.1984 10.8342 12.0315 10.2575 11.811 10.1809C11.5946 10.0992 11.3884 10.1278 11.2251 10.3585C11.194 10.402 11.163 10.4456 11.1322 10.489C10.9351 10.7661 10.7451 11.0334 10.5871 11.2038C10.4431 11.3569 10.2083 11.3763 10.0113 11.2946C9.98984 11.2857 9.96522 11.2757 9.93764 11.2646C9.62569 11.1386 8.93378 10.8592 8.09623 10.1135C7.38982 9.48469 6.91003 8.70171 6.77119 8.46692C6.63488 8.23139 6.75246 8.09327 6.86112 7.96563C6.86314 7.96326 6.86515 7.9609 6.86715 7.95855C6.93721 7.87186 7.0052 7.79968 7.07353 7.72714C7.12268 7.67496 7.172 7.62259 7.2224 7.56451C7.22989 7.55588 7.23717 7.54751 7.24426 7.53936C7.35127 7.41631 7.41499 7.34304 7.4868 7.18986C7.56846 7.03163 7.51028 6.8683 7.45209 6.74784C7.41205 6.66348 7.16475 6.06345 6.95245 5.54835C6.8616 5.32792 6.77715 5.12304 6.71811 4.98078C6.55988 4.60205 6.43942 4.58776 6.19953 4.57755C6.19217 4.57718 6.18475 4.5768 6.17724 4.57642C6.10142 4.57259 6.01791 4.56836 5.92594 4.56836C5.61357 4.56836 5.28792 4.66023 5.0909 4.86134C5.08402 4.86837 5.07684 4.87567 5.06939 4.88324C4.81734 5.13959 4.25586 5.71062 4.25586 6.8489C4.25586 7.98939 5.06508 9.09313 5.21481 9.29735C5.21893 9.30298 5.22256 9.30793 5.22565 9.31217C5.23466 9.32401 5.25164 9.3486 5.27635 9.38438C5.58207 9.82711 7.07115 11.9835 9.29163 12.9035C11.1679 13.6813 11.7253 13.6089 12.152 13.518Z" fill="#83BF6E"/>
</svg>
