<svg width="48" height="47" viewBox="0 0 48 47" fill="none" xmlns="http://www.w3.org/2000/svg">
<path d="M40.7053 6.89781L16.0331 15.7077V29.3452L17.4903 29.8654L15.2947 34.2567C15.0446 34.7559 14.9048 35.3031 14.8848 35.8611C14.8647 36.4191 14.9649 36.9749 15.1785 37.4908C15.3921 38.0066 15.7141 38.4706 16.1228 38.8511C16.5314 39.2316 17.0171 39.5198 17.5468 39.6961L25.5034 42.3476C26.3934 42.6378 27.3579 42.6004 28.2227 42.2421C29.0876 41.8838 29.796 41.2282 30.22 40.3936L32.7586 35.3165L40.7053 38.1551C40.9992 38.2599 41.3139 38.2926 41.6231 38.2505C41.9322 38.2083 42.2267 38.0926 42.4818 37.9129C42.7369 37.7332 42.9451 37.4949 43.0889 37.2181C43.2327 36.9412 43.3079 36.6338 43.3082 36.3218V8.73109C43.3079 8.41909 43.2327 8.11171 43.0889 7.83483C42.9451 7.55794 42.7369 7.31964 42.4818 7.13998C42.2267 6.96031 41.9322 6.84454 41.6231 6.8024C41.3139 6.76026 40.9992 6.79298 40.7053 6.89781ZM26.7347 38.6519L18.7801 36.0003L21.1861 31.1863L29.0608 33.9995L26.7347 38.6519ZM8.24019 29.3452H12.1366V15.7077H8.24019C6.0913 15.7077 4.34375 17.4552 4.34375 19.6041V25.4488C4.34375 27.5977 6.0913 29.3452 8.24019 29.3452Z" fill="#FFD24D"/>
</svg>
