<svg width="53" height="47" viewBox="0 0 53 47" fill="none" xmlns="http://www.w3.org/2000/svg">
<path d="M51.8897 30.7119C50.6915 29.0854 48.4066 28.7338 46.782 29.9385L35.8506 37.9904H24.8371C24.0382 37.9904 23.4581 37.3283 23.4581 36.5302C23.4581 35.7311 24.1202 35.069 24.8371 35.069H31.9831C33.3621 35.069 34.7913 34.0754 35.0305 32.638C35.3273 30.8115 33.9237 29.2243 32.1429 29.2243H17.4518C15.0683 29.2243 12.6007 30.0691 10.6829 31.6215L6.43644 35.0681L1.37898 34.9858C0.662182 34.9858 0 35.7346 0 36.5292V45.2943C0 46.0998 0.662182 46.7573 1.37898 46.7573H32.9858C34.9977 46.7573 36.9967 46.1009 38.6204 44.9062L50.9582 35.8177C52.739 34.6205 53.086 32.3374 51.8897 30.7119ZM25.5065 15.9815C24.8124 15.881 23.8992 15.5523 23.0956 15.2601L22.6481 15.1048C21.5065 14.6208 20.2554 15.2966 19.8536 16.3559C19.4518 17.4153 20.0473 18.7486 21.186 19.1541L21.6111 19.3053C22.3861 19.5848 23.244 19.8619 24.1124 20.0644V21.1869C24.1124 22.3969 25.0923 23.3787 26.3024 23.3787C27.5124 23.3787 28.4941 22.3969 28.4941 21.1869V20.2372C30.8018 19.7145 32.41 18.2417 32.7041 16.0619C33.4975 11.4912 29.1525 10.2483 26.8211 9.58251L26.3375 9.41539C23.9357 8.73412 24.0727 8.44006 24.1366 8.06472C24.2422 7.44683 25.5339 7.14602 27.0781 7.38976C27.5291 7.46108 28.1165 7.62236 28.8726 7.88491C30.0169 8.27586 31.2662 7.67377 31.6598 6.52968C32.0534 5.38558 31.4489 4.13793 30.3046 3.74159C29.6103 3.50168 29.0334 3.3436 28.4946 3.21913V2.19175C28.4946 0.981721 27.5128 0 26.3028 0C25.0928 0 24.1129 0.981721 24.1129 2.19175V3.15247C21.8079 3.67392 20.1915 5.13691 19.7349 7.3177C19.0317 11.8354 23.4426 13.1322 25.1047 13.6254L25.6981 13.7966C28.5894 14.6242 28.5428 14.8824 28.4688 15.3162C28.3649 15.9358 27.0772 16.2372 25.5065 15.9815Z" fill="#FFD24D"/>
</svg>
