<svg width="48" height="48" viewBox="0 0 48 48" fill="none" xmlns="http://www.w3.org/2000/svg">
<g clip-path="url(#clip0_1531_7384)">
<path d="M12.4431 18.1551H39.4097V13.7716C39.4097 11.3516 37.6645 9.38812 35.5133 9.38812H22.5252L17.3299 3.54346H4.34175C2.18978 3.54346 0.445312 5.50599 0.445312 7.92696V37.9174L7.79498 21.3788C8.67655 19.3971 10.4624 18.1551 12.4431 18.1551ZM44.5319 21.0775H12.4431C11.4609 21.0775 10.5598 21.6984 10.1215 22.6939L0.445312 44.4561H36.7391C37.7229 44.4561 38.6223 43.8304 39.0623 42.8406L46.8552 25.3066C47.7871 23.3605 46.5289 21.0775 44.5319 21.0775Z" fill="#FF99C7"/>
</g>
<defs>
<clipPath id="clip0_1531_7384">
<rect width="46.7573" height="46.7573" fill="white" transform="translate(0.445312 0.621338)"/>
</clipPath>
</defs>
</svg>
