<svg width="48" height="48" viewBox="0 0 48 48" fill="none" xmlns="http://www.w3.org/2000/svg">
<path d="M18.7208 42.792C20.3842 43.2471 22.1007 43.479 23.8252 43.4817L24.0999 43.4797C25.0844 43.4675 26.0498 43.2065 26.9064 42.7212C27.7631 42.2358 28.4831 41.5417 28.9996 40.7035C30.0556 38.9969 30.1686 36.8986 29.2977 35.0926L28.912 34.2841C28.0294 32.4489 28.723 30.7851 29.6679 29.8402C30.6128 28.8953 32.2804 28.2018 34.1098 29.0843H34.1118L34.9164 29.472C35.8011 29.8998 36.7798 30.0969 37.7611 30.0447C38.7425 29.9926 39.6947 29.6931 40.5292 29.1739C41.3679 28.6578 42.0625 27.9379 42.5482 27.0812C43.0339 26.2245 43.2951 25.2589 43.3074 24.2742C43.3317 22.4584 43.1002 20.6483 42.6197 18.8971C40.5974 11.4412 34.139 5.73879 26.5546 4.70428C20.4197 3.87239 14.3958 5.87711 10.0512 10.2236C5.70671 14.5701 3.69224 20.5842 4.52998 26.727C5.56254 34.3133 11.2669 40.7698 18.7208 42.792ZM30.6439 12.3101C31.419 12.3101 32.1623 12.618 32.7103 13.1661C33.2584 13.7141 33.5663 14.4574 33.5663 15.2325C33.5663 16.0075 33.2584 16.7508 32.7103 17.2989C32.1623 17.8469 31.419 18.1548 30.6439 18.1548C29.8689 18.1548 29.1256 17.8469 28.5775 17.2989C28.0295 16.7508 27.7216 16.0075 27.7216 15.2325C27.7216 14.4574 28.0295 13.7141 28.5775 13.1661C29.1256 12.618 29.8689 12.3101 30.6439 12.3101ZM20.9028 10.3619C21.6779 10.3619 22.4212 10.6698 22.9692 11.2178C23.5173 11.7659 23.8252 12.5092 23.8252 13.2842C23.8252 14.0593 23.5173 14.8026 22.9692 15.3506C22.4212 15.8987 21.6779 16.2066 20.9028 16.2066C20.1278 16.2066 19.3845 15.8987 18.8364 15.3506C18.2884 14.8026 17.9805 14.0593 17.9805 13.2842C17.9805 12.5092 18.2884 11.7659 18.8364 11.2178C19.3845 10.6698 20.1278 10.3619 20.9028 10.3619ZM17.9805 30.8299C17.9805 31.605 17.6726 32.3483 17.1246 32.8963C16.5765 33.4444 15.8332 33.7523 15.0582 33.7523C14.2831 33.7523 13.5398 33.4444 12.9918 32.8963C12.4437 32.3483 12.1358 31.605 12.1358 30.8299C12.1358 30.0549 12.4437 29.3116 12.9918 28.7635C13.5398 28.2155 14.2831 27.9076 15.0582 27.9076C15.8332 27.9076 16.5765 28.2155 17.1246 28.7635C17.6726 29.3116 17.9805 30.0549 17.9805 30.8299ZM13.1099 18.1665C13.8853 18.1667 14.6287 18.475 15.1768 19.0234C15.7248 19.5718 16.0325 20.3155 16.0323 21.0908C16.032 21.8661 15.7238 22.6095 15.1754 23.1576C14.627 23.7056 13.8833 24.0134 13.108 24.0131C12.3327 24.0128 11.5892 23.7046 11.0412 23.1562C10.4932 22.6078 10.1854 21.8641 10.1857 21.0888C10.1859 20.3135 10.4942 19.5701 11.0426 19.022C11.591 18.474 12.3346 18.1662 13.1099 18.1665Z" fill="#9747FF"/>
</svg>
