<svg width="48" height="38" viewBox="0 0 48 38" fill="none" xmlns="http://www.w3.org/2000/svg">
<g clip-path="url(#clip0_1531_7390)">
<path d="M24.8906 16.1776L22.6989 18.1873C19.7327 20.9075 16.3574 19.058 15.2688 17.8736C13.3036 15.7243 13.457 12.398 15.5903 10.4387L21.5665 4.96307H21.0843C16.8615 4.96307 12.7995 6.64086 9.81139 9.62725L2.78318 9.64918C1.49735 9.64918 0.445312 10.7012 0.445312 11.9871V23.6695C0.445312 24.9554 1.49735 26.0118 2.71743 26.0118L11.068 26.0074L17.6798 31.989C19.6889 33.6243 22.6295 33.3129 24.255 31.3124L25.5788 32.4272C26.739 33.3118 28.4559 33.1948 29.4056 32.0347L31.6982 29.2128L32.0908 29.5417C33.0954 30.3458 34.566 30.1998 35.3784 29.1945L36.078 28.3297C36.8875 27.3281 36.734 25.8624 35.7346 25.0501L24.8906 16.1776ZM44.8648 9.64918L37.8512 9.63999C34.8572 6.64556 30.7967 4.96997 26.5637 4.96997L25.9354 4.96307C25.3509 4.96307 24.7942 5.19679 24.3558 5.58945L17.1757 12.1494C17.1684 12.164 17.1611 12.1787 17.1611 12.1787C15.9337 13.3337 15.9629 15.1468 17.0003 16.2726C17.7035 17.0402 19.5574 17.8532 21.1011 16.4736C21.1011 16.4645 21.1194 16.4645 21.1285 16.4554L26.9731 11.1113C27.448 10.6821 28.1874 10.7095 28.6257 11.1844C29.0641 11.6593 29.0275 12.3994 28.5527 12.8381L26.6444 14.5831L37.2817 23.217C38.1671 23.9474 38.7063 24.9342 38.8977 25.9935L44.8648 25.9957C46.1506 25.9957 47.2026 24.9445 47.2026 23.6578V11.9886C47.2026 10.6946 46.1579 9.64918 44.8648 9.64918Z" fill="#F2994A"/>
</g>
<defs>
<clipPath id="clip0_1531_7390">
<rect width="46.7573" height="37.4304" fill="white" transform="translate(0.445312 0.28479)"/>
</clipPath>
</defs>
</svg>
