<svg width="48" height="48" viewBox="0 0 48 48" fill="none" xmlns="http://www.w3.org/2000/svg">
<mask id="mask0_1531_7371" style="mask-type:alpha" maskUnits="userSpaceOnUse" x="2" y="6" width="44" height="37">
<path d="M22.844 39.3892H7.25827C6.48322 39.3892 5.73991 39.0813 5.19187 38.5333C4.64383 37.9852 4.33594 37.2419 4.33594 36.4669V11.14C4.33594 10.3649 4.64383 9.62163 5.19187 9.07358C5.73991 8.52554 6.48322 8.21765 7.25827 8.21765H40.378C41.1531 8.21765 41.8964 8.52554 42.4444 9.07358C42.9925 9.62163 43.3004 10.3649 43.3004 11.14V25.6367" stroke="white" stroke-width="3.89644" stroke-linecap="round" stroke-linejoin="round"/>
<path d="M4.33594 11.14C4.33594 10.3649 4.64383 9.62163 5.19187 9.07358C5.73991 8.52554 6.48322 8.21765 7.25827 8.21765H40.378C41.1531 8.21765 41.8964 8.52554 42.4444 9.07358C42.9925 9.62163 43.3004 10.3649 43.3004 11.14V19.907H4.33594V11.14Z" fill="white" stroke="white" stroke-width="3.89644"/>
<path d="M39.4052 32.5695L43.3016 36.4659L39.4052 40.3623M33.5605 32.5695L29.6641 36.4659L33.5605 40.3623V32.5695Z" stroke="white" stroke-width="3.89644" stroke-linecap="round" stroke-linejoin="round"/>
<path d="M8.22856 14.0618C8.22856 12.9859 9.10081 12.1136 10.1768 12.1136C11.2528 12.1136 12.125 12.9859 12.125 14.0618C12.125 15.1378 11.2528 16.0101 10.1768 16.0101C9.10081 16.0101 8.22856 15.1378 8.22856 14.0618Z" fill="black"/>
<path d="M14.0801 14.0618C14.0801 12.9859 14.9524 12.1136 16.0283 12.1136C17.1043 12.1136 17.9766 12.9859 17.9766 14.0618C17.9766 15.1378 17.1043 16.0101 16.0283 16.0101C14.9524 16.0101 14.0801 15.1378 14.0801 14.0618Z" fill="black"/>
</mask>
<g mask="url(#mask0_1531_7371)">
<path d="M0.445312 0.426575H47.2026V47.1839H0.445312V0.426575Z" fill="#F6BE56"/>
</g>
</svg>
