<svg width="48" height="48" viewBox="0 0 48 48" fill="none" xmlns="http://www.w3.org/2000/svg">
<path d="M23.8221 27.6521C23.2441 27.6521 22.6791 27.4808 22.1985 27.1596C21.718 26.8385 21.3434 26.3821 21.1222 25.8481C20.901 25.3142 20.8432 24.7266 20.9559 24.1597C21.0687 23.5928 21.347 23.0721 21.7557 22.6634C22.1644 22.2547 22.6851 21.9764 23.252 21.8636C23.8189 21.7509 24.4064 21.8087 24.9404 22.0299C25.4744 22.2511 25.9308 22.6257 26.2519 23.1063C26.573 23.5868 26.7444 24.1518 26.7444 24.7298C26.7444 25.5049 26.4365 26.2482 25.8885 26.7962C25.3405 27.3443 24.5972 27.6521 23.8221 27.6521ZM40.0958 26.2823L26.5983 44.6017C26.5063 44.7243 26.378 44.815 26.2317 44.8607C26.0853 44.9064 25.9283 44.9049 25.7828 44.8564C25.6374 44.8079 25.5108 44.7149 25.4212 44.5905C25.3315 44.4661 25.2833 44.3167 25.2833 44.1633V30.3918C26.6606 30.0362 27.861 29.1904 28.6594 28.013C29.4578 26.8357 29.7994 25.4075 29.6202 23.9963C29.4409 22.5851 28.7532 21.2877 27.6858 20.3473C26.6184 19.4069 25.2447 18.8881 23.8221 18.8881C22.3995 18.8881 21.0258 19.4069 19.9584 20.3473C18.891 21.2877 18.2033 22.5851 18.024 23.9963C17.8448 25.4075 18.1864 26.8357 18.9848 28.013C19.7832 29.1904 20.9836 30.0362 22.3609 30.3918V44.1633C22.3609 44.3167 22.3127 44.4661 22.223 44.5905C22.1334 44.7149 22.0068 44.8079 21.8614 44.8564C21.7159 44.9049 21.5589 44.9064 21.4125 44.8607C21.2662 44.815 21.1379 44.7243 21.0459 44.6017L7.54836 26.2823C7.2304 25.85 7.03679 25.339 6.9885 24.8046C6.9402 24.2701 7.03907 23.7327 7.27439 23.2504L12.1328 13.424V6.46524C12.1328 5.69019 12.4407 4.94688 12.9887 4.39884C13.5367 3.8508 14.2801 3.54291 15.0551 3.54291H32.5891C33.3641 3.54291 34.1075 3.8508 34.6555 4.39884C35.2035 4.94688 35.5114 5.69019 35.5114 6.46524V13.424L40.3698 23.2504C40.6051 23.7327 40.704 24.2701 40.6557 24.8046C40.6074 25.339 40.4138 25.85 40.0958 26.2823ZM32.5891 6.46524H15.0551V12.3099H32.5891V6.46524Z" fill="#44B480"/>
</svg>
