<svg width="48" height="48" viewBox="0 0 48 48" fill="none" xmlns="http://www.w3.org/2000/svg">
<path d="M12.8643 6.46698C11.1204 6.46698 9.44801 7.15973 8.21491 8.39283C6.98181 9.62592 6.28906 11.2984 6.28906 13.0422V29.1151C6.28906 30.8589 6.98181 32.5314 8.21491 33.7645C9.44801 34.9976 11.1204 35.6903 12.8643 35.6903H31.8595C33.6033 35.6903 35.2758 34.9976 36.5089 33.7645C37.742 32.5314 38.4347 30.8589 38.4347 29.1151V13.0422C38.4347 11.2984 37.742 9.62592 36.5089 8.39283C35.2758 7.15973 33.6033 6.46698 31.8595 6.46698H12.8643ZM17.9784 26.9116V15.2457C17.9782 14.9809 18.0499 14.7211 18.1859 14.4939C18.3219 14.2667 18.5171 14.0808 18.7506 13.9559C18.9841 13.8311 19.2471 13.772 19.5115 13.7851C19.776 13.7981 20.0319 13.8828 20.252 14.03L29.0102 19.863C29.2109 19.9963 29.3756 20.1772 29.4895 20.3895C29.6033 20.6019 29.6629 20.8391 29.6629 21.0801C29.6629 21.3211 29.6033 21.5583 29.4895 21.7707C29.3756 21.983 29.2109 22.1639 29.0102 22.2973L20.249 28.1302C20.0288 28.2768 19.7729 28.3608 19.5086 28.3733C19.2444 28.3858 18.9817 28.3264 18.7486 28.2013C18.5155 28.0762 18.3207 27.8901 18.1851 27.663C18.0494 27.4359 17.978 27.1762 17.9784 26.9116ZM17.9784 41.535C16.844 41.5359 15.7251 41.2722 14.7105 40.7649C13.6959 40.2576 12.8136 39.5207 12.1337 38.6126H33.3206C35.452 38.6126 37.4961 37.7659 39.0032 36.2588C40.5104 34.7517 41.357 32.7076 41.357 30.5762V12.3116C43.1309 13.6442 44.2794 15.7658 44.2794 18.1563V30.5762C44.2794 33.4827 43.1248 36.2701 41.0696 38.3252C39.0145 40.3804 36.2271 41.535 33.3206 41.535H17.9784Z" fill="#332A75"/>
</svg>
