<svg width="294" height="712" viewBox="0 0 294 712" fill="none" xmlns="http://www.w3.org/2000/svg">
<path d="M55.3449 6.16124C56.9086 6.16124 58.1763 4.78198 58.1763 3.08059C58.1763 1.3792 56.9086 0 55.3449 0C53.7812 0 52.5137 1.3792 52.5137 3.08059C52.5137 4.78198 53.7812 6.16124 55.3449 6.16124Z" fill="white"/>
<path d="M202.719 183.179C207.806 183.179 211.93 178.692 211.93 173.157C211.93 167.622 207.806 163.135 202.719 163.135C197.632 163.135 193.508 167.622 193.508 173.157C193.508 178.692 197.632 183.179 202.719 183.179Z" fill="url(#paint0_linear_1816_5666)"/>
<path d="M202.719 190.32C211.431 190.32 218.493 182.636 218.493 173.157C218.493 163.678 211.431 155.993 202.719 155.993C194.007 155.993 186.944 163.678 186.944 173.157C186.944 182.636 194.007 190.32 202.719 190.32Z" stroke="url(#paint1_linear_1816_5666)" stroke-width="0.812407" stroke-miterlimit="10"/>
<path d="M2.57917 667.058C2.57917 673.76 -2.42156 679.201 -8.58053 679.201C-14.7395 679.201 -19.7402 673.76 -19.7402 667.058C-19.7402 660.357 -14.7395 654.916 -8.58053 654.916C-2.42156 654.916 2.57917 660.337 2.57917 667.058Z" stroke="url(#paint2_linear_1816_5666)" stroke-width="0.812407" stroke-miterlimit="10"/>
<path d="M247.21 227.268C259.354 227.268 269.199 216.556 269.199 203.343C269.199 190.13 259.354 179.418 247.21 179.418C235.066 179.418 225.222 190.13 225.222 203.343C225.222 216.556 235.066 227.268 247.21 227.268Z" fill="url(#paint3_linear_1816_5666)"/>
<path d="M136.66 145.569L153.06 124.305" stroke="url(#paint4_linear_1816_5666)" stroke-width="0.812407" stroke-miterlimit="10"/>
<path d="M141.697 150.151L167.455 116.764" stroke="url(#paint5_linear_1816_5666)" stroke-width="0.812407" stroke-miterlimit="10"/>
<path d="M136.66 167.814L163.116 133.487" stroke="url(#paint6_linear_1816_5666)" stroke-width="0.812407" stroke-miterlimit="10"/>
<path d="M183.064 512.146L203.987 484.98" stroke="url(#paint7_linear_1816_5666)" stroke-width="0.812407" stroke-miterlimit="10"/>
<path d="M189.48 518.007L222.371 475.338" stroke="url(#paint8_linear_1816_5666)" stroke-width="0.812407" stroke-miterlimit="10"/>
<path d="M183.064 540.551L216.856 496.722" stroke="url(#paint9_linear_1816_5666)" stroke-width="0.812407" stroke-miterlimit="10"/>
<g opacity="0.5">
<path opacity="0.5" d="M149.126 37.9277L124.563 67.7138" stroke="url(#paint10_linear_1816_5666)" stroke-width="0.812407" stroke-miterlimit="10"/>
<path opacity="0.5" d="M156.167 44.8096L117.596 91.5992" stroke="url(#paint11_linear_1816_5666)" stroke-width="0.812407" stroke-miterlimit="10"/>
<path opacity="0.5" d="M178.303 33.4072L138.665 81.4771" stroke="url(#paint12_linear_1816_5666)" stroke-width="0.812407" stroke-miterlimit="10"/>
</g>
<path d="M199.96 310.725C201.524 310.725 202.792 309.345 202.792 307.644C202.792 305.943 201.524 304.563 199.96 304.563C198.397 304.563 197.129 305.943 197.129 307.644C197.129 309.345 198.397 310.725 199.96 310.725Z" fill="white"/>
<path d="M228.035 584.92C228.035 586.621 226.766 588.001 225.203 588.001C223.641 588.001 222.372 586.621 222.372 584.92C222.372 583.22 223.641 581.84 225.203 581.84C226.766 581.86 228.035 583.22 228.035 584.92Z" fill="white"/>
<path d="M189.187 612.087C189.187 615.768 186.447 618.749 183.065 618.749C179.682 618.749 176.942 615.768 176.942 612.087C176.942 608.406 179.682 605.426 183.065 605.426C186.447 605.426 189.187 608.406 189.187 612.087Z" fill="white"/>
<path d="M294 415.386C294 419.067 291.261 422.047 287.878 422.047C284.495 422.047 281.756 419.067 281.756 415.386C281.756 411.705 284.495 408.725 287.878 408.725C291.261 408.705 294 411.705 294 415.386Z" fill="white"/>
<path d="M220.636 276.678L213.264 316.926L153.182 277.498L220.636 276.678Z" fill="#698FEE"/>
<path d="M222.518 352.033L197.092 341.171L200.364 373.938L222.518 352.033Z" fill="url(#paint13_linear_1816_5666)"/>
<path d="M-10.4746 60.4529C-35.2024 45.4899 -65.8318 35.6479 -93.924 44.4097C-115.729 51.2111 -132.183 68.9347 -144.611 88.8988C-158.602 111.363 -168.457 136.549 -178.899 161.094C-185.297 176.117 -192.265 190.56 -201.605 203.723C-211.643 217.885 -223.593 230.448 -236.922 240.89C-250.711 251.672 -265.897 260.094 -282.002 265.915C-300.369 272.557 -319.453 276.237 -338.297 280.878C-369.276 288.54 -402.13 300.442 -422.409 328.808C-431.38 341.351 -436.712 356.554 -436.951 372.497C-437.208 388.861 -432.392 404.984 -424.799 418.987C-407.572 450.813 -377.623 469.017 -346.368 480.68C-312.908 493.162 -277.59 499.103 -244.828 513.906C-228.465 521.308 -212.801 531.01 -199.822 544.273C-186.952 557.435 -177.006 573.459 -168.163 589.982C-151.487 621.189 -138.066 655.216 -114.037 680.881C-102.951 692.723 -89.6955 702.305 -74.7301 707.186C-59.6912 712.067 -43.6227 712.067 -28.3448 708.526C43.4486 691.863 75.4017 613.147 104.34 548.514C120.518 512.386 138.462 477.219 165.727 449.513C192.054 422.768 223.474 402.363 248.018 373.477C269.823 347.832 286.222 314.985 282.38 279.038C278.721 244.871 259.178 214.645 235.204 193.26C207.59 168.635 173.43 154.232 140.264 140.99C122.467 133.888 104.45 127.267 87.1681 118.745C70.1068 110.323 53.7074 100.461 37.5102 90.2591C29.7701 85.3781 22.0852 80.4171 14.3636 75.4961C6.16385 70.275 -2.34839 65.7541 -10.64 60.733C-11.2835 60.3329 -11.8718 61.4132 -11.2284 61.8133C-2.95511 66.8143 4.91367 72.6355 13.0766 77.8566C20.7983 82.7776 28.4832 87.7386 36.2233 92.6196C52.0528 102.602 68.0845 112.244 84.723 120.525C117.724 136.969 152.986 147.271 185.895 163.994C216.58 179.577 245.444 200.502 263.866 232.148C272.323 246.671 278.354 263.075 280.008 280.238C281.736 298.142 278.427 316.046 271.404 332.269C256.696 366.256 229.284 390.501 202.607 413.046C188.451 425.008 174.147 436.87 161.223 450.413C148.721 463.496 137.966 478.279 128.626 494.162C109.579 526.549 96.2502 562.316 79.906 596.303C63.9478 629.47 44.423 662.677 15.7056 684.402C-10.8239 704.466 -45.7737 715.228 -77.2305 703.465C-108.191 691.883 -128.653 661.217 -144.244 631.531C-160.79 600.004 -174.542 565.417 -199.785 540.652C-224.715 516.207 -257.495 504.644 -289.301 495.402C-322.909 485.641 -358.006 477.639 -387.643 456.795C-413.786 438.411 -435.517 406.604 -434.488 371.417C-433.458 335.77 -406.984 310.704 -378.965 297.262C-345.339 281.118 -307.613 279.698 -273.417 265.375C-244.773 253.373 -219.383 232.688 -200.502 206.403C-183.735 183.078 -174.285 155.293 -162.5 128.887C-152.333 106.102 -140.806 82.7376 -123.358 65.494C-105.341 47.6703 -82.2128 40.9489 -58.2388 44.5897C-41.7107 47.0902 -25.9915 53.4915 -11.3754 62.1533C-10.3826 62.6934 -9.50018 61.0531 -10.4746 60.4529Z" fill="url(#paint14_linear_1816_5666)" fill-opacity="0.8"/>
<path d="M132.157 454.873C153.815 429.408 181.208 411.124 204.852 388.08C225.461 367.995 244.398 342.47 249.031 311.964C253.48 282.518 242.964 253.552 225.994 230.927C207.094 205.722 180.786 189.359 153.686 176.636C124.068 162.733 92.795 153.271 63.7467 137.908C34.8087 122.585 8.22406 102.741 -20.2911 86.6375C-41.8934 74.435 -68.423 66.9735 -92.4521 74.515C-110.947 80.3162 -125.288 94.7992 -136.282 111.483C-148.839 130.527 -157.682 152.171 -166.636 173.355C-171.765 185.518 -176.784 197.72 -183.531 208.963C-191.088 221.525 -200.225 232.948 -210.576 242.87C-221.184 253.052 -233.097 261.614 -245.856 268.235C-260.546 275.857 -276.339 280.317 -292.168 284.138C-320.959 291.08 -350.963 296.681 -375.14 316.405C-385.307 324.707 -394.095 335.269 -399.224 348.051C-404.353 360.814 -405.383 374.957 -402.791 388.56C-397.22 417.726 -377.548 441.211 -354.328 455.694C-301.857 488.44 -232.178 482.819 -187.098 530.629C-165.22 553.834 -153.362 585.08 -138.102 613.266C-124.552 638.311 -107.105 663.216 -81.605 674.479C-55.5902 685.981 -25.9537 679.98 -1.99805 665.537C23.9064 649.934 42.8797 624.168 57.7716 596.883C61.5221 590.001 65.052 583 68.4349 575.898C71.928 568.597 74.6123 560.955 77.9032 553.554C78.2157 552.833 77.2414 552.193 76.9104 552.913C73.6563 560.255 69.7218 567.277 66.2654 574.498C62.7906 581.759 59.1872 588.961 55.3263 596.002C47.7333 609.865 39.2211 623.168 29.1461 635.031C9.7132 657.915 -16.4854 675.119 -45.5153 677.559C-59.4695 678.739 -73.5524 676.159 -86.1093 669.317C-98.3721 662.636 -108.704 652.534 -117.456 641.152C-135.896 617.167 -146.927 588.001 -161.929 561.575C-169.393 548.433 -177.924 535.87 -188.495 525.488C-199.122 515.046 -211.568 507.044 -224.622 500.783C-251.446 487.9 -280.402 482.099 -308.384 473.037C-336.255 464.015 -364.587 451.113 -383.284 425.827C-400.217 402.923 -408.251 370.996 -394.573 343.97C-381.299 317.745 -354.328 303.782 -328.883 296.161C-299.118 287.239 -267.918 283.858 -240.157 268.195C-216.735 254.992 -196.493 235.168 -181.932 211.243C-169.504 190.839 -161.837 167.274 -151.762 145.47C-142.864 126.246 -132.587 106.762 -117.437 92.5187C-101.737 77.7557 -81.8992 72.1745 -61.4367 74.9751C-30.8992 79.136 -5.08667 98.9601 20.8546 115.443C34.5146 124.125 48.285 132.647 62.5333 140.169C76.2669 147.43 90.4233 153.331 104.764 158.992C158.117 180.137 223.2 204.562 243.276 269.175C247.707 283.418 249.012 298.661 246.42 313.464C243.772 328.547 237.466 342.55 229.359 355.033C212.04 381.758 187.331 400.682 164.092 420.766C152.381 430.888 140.982 441.451 130.925 453.513C130.172 454.433 131.404 455.774 132.157 454.873Z" fill="url(#paint15_linear_1816_5666)"/>
<defs>
<linearGradient id="paint0_linear_1816_5666" x1="193.516" y1="173.165" x2="211.919" y2="173.165" gradientUnits="userSpaceOnUse">
<stop offset="0.0277" stop-color="#FFD24D"/>
<stop offset="0.7154" stop-color="#F6BE56"/>
<stop offset="1" stop-color="#F2B45A"/>
</linearGradient>
<linearGradient id="paint1_linear_1816_5666" x1="186.019" y1="173.165" x2="219.416" y2="173.165" gradientUnits="userSpaceOnUse">
<stop offset="0.0277" stop-color="#FFD24D"/>
<stop offset="0.7154" stop-color="#F6BE56"/>
<stop offset="1" stop-color="#F2B45A"/>
</linearGradient>
<linearGradient id="paint2_linear_1816_5666" x1="-20.6648" y1="667.051" x2="3.48923" y2="667.051" gradientUnits="userSpaceOnUse">
<stop offset="0.0277" stop-color="#FFD24D"/>
<stop offset="0.7154" stop-color="#F6BE56"/>
<stop offset="1" stop-color="#F2B45A"/>
</linearGradient>
<linearGradient id="paint3_linear_1816_5666" x1="225.213" y1="203.352" x2="269.201" y2="203.352" gradientUnits="userSpaceOnUse">
<stop offset="0.0277" stop-color="#FFD24D"/>
<stop offset="0.7154" stop-color="#F6BE56"/>
<stop offset="1" stop-color="#F2B45A"/>
</linearGradient>
<linearGradient id="paint4_linear_1816_5666" x1="135.234" y1="135.852" x2="154.516" y2="134.299" gradientUnits="userSpaceOnUse">
<stop offset="0.0277" stop-color="#FFD24D"/>
<stop offset="0.7154" stop-color="#F6BE56"/>
<stop offset="1" stop-color="#F2B45A"/>
</linearGradient>
<linearGradient id="paint5_linear_1816_5666" x1="139.817" y1="134.864" x2="169.369" y2="132.484" gradientUnits="userSpaceOnUse">
<stop offset="0.0277" stop-color="#FFD24D"/>
<stop offset="0.7154" stop-color="#F6BE56"/>
<stop offset="1" stop-color="#F2B45A"/>
</linearGradient>
<linearGradient id="paint6_linear_1816_5666" x1="134.751" y1="152.093" x2="165.078" y2="149.65" gradientUnits="userSpaceOnUse">
<stop offset="0.0277" stop-color="#FFD24D"/>
<stop offset="0.7154" stop-color="#F6BE56"/>
<stop offset="1" stop-color="#F2B45A"/>
</linearGradient>
<linearGradient id="paint7_linear_1816_5666" x1="181.404" y1="499.72" x2="205.674" y2="497.765" gradientUnits="userSpaceOnUse">
<stop offset="0.0277" stop-color="#FFD24D"/>
<stop offset="0.7154" stop-color="#F6BE56"/>
<stop offset="1" stop-color="#F2B45A"/>
</linearGradient>
<linearGradient id="paint8_linear_1816_5666" x1="187.257" y1="498.457" x2="224.648" y2="495.446" gradientUnits="userSpaceOnUse">
<stop offset="0.0277" stop-color="#FFD24D"/>
<stop offset="0.7154" stop-color="#F6BE56"/>
<stop offset="1" stop-color="#F2B45A"/>
</linearGradient>
<linearGradient id="paint9_linear_1816_5666" x1="180.786" y1="520.464" x2="219.166" y2="517.373" gradientUnits="userSpaceOnUse">
<stop offset="0.0277" stop-color="#FFD24D"/>
<stop offset="0.7154" stop-color="#F6BE56"/>
<stop offset="1" stop-color="#F2B45A"/>
</linearGradient>
<linearGradient id="paint10_linear_1816_5666" x1="136.105" y1="37.9946" x2="137.853" y2="67.6424" gradientUnits="userSpaceOnUse">
<stop offset="0.0277" stop-color="#FFD24D"/>
<stop offset="0.7154" stop-color="#F6BE56"/>
<stop offset="1" stop-color="#F2B45A"/>
</linearGradient>
<linearGradient id="paint11_linear_1816_5666" x1="135.741" y1="45.315" x2="138.439" y2="91.0878" gradientUnits="userSpaceOnUse">
<stop offset="0.0277" stop-color="#FFD24D"/>
<stop offset="0.7154" stop-color="#F6BE56"/>
<stop offset="1" stop-color="#F2B45A"/>
</linearGradient>
<linearGradient id="paint12_linear_1816_5666" x1="157.315" y1="33.9413" x2="160.085" y2="80.9293" gradientUnits="userSpaceOnUse">
<stop offset="0.0277" stop-color="#FFD24D"/>
<stop offset="0.7154" stop-color="#F6BE56"/>
<stop offset="1" stop-color="#F2B45A"/>
</linearGradient>
<linearGradient id="paint13_linear_1816_5666" x1="193.992" y1="344.668" x2="213.622" y2="362.068" gradientUnits="userSpaceOnUse">
<stop offset="0.0277" stop-color="#FFD24D"/>
<stop offset="0.7154" stop-color="#F6BE56"/>
<stop offset="1" stop-color="#F2B45A"/>
</linearGradient>
<linearGradient id="paint14_linear_1816_5666" x1="-396.158" y1="509.753" x2="285.975" y2="281.572" gradientUnits="userSpaceOnUse">
<stop offset="0.0277" stop-color="#FFD24D"/>
<stop offset="0.0356" stop-color="#F7CC4C"/>
<stop offset="0.0797" stop-color="#CEAE4A"/>
<stop offset="0.1292" stop-color="#A89348"/>
<stop offset="0.1831" stop-color="#887B45"/>
<stop offset="0.2427" stop-color="#6C6744"/>
<stop offset="0.3099" stop-color="#565742"/>
<stop offset="0.3884" stop-color="#454B41"/>
<stop offset="0.4856" stop-color="#3A4241"/>
<stop offset="0.6218" stop-color="#333D40"/>
<stop offset="1" stop-color="#313C40"/>
</linearGradient>
<linearGradient id="paint15_linear_1816_5666" x1="-233.888" y1="161.267" x2="146.23" y2="510.619" gradientUnits="userSpaceOnUse">
<stop stop-color="#313C40"/>
<stop offset="0.251" stop-color="#333E40"/>
<stop offset="0.397" stop-color="#3C4441"/>
<stop offset="0.5161" stop-color="#4A4E42"/>
<stop offset="0.6208" stop-color="#5E5D43"/>
<stop offset="0.716" stop-color="#786F44"/>
<stop offset="0.8042" stop-color="#988746"/>
<stop offset="0.8873" stop-color="#BDA249"/>
<stop offset="0.964" stop-color="#E8C14C"/>
<stop offset="1" stop-color="#FFD24D"/>
</linearGradient>
</defs>
</svg>
