<svg width="91" height="58" viewBox="0 0 91 58" fill="none" xmlns="http://www.w3.org/2000/svg">
<path d="M71.3596 31.9468V52.0845H66.5418V31.9468L48.0605 5.97266H53.2731L69.1142 27.668L84.9553 5.97266H89.8409L71.3596 31.9468Z" fill="white"/>
<path d="M7.69238 5.91699H16.5567V8.86594H10.9433V14.3144H15.4032V17.2633H10.9433V23.5983H16.5567V26.5473H7.69238V5.91699Z" fill="white"/>
<path d="M18.4131 5.91699H22.4906L25.6489 18.2669H25.7106V5.91699H28.6037V26.5473H25.2665L21.3679 11.4886H21.3062V26.5473H18.4131V5.91699Z" fill="white"/>
<path d="M30.2881 26.5473V23.5983C30.6355 23.6812 30.9919 23.7205 31.3491 23.7153C31.9968 23.7153 32.4841 23.5552 32.7987 23.229C33.1133 22.9027 33.2675 22.4101 33.2675 21.7452V5.91699H36.5184V21.6529C36.5184 23.348 36.1298 24.6059 35.3526 25.4268C34.5753 26.2518 33.3848 26.6643 31.7932 26.6643C31.289 26.6724 30.785 26.6332 30.2881 26.5473Z" fill="white"/>
<path d="M39.887 25.488C39.0357 24.583 38.6162 23.3024 38.6162 21.6525V10.811C38.6162 9.1549 39.0357 7.88051 39.887 6.97551C40.7382 6.07052 41.9535 5.62109 43.545 5.62109C45.1365 5.62109 46.364 6.07052 47.2091 6.97551C48.0543 7.88051 48.4799 9.1549 48.4799 10.811V21.6525C48.4799 23.3024 48.0563 24.5809 47.2091 25.488C46.364 26.3868 45.1427 26.8424 43.545 26.8424C41.9473 26.8424 40.7321 26.3868 39.887 25.488ZM45.229 21.8618V10.6017C45.229 9.24725 44.6677 8.57004 43.545 8.57004C42.4223 8.57004 41.8609 9.24725 41.8609 10.6017V21.8618C41.8609 23.2163 42.4223 23.8935 43.545 23.8935C44.6677 23.8935 45.229 23.2163 45.229 21.8618Z" fill="white"/>
<path d="M1.16016 31.4531H5.79899L7.86549 46.2163H7.92717L9.99367 31.4531H14.6263V52.0834H11.5543V36.4645H11.4988L9.13623 52.0834H6.42202L4.05326 36.4645H3.99774V52.0834H1.16016V31.4531Z" fill="white"/>
<path d="M18.08 51.0251C17.2329 50.1222 16.8113 48.8437 16.8155 47.1896V36.3481C16.8155 34.692 17.2349 33.4176 18.08 32.5126C18.9251 31.6076 20.1527 31.1582 21.7442 31.1582C23.3357 31.1582 24.5633 31.6076 25.4084 32.5126C26.2535 33.4176 26.6791 34.692 26.6791 36.3481V47.1896C26.6791 48.8396 26.2556 50.118 25.4084 51.0251C24.5633 51.9239 23.3419 52.3795 21.7442 52.3795C20.1465 52.3795 18.9313 51.9239 18.08 51.0251ZM23.4283 47.3989V36.1388C23.4283 34.7844 22.8669 34.1071 21.7442 34.1071C20.6215 34.1071 20.0602 34.7844 20.0602 36.1388V47.3989C20.0602 48.7534 20.6215 49.4306 21.7442 49.4306C22.8669 49.4306 23.4283 48.7534 23.4283 47.3989Z" fill="white"/>
<path d="M28.8633 31.4531H32.9408L36.0991 43.803H36.1546V31.4531H39.0539V52.0834H35.7167L31.8181 37.0247H31.7564V52.0834H28.8633V31.4531Z" fill="white"/>
<path d="M41.4727 31.4531H46.4323C48.0484 31.4531 49.2596 31.8841 50.0656 32.746C50.8716 33.6079 51.2747 34.8761 51.2747 36.5507V46.9859C51.2747 48.6522 50.8716 49.9184 50.0656 50.7844C49.2596 51.6504 48.0484 52.0834 46.4323 52.0834H41.4727V31.4531ZM46.3767 49.1345C46.9072 49.1345 47.3144 48.9806 47.5981 48.6666C47.8819 48.3526 48.0299 47.8416 48.0299 47.1336V36.4029C48.0299 35.6949 47.8881 35.1839 47.5981 34.87C47.3082 34.556 46.9072 34.4021 46.3767 34.4021H44.7235V49.1345H46.3767Z" fill="white"/>
<path d="M55.913 31.4531H60.3113L63.6793 52.0834H60.4285L59.8424 47.9894V48.0448H56.1474L55.5614 52.0834H52.5449L55.913 31.4531ZM59.4538 45.2436L58.0104 35.0485H57.9487L56.536 45.2436H59.4538Z" fill="white"/>
<path d="M75.7384 51.0374C74.9323 50.1468 74.5293 48.8642 74.5293 47.1896V46.0137H77.6013V47.4297C77.6013 48.7657 78.1626 49.4306 79.2853 49.4306C79.8343 49.4306 80.2538 49.2705 80.5376 48.9442C80.8213 48.6179 80.9694 48.0946 80.9694 47.3682C80.9694 46.5063 80.772 45.7429 80.3772 45.0841C79.9824 44.4254 79.2545 43.6373 78.1935 42.7139C76.8569 41.5318 75.9214 40.4647 75.3867 39.5125C74.8562 38.5583 74.591 37.487 74.591 36.2865C74.591 34.6571 75.0043 33.3951 75.8309 32.5003C76.6575 31.6076 77.8542 31.1582 79.4334 31.1582C81.0126 31.1582 82.1661 31.6076 82.9619 32.5003C83.7576 33.393 84.1586 34.6735 84.1586 36.3481V37.1977H81.0866V36.1388C81.0866 35.4308 80.9447 34.9136 80.6733 34.5935C80.4019 34.2734 79.9947 34.1071 79.4581 34.1071C78.3785 34.1071 77.8357 34.7659 77.8357 36.0772C77.8341 36.8181 78.0438 37.5441 78.4402 38.1704C78.8474 38.823 79.5814 39.6049 80.6424 40.5283C81.9995 41.7104 82.9351 42.7816 83.4492 43.742C83.9612 44.7086 84.2141 45.8352 84.2141 47.1342C84.2141 48.8211 83.7967 50.118 82.9619 51.0251C82.1229 51.9239 80.9077 52.3795 79.3162 52.3795C77.7247 52.3795 76.5465 51.9301 75.7384 51.0374Z" fill="white"/>
<path d="M68.9468 16.0256C71.2328 16.0256 73.086 14.1761 73.086 11.8947C73.086 9.61318 71.2328 7.76367 68.9468 7.76367C66.6608 7.76367 64.8076 9.61318 64.8076 11.8947C64.8076 14.1761 66.6608 16.0256 68.9468 16.0256Z" fill="#F9B400"/>
</svg>
