<svg width="103" height="66" viewBox="0 0 103 66" fill="none" xmlns="http://www.w3.org/2000/svg">
<path d="M80.7699 36.159V58.9523H75.3168V36.159L54.3984 6.75977H60.2983L78.2284 31.3161L96.1584 6.75977H101.688L80.7699 36.159Z" fill="black"/>
<path d="M8.70703 6.69727H18.7403V10.0351H12.3866V16.202H17.4347V19.5398H12.3866V26.7102H18.7403V30.048H8.70703V6.69727Z" fill="black"/>
<path d="M20.8418 6.69727H25.457L29.0318 20.6757H29.1016V6.69727H32.3762V30.048H28.5989L24.1862 13.0036H24.1164V30.048H20.8418V6.69727Z" fill="black"/>
<path d="M34.2832 30.048V26.7102C34.6764 26.804 35.0799 26.8484 35.4841 26.8426C36.2172 26.8426 36.7688 26.6614 37.1249 26.2921C37.481 25.9228 37.6556 25.3653 37.6556 24.6128V6.69727H41.3351V24.5082C41.3351 26.4268 40.8953 27.8507 40.0155 28.7798C39.1358 29.7136 37.7882 30.1804 35.9868 30.1804C35.4161 30.1896 34.8457 30.1453 34.2832 30.048Z" fill="black"/>
<path d="M45.1473 28.849C44.1838 27.8247 43.709 26.3753 43.709 24.5078V12.2366C43.709 10.3621 44.1838 8.91967 45.1473 7.89533C46.1108 6.87099 47.4863 6.3623 49.2877 6.3623C51.0891 6.3623 52.4785 6.87099 53.4351 7.89533C54.3916 8.91967 54.8734 10.3621 54.8734 12.2366V24.5078C54.8734 26.3753 54.3939 27.8223 53.4351 28.849C52.4785 29.8664 51.0961 30.382 49.2877 30.382C47.4793 30.382 46.1038 29.8664 45.1473 28.849ZM51.1938 24.7447V11.9997C51.1938 10.4666 50.5584 9.70012 49.2877 9.70012C48.0169 9.70012 47.3816 10.4666 47.3816 11.9997V24.7447C47.3816 26.2777 48.0169 27.0442 49.2877 27.0442C50.5584 27.0442 51.1938 26.2777 51.1938 24.7447Z" fill="black"/>
<path d="M1.31348 35.6006H6.56402L8.90302 52.3106H8.97285L11.3119 35.6006H16.5554V58.9514H13.0783V41.2728H13.0155L10.3413 58.9514H7.26921L4.58808 41.2728H4.52525V58.9514H1.31348V35.6006Z" fill="black"/>
<path d="M20.4646 57.7543C19.5057 56.7323 19.0286 55.2852 19.0332 53.413V41.1419C19.0332 39.2674 19.508 37.8249 20.4646 36.8006C21.4211 35.7763 22.8106 35.2676 24.6119 35.2676C26.4133 35.2676 27.8028 35.7763 28.7593 36.8006C29.7159 37.8249 30.1976 39.2674 30.1976 41.1419V53.413C30.1976 55.2805 29.7182 56.7276 28.7593 57.7543C27.8028 58.7717 26.4203 59.2873 24.6119 59.2873C22.8036 59.2873 21.4281 58.7717 20.4646 57.7543ZM26.5181 53.65V40.9049C26.5181 39.3719 25.8827 38.6054 24.6119 38.6054C23.3412 38.6054 22.7058 39.3719 22.7058 40.9049V53.65C22.7058 55.183 23.3412 55.9495 24.6119 55.9495C25.8827 55.9495 26.5181 55.183 26.5181 53.65Z" fill="black"/>
<path d="M32.6699 35.6006H37.2851L40.8599 49.579H40.9228V35.6006H44.2044V58.9514H40.427L36.0143 41.9069H35.9445V58.9514H32.6699V35.6006Z" fill="black"/>
<path d="M46.9414 35.6006H52.555C54.3843 35.6006 55.7551 36.0884 56.6675 37.0639C57.5798 38.0395 58.036 39.475 58.036 41.3703V53.1816C58.036 55.0677 57.5798 56.5008 56.6675 57.4811C55.7551 58.4613 54.3843 58.9514 52.555 58.9514H46.9414V35.6006ZM52.4922 55.6135C53.0926 55.6135 53.5535 55.4393 53.8746 55.084C54.1958 54.7286 54.3634 54.1502 54.3634 53.3488V41.2031C54.3634 40.4017 54.2028 39.8234 53.8746 39.468C53.5465 39.1126 53.0926 38.9384 52.4922 38.9384H50.621V55.6135H52.4922Z" fill="black"/>
<path d="M63.2868 35.6006H68.2651L72.0773 58.9514H68.3977L67.7344 54.3174V54.3802H63.5522L62.8889 58.9514H59.4746L63.2868 35.6006ZM67.2946 51.2096L65.6608 39.6701H65.5909L63.992 51.2096H67.2946Z" fill="black"/>
<path d="M85.7259 57.7682C84.8136 56.7601 84.3574 55.3084 84.3574 53.413V52.0821H87.8345V53.6848C87.8345 55.1969 88.4699 55.9495 89.7406 55.9495C90.362 55.9495 90.8368 55.7683 91.158 55.399C91.4792 55.0297 91.6467 54.4374 91.6467 53.6151C91.6467 52.6396 91.4233 51.7755 90.9765 51.0299C90.5296 50.2843 89.7057 49.3923 88.5048 48.3471C86.992 47.0092 85.9331 45.8013 85.3279 44.7236C84.7275 43.6435 84.4272 42.431 84.4272 41.0722C84.4272 39.2279 84.8951 37.7994 85.8307 36.7867C86.7663 35.7763 88.1208 35.2676 89.9082 35.2676C91.6956 35.2676 93.0013 35.7763 93.902 36.7867C94.8027 37.7971 95.2565 39.2465 95.2565 41.1419V42.1035H91.7794V40.9049C91.7794 40.1036 91.6188 39.5182 91.3116 39.1559C91.0044 38.7935 90.5436 38.6054 89.9361 38.6054C88.7143 38.6054 88.0998 39.351 88.0998 40.8352C88.098 41.6738 88.3353 42.4955 88.7841 43.2045C89.2449 43.9431 90.0758 44.8281 91.2767 45.8733C92.8128 47.2112 93.8717 48.4237 94.4536 49.5108C95.0331 50.6048 95.3193 51.88 95.3193 53.3503C95.3193 55.2596 94.8469 56.7276 93.902 57.7543C92.9524 58.7717 91.5769 59.2873 89.7755 59.2873C87.9742 59.2873 86.6406 58.7786 85.7259 57.7682Z" fill="black"/>
<path d="M78.0385 18.1386C80.626 18.1386 82.7235 16.0452 82.7235 13.4628C82.7235 10.8805 80.626 8.78711 78.0385 8.78711C75.4511 8.78711 73.3535 10.8805 73.3535 13.4628C73.3535 16.0452 75.4511 18.1386 78.0385 18.1386Z" fill="#F9B400"/>
</svg>
