<svg width="636" height="351" viewBox="0 0 636 351" fill="none" xmlns="http://www.w3.org/2000/svg">
<g clip-path="url(#clip0_1020_4620)">
<path d="M418.085 195.453H539.264L553.287 124.919C553.635 123.17 553.584 121.367 553.138 119.64C552.692 117.913 551.862 116.304 550.707 114.929C549.552 113.554 548.101 112.446 546.459 111.686C544.816 110.925 543.023 110.531 541.206 110.531H445.02C442.163 110.531 439.394 111.507 437.189 113.291C434.984 115.074 433.481 117.555 432.937 120.307L418.085 195.453Z" fill="#EBBB37"/>
<path d="M426.276 191.911H531.75L544.314 128.713C544.573 127.411 544.535 126.068 544.202 124.782C543.87 123.495 543.252 122.297 542.392 121.273C541.532 120.249 540.451 119.424 539.228 118.857C538.005 118.291 536.669 117.997 535.316 117.997H449.725C447.237 117.997 444.828 118.846 442.909 120.399C440.99 121.951 439.681 124.11 439.208 126.506L426.276 191.911Z" fill="#FFDB7E"/>
<path d="M382.485 201.234H533.789C536.867 201.234 538.65 199.009 539.204 195.835L539.494 194.298H382.485C381.547 194.298 380.648 194.663 379.985 195.314C379.322 195.964 378.949 196.846 378.949 197.766C378.949 198.686 379.322 199.568 379.985 200.219C380.648 200.869 381.547 201.234 382.485 201.234Z" fill="#EBBB37"/>
<path d="M493.757 115.75C494.507 115.75 495.114 115.154 495.114 114.419C495.114 113.684 494.507 113.088 493.757 113.088C493.008 113.088 492.4 113.684 492.4 114.419C492.4 115.154 493.008 115.75 493.757 115.75Z" fill="#FFDB7E"/>
</g>
<g clip-path="url(#clip1_1020_4620)">
<path d="M553.754 200.908H366.134C364.614 200.908 363.156 201.5 362.081 202.554C361.006 203.608 360.402 205.038 360.402 206.529C360.402 208.019 361.006 209.449 362.081 210.503C363.156 211.557 364.614 212.149 366.134 212.149H384.508V331.249C384.51 331.773 384.723 332.275 385.1 332.645C385.478 333.015 385.989 333.224 386.523 333.225H393.956C394.49 333.224 395.001 333.015 395.379 332.645C395.756 332.275 395.969 331.773 395.971 331.249V212.149H523.917V331.249C523.919 331.773 524.131 332.275 524.509 332.645C524.886 333.015 525.398 333.224 525.932 333.225H533.364C533.898 333.224 534.41 333.015 534.787 332.645C535.165 332.275 535.378 331.773 535.379 331.249V212.149H553.754C555.274 212.149 556.732 211.557 557.807 210.503C558.881 209.449 559.485 208.019 559.485 206.529C559.485 205.038 558.881 203.608 557.807 202.554C556.732 201.5 555.274 200.908 553.754 200.908Z" fill="white"/>
<path d="M533.362 334.199H525.93C525.132 334.198 524.368 333.887 523.804 333.334C523.24 332.781 522.923 332.032 522.922 331.25V213.123H396.962V331.25C396.961 332.032 396.643 332.781 396.08 333.334C395.516 333.887 394.751 334.198 393.954 334.199H386.521C385.724 334.198 384.959 333.887 384.395 333.334C383.832 332.781 383.514 332.032 383.513 331.25V213.123H366.131C364.348 213.123 362.638 212.428 361.377 211.192C360.116 209.955 359.407 208.278 359.407 206.529C359.407 204.78 360.116 203.103 361.377 201.866C362.638 200.629 364.348 199.935 366.131 199.935H553.752C555.535 199.935 557.245 200.629 558.507 201.866C559.768 203.103 560.476 204.78 560.476 206.529C560.476 208.278 559.768 209.955 558.507 211.192C557.245 212.428 555.535 213.123 553.752 213.123H536.37V331.25C536.369 332.032 536.052 332.781 535.488 333.334C534.924 333.887 534.159 334.198 533.362 334.199ZM395.969 211.176H523.915C524.178 211.176 524.431 211.278 524.617 211.461C524.803 211.643 524.908 211.891 524.908 212.149V331.25C524.908 331.515 525.016 331.77 525.207 331.958C525.399 332.146 525.659 332.252 525.93 332.252H533.362C533.633 332.252 533.893 332.146 534.084 331.958C534.276 331.77 534.384 331.515 534.384 331.25V212.149C534.384 211.891 534.489 211.643 534.675 211.461C534.861 211.278 535.114 211.176 535.377 211.176H553.752C555.008 211.176 556.214 210.686 557.102 209.815C557.991 208.943 558.49 207.761 558.49 206.529C558.49 205.296 557.991 204.114 557.102 203.243C556.214 202.372 555.008 201.882 553.752 201.882H366.131C364.875 201.882 363.67 202.372 362.781 203.243C361.892 204.114 361.393 205.296 361.393 206.529C361.393 207.761 361.892 208.943 362.781 209.815C363.67 210.686 364.875 211.176 366.131 211.176H384.506C384.77 211.176 385.022 211.278 385.208 211.461C385.395 211.643 385.499 211.891 385.499 212.149V331.25C385.499 331.515 385.607 331.77 385.799 331.958C385.99 332.146 386.25 332.252 386.521 332.252H393.954C394.225 332.251 394.484 332.146 394.676 331.958C394.868 331.77 394.975 331.515 394.976 331.25V212.149C394.976 211.891 395.08 211.643 395.267 211.461C395.453 211.278 395.705 211.176 395.969 211.176Z" fill="#30323F"/>
</g>
<g clip-path="url(#clip2_1020_4620)">
<path d="M491.835 128.663C485.407 125.205 476.161 120.951 470.032 118.466L429.071 105.896C412.164 103.624 394.237 103.85 393.771 110.618C393.321 117.129 405.262 116.342 426.812 120.386C407.106 120.086 392.62 121.263 392.968 127.999C393.316 134.735 413.227 134.92 428.431 135.04C418.803 139.308 405.539 144.643 406.658 149.753C408.269 157.125 419.768 153.031 427.665 151.092C445.159 146.795 448.369 152.08 456.745 159.698L460.957 164.725" fill="white"/>
<path d="M460.958 165.699C460.81 165.699 460.665 165.667 460.532 165.606C460.399 165.544 460.282 165.454 460.189 165.342L456.02 160.366C455.206 159.625 454.445 158.91 453.709 158.219C446.895 151.819 443.141 148.294 427.908 152.035C426.974 152.265 425.998 152.522 424.965 152.795C418.991 154.372 412.219 156.16 408.378 153.86C407.675 153.431 407.072 152.862 406.609 152.189C406.145 151.516 405.832 150.755 405.689 149.956C404.559 144.793 414.073 140.297 423.891 135.97C417.594 135.893 410.639 135.701 404.999 134.965C399.526 134.251 392.221 132.758 391.978 128.047C391.934 127.329 392.047 126.61 392.31 125.939C392.572 125.267 392.977 124.658 393.499 124.152C396.761 120.841 405.172 119.72 415.165 119.441C413.757 119.232 412.403 119.036 411.103 118.851C399.039 117.12 392.394 116.166 392.781 110.55C392.838 109.847 393.046 109.164 393.393 108.546C393.74 107.928 394.217 107.389 394.793 106.966C401.417 101.676 422.809 104.07 429.208 104.929C429.263 104.937 429.317 104.949 429.37 104.965L470.331 117.534C470.36 117.543 470.387 117.553 470.414 117.564C476.19 119.907 485.568 124.177 492.316 127.807C492.547 127.932 492.718 128.141 492.792 128.389C492.865 128.637 492.835 128.903 492.708 129.13C492.582 129.356 492.368 129.524 492.115 129.596C491.862 129.668 491.59 129.639 491.359 129.515C484.691 125.927 475.425 121.706 469.695 119.38L428.857 106.848C412.602 104.673 400.035 105.295 396.05 108.476C395.687 108.732 395.385 109.062 395.163 109.442C394.942 109.822 394.806 110.245 394.766 110.681C394.513 114.345 399.68 115.243 411.392 116.925C415.916 117.574 421.042 118.31 427.002 119.428C427.246 119.474 427.465 119.607 427.613 119.803C427.762 119.999 427.831 120.242 427.805 120.484C427.78 120.727 427.662 120.952 427.476 121.113C427.29 121.275 427.048 121.363 426.799 121.358C414.055 121.164 398.916 121.459 394.93 125.505C394.599 125.82 394.341 126.201 394.174 126.623C394.007 127.045 393.936 127.497 393.964 127.948C394.265 133.794 415.66 133.963 428.442 134.063C428.669 134.065 428.888 134.143 429.063 134.283C429.239 134.424 429.36 134.619 429.407 134.836C429.454 135.053 429.423 135.279 429.321 135.477C429.219 135.676 429.05 135.833 428.844 135.925C428.072 136.267 427.276 136.616 426.467 136.971C418.624 140.414 406.773 145.616 407.633 149.547C407.721 150.087 407.926 150.603 408.233 151.06C408.54 151.517 408.944 151.904 409.416 152.197C412.529 154.06 419.138 152.315 424.45 150.913C425.491 150.638 426.475 150.379 427.426 150.145C443.726 146.142 448.246 150.386 455.087 156.812C455.832 157.512 456.603 158.235 457.424 158.982C457.457 159.013 457.488 159.045 457.516 159.08L461.724 164.108C461.843 164.25 461.918 164.423 461.941 164.606C461.964 164.789 461.934 164.974 461.853 165.141C461.773 165.307 461.646 165.448 461.487 165.547C461.329 165.645 461.145 165.698 460.957 165.698L460.958 165.699Z" fill="#363848"/>
<path d="M460.594 164.293L465.794 170.024C470.391 174.787 476.726 177.574 483.413 177.775C490.101 177.976 496.598 175.576 501.485 171.098C506.345 166.592 509.189 160.384 509.394 153.831C509.6 147.277 507.15 140.91 502.581 136.12C502.581 136.12 496.915 130.843 491.836 128.663" fill="white"/>
<path d="M484.194 178.777C480.611 178.784 477.065 178.07 473.775 176.679C470.485 175.288 467.522 173.249 465.069 170.69L459.851 164.939C459.762 164.844 459.694 164.732 459.65 164.611C459.606 164.489 459.586 164.361 459.593 164.232C459.6 164.103 459.633 163.977 459.69 163.861C459.747 163.745 459.827 163.641 459.925 163.555C460.024 163.47 460.138 163.404 460.263 163.362C460.387 163.32 460.519 163.303 460.65 163.311C460.781 163.32 460.909 163.353 461.027 163.411C461.145 163.468 461.25 163.548 461.336 163.645L466.536 169.376C470.951 173.934 477.029 176.593 483.44 176.772C489.851 176.95 496.072 174.633 500.745 170.327C505.417 166.022 508.159 160.078 508.371 153.796C508.583 147.515 506.247 141.406 501.876 136.807C501.512 136.472 496.149 131.577 491.436 129.554C491.316 129.503 491.208 129.429 491.118 129.337C491.027 129.245 490.956 129.136 490.909 129.017C490.861 128.898 490.838 128.771 490.84 128.643C490.843 128.515 490.871 128.389 490.924 128.271C490.976 128.154 491.051 128.048 491.145 127.959C491.24 127.871 491.351 127.801 491.472 127.755C491.594 127.708 491.723 127.685 491.854 127.688C491.985 127.69 492.113 127.718 492.233 127.769C497.412 129.991 503.028 135.192 503.264 135.412C503.278 135.425 503.291 135.438 503.304 135.451C506.814 139.105 509.156 143.687 510.04 148.63C510.925 153.574 510.313 158.663 508.281 163.27C506.249 167.877 502.885 171.8 498.605 174.556C494.324 177.311 489.314 178.778 484.193 178.776L484.194 178.777Z" fill="#363848"/>
<path d="M342.786 43.6523L426.794 14.5854L463.28 115.863L379.272 144.93L342.786 43.6523Z" fill="white"/>
<path d="M379.273 145.905C379.067 145.905 378.867 145.843 378.699 145.726C378.531 145.61 378.404 145.446 378.336 145.256L341.85 43.9771C341.762 43.7336 341.776 43.4659 341.89 43.2329C342.004 42.9999 342.207 42.8207 342.456 42.7346L426.464 13.6679C426.712 13.5819 426.985 13.5961 427.223 13.7074C427.461 13.8188 427.644 14.0181 427.732 14.2616L464.217 115.54C464.261 115.66 464.28 115.788 464.273 115.916C464.266 116.044 464.233 116.169 464.177 116.284C464.121 116.399 464.042 116.503 463.945 116.588C463.848 116.674 463.734 116.74 463.611 116.782L379.603 145.85C379.497 145.887 379.385 145.905 379.273 145.905ZM344.054 44.2472L379.879 143.689L462.013 115.27L426.188 15.8284L344.054 44.2472Z" fill="#363848"/>
<path d="M380.259 58.6297L378.911 54.8872L388.639 51.5215L389.987 55.2637L380.259 58.6297Z" fill="#44B480"/>
<path d="M386.311 45.0599L376.908 48.3133C376.631 48.4088 376.405 48.6083 376.278 48.8677C376.151 49.1271 376.134 49.4253 376.232 49.6967L381.642 64.7151L385.603 63.3444L381.398 51.6728L387.885 49.4282L386.311 45.0599Z" fill="#44B480"/>
<path d="M392.53 54.3849L391.182 50.6424L400.91 47.2764L402.258 51.0189L392.53 54.3849Z" fill="#44B480"/>
<path d="M398.581 40.8125L389.178 44.0672C389.041 44.1145 388.915 44.1877 388.806 44.2829C388.698 44.378 388.61 44.4931 388.547 44.6215C388.484 44.75 388.448 44.8893 388.44 45.0316C388.432 45.1738 388.453 45.3162 388.501 45.4506L393.912 60.4687L397.873 59.0983L393.668 47.4267L400.155 45.1821L398.581 40.8125Z" fill="#44B480"/>
<path d="M412.791 42.8926L414.098 46.5215L404.305 49.9099L402.998 46.281L412.791 42.8926Z" fill="#44B480"/>
<path d="M412.097 40.9655L410.661 36.9795L404.387 39.1503L401.671 40.0917C401.365 40.1972 401.115 40.4174 400.975 40.704C400.834 40.9906 400.816 41.32 400.924 41.6198L401.953 44.4762L404.692 52.0778L405.678 54.816C405.787 55.1155 406.012 55.3606 406.305 55.4975C406.597 55.6343 406.933 55.6516 407.239 55.5457L409.955 54.6044L416.229 52.4335L414.836 48.5664L408.562 50.7372L405.823 43.1353L412.097 40.9655Z" fill="#44B480"/>
<path d="M420.085 44.7814L422.231 42.126L427.739 46.394L425.593 49.0495L420.085 44.7814Z" fill="#44B480"/>
<path d="M416.15 35.1454C414.94 35.47 412.687 36.2445 412.504 36.4013L418.044 51.78L421.465 50.5962L419.853 46.1224C419.977 46.076 420.071 46.0409 420.095 46.0315C421.513 45.4779 422.658 44.4098 423.293 43.0494C423.928 41.6891 424.003 40.1412 423.503 38.7279C422.445 35.7946 420.148 34.0697 416.15 35.1454ZM419.093 43.3598C419.026 43.3923 418.962 43.4247 418.894 43.4572L416.965 38.1034C417.328 37.9508 417.719 37.8733 418.113 37.8759C418.508 37.8784 418.897 37.9609 419.258 38.1181C419.618 38.2753 419.942 38.5039 420.208 38.7895C420.474 39.0751 420.677 39.4115 420.804 39.7777C421.28 41.0981 420.501 42.6152 419.094 43.3598H419.093Z" fill="#44B480"/>
<path d="M365.727 52.1882C364.083 52.7572 362.648 53.7912 361.603 55.1596C360.558 56.528 359.951 58.1692 359.858 59.8758C359.765 61.5824 360.191 63.2777 361.081 64.7472C361.971 66.2168 363.286 67.3946 364.859 68.1318C366.433 68.869 368.194 69.1325 369.92 68.8889C371.646 68.6452 373.259 67.9055 374.556 66.7631C375.853 65.6208 376.776 64.1272 377.207 62.4711C377.637 60.8151 377.557 59.0711 376.977 57.4596C376.591 56.3895 375.995 55.4044 375.221 54.5604C374.447 53.7164 373.511 53.0301 372.466 52.5406C371.422 52.0511 370.289 51.768 369.133 51.7076C367.976 51.6471 366.819 51.8104 365.727 52.1882ZM370.377 65.0913C369.417 65.4233 368.379 65.4691 367.393 65.2227C366.407 64.9763 365.517 64.4489 364.837 63.7072C364.157 62.9655 363.716 62.0427 363.571 61.0557C363.426 60.0686 363.583 59.0615 364.022 58.1618C364.461 57.2621 365.162 56.5102 366.037 56.0011C366.912 55.492 367.922 55.2487 368.938 55.3018C369.954 55.3549 370.931 55.7022 371.746 56.2996C372.561 56.8971 373.176 57.7179 373.515 58.6583C373.969 59.9192 373.894 61.3054 373.305 62.5118C372.717 63.7182 371.663 64.6461 370.377 65.0913Z" fill="#44B480"/>
<path d="M376.494 84.8166C376.259 84.8169 376.032 84.7358 375.853 84.5877C375.673 84.4396 375.553 84.2341 375.513 84.0074C375.474 83.7808 375.517 83.5477 375.636 83.3494C375.755 83.1511 375.942 83.0005 376.163 82.9242L425.974 65.6885C426.222 65.6024 426.496 65.6166 426.733 65.7279C426.971 65.8393 427.154 66.0386 427.242 66.2822C427.33 66.5257 427.315 66.7935 427.202 67.0265C427.088 67.2596 426.885 67.4389 426.636 67.525L376.825 84.7614C376.719 84.798 376.607 84.8166 376.494 84.8166Z" fill="#363848"/>
<path d="M381.225 97.9455C380.99 97.9458 380.763 97.8648 380.583 97.7167C380.404 97.5686 380.283 97.363 380.244 97.1363C380.204 96.9097 380.248 96.6766 380.366 96.4783C380.485 96.28 380.672 96.1294 380.893 96.0531L430.705 78.8174C430.828 78.7748 430.958 78.7563 431.089 78.7631C431.219 78.7698 431.347 78.8017 431.465 78.8568C431.582 78.912 431.688 78.9893 431.775 79.0844C431.862 79.1795 431.93 79.2905 431.973 79.4111C432.017 79.5317 432.036 79.6595 432.029 79.7872C432.022 79.9149 431.989 80.04 431.933 80.1555C431.877 80.2709 431.798 80.3743 431.701 80.4598C431.604 80.5453 431.491 80.6113 431.367 80.6539L381.556 97.8896C381.45 97.9265 381.338 97.9454 381.225 97.9455Z" fill="#363848"/>
<path d="M385.954 111.072C385.719 111.073 385.492 110.992 385.313 110.844C385.133 110.696 385.013 110.49 384.973 110.263C384.934 110.037 384.977 109.804 385.096 109.605C385.215 109.407 385.402 109.256 385.623 109.18L435.434 91.9443C435.557 91.9017 435.687 91.8833 435.818 91.89C435.948 91.8968 436.076 91.9287 436.193 91.9838C436.311 92.0389 436.417 92.1162 436.504 92.2113C436.591 92.3064 436.659 92.4174 436.702 92.538C436.746 92.6586 436.764 92.7864 436.757 92.9141C436.751 93.0419 436.718 93.167 436.662 93.2824C436.606 93.3978 436.527 93.5012 436.43 93.5868C436.333 93.6723 436.219 93.7383 436.096 93.7809L386.285 111.017C386.179 111.054 386.067 111.072 385.954 111.072Z" fill="#363848"/>
<path d="M472.54 139.413C463.732 137.46 457.442 129.794 448.905 124.207C437.085 116.47 430.256 110.456 430.515 107.184C431.12 99.664 451.997 112.329 470.032 118.466" fill="white"/>
<path d="M472.54 140.387C472.466 140.387 472.392 140.379 472.32 140.363C466.229 139.012 461.389 135.106 456.264 130.972C453.73 128.858 451.09 126.871 448.353 125.017C440.09 119.608 429.148 111.867 429.524 107.109C429.646 105.595 430.435 104.832 431.076 104.457C434.262 102.595 441.54 105.585 453.152 110.618C458.817 113.074 464.676 115.613 470.358 117.547C470.481 117.589 470.595 117.654 470.692 117.739C470.79 117.824 470.869 117.927 470.926 118.043C470.983 118.158 471.016 118.283 471.024 118.41C471.032 118.538 471.013 118.666 470.971 118.787C470.928 118.907 470.861 119.019 470.774 119.114C470.688 119.21 470.583 119.288 470.465 119.343C470.348 119.399 470.22 119.432 470.09 119.439C469.96 119.447 469.829 119.429 469.706 119.387C463.947 117.427 457.784 114.756 452.348 112.399C443.604 108.608 434.559 104.688 432.094 106.13C431.851 106.272 431.564 106.529 431.505 107.261C431.406 108.514 432.957 112.597 449.457 123.397C452.249 125.286 454.943 127.312 457.528 129.467C462.465 133.451 467.128 137.214 472.759 138.462C472.998 138.515 473.208 138.652 473.35 138.847C473.492 139.042 473.556 139.282 473.529 139.52C473.502 139.758 473.386 139.978 473.204 140.138C473.021 140.298 472.785 140.386 472.541 140.386L472.54 140.387Z" fill="#363848"/>
</g>
<g clip-path="url(#clip3_1020_4620)">
<path d="M326.801 85.6367C326.801 85.6367 328.056 62.7486 328.551 57.0185C329.178 50.4143 327.263 47.2741 324.522 47.177C319.833 46.9827 319.172 64.1083 319.073 66.7306C319.139 63.7846 319.404 42.321 313.294 41.9972C306.591 41.6411 309.067 64.8205 309.067 64.8205C309.042 64.8182 309.018 64.8066 309.001 64.7882C308.968 64.2131 308.902 63.6402 308.803 63.0724C307.746 57.6013 305.237 54.1049 301.637 52.0654C298.302 50.1877 294.339 49.5403 289.782 51.1266C289.23 51.3168 288.722 51.612 288.288 51.9951C287.853 52.3783 287.499 52.8419 287.248 53.3592C286.996 53.8766 286.851 54.4376 286.821 55.01C286.792 55.5824 286.877 56.155 287.074 56.6948C287.39 57.5727 287.979 58.3313 288.758 58.8638C288.573 58.8244 288.385 58.8027 288.197 58.7991C287.019 58.7379 285.865 59.136 284.987 59.9064C284.108 60.6768 283.576 61.7568 283.507 62.9105C283.439 64.2707 283.472 65.6341 283.606 66.9896C284.135 71.3276 286.909 75.2448 291.631 78.0613C292.867 78.9284 293.871 80.0765 294.555 81.4072C295.24 82.7378 295.585 84.2114 295.561 85.7015M292.754 59.3494C294.735 58.6696 296.254 58.6048 297.245 59.1552C298.5 59.8674 299.524 61.8746 300.085 64.7234C300.232 65.4424 300.16 66.1879 299.878 66.8671C299.596 67.5463 299.117 68.1293 298.5 68.5435C297.945 68.9185 297.3 69.1455 296.628 69.2023C295.957 69.259 295.281 69.1436 294.669 68.8672C294.074 68.6156 293.559 68.213 293.175 67.7008C292.792 67.1886 292.556 66.5855 292.49 65.9536C292.399 65.0933 292.377 64.2274 292.424 63.3637C292.468 62.611 292.312 61.8598 291.971 61.1842C291.629 60.5086 291.113 59.932 290.475 59.5113C291.235 59.6667 292.025 59.6106 292.754 59.3494Z" fill="white"/>
<path d="M295.561 86.6716H295.556C295.426 86.671 295.297 86.6453 295.177 86.5959C295.057 86.5465 294.949 86.4745 294.857 86.3838C294.765 86.2932 294.693 86.1858 294.644 86.0677C294.595 85.9496 294.57 85.8231 294.57 85.6955C294.589 84.3663 294.282 83.0521 293.674 81.8637C293.066 80.6752 292.176 79.6474 291.079 78.8667C286.193 75.9408 283.192 71.7649 282.625 67.1034C282.484 65.6955 282.449 64.2794 282.52 62.8664C282.583 61.733 283.014 60.649 283.748 59.7716C284.483 58.8942 285.484 58.269 286.605 57.9867C286.42 57.68 286.265 57.3564 286.143 57.0204C285.666 55.6872 285.747 54.2233 286.366 52.9479C286.986 51.6724 288.094 50.6886 289.451 50.2109C293.914 48.657 298.181 48.9976 302.132 51.2223C304.447 52.5373 306.345 54.4556 307.615 56.7643C307.552 51.2984 308.039 44.711 310.488 42.1872C310.846 41.7972 311.289 41.4907 311.784 41.2898C312.279 41.089 312.813 40.999 313.348 41.0263C316.513 41.194 318.52 45.1976 319.484 53.2664C319.496 53.3693 319.508 53.4716 319.52 53.5742C320.16 50.6729 321.069 48.2274 322.36 47.0584C322.648 46.7763 322.993 46.5552 323.372 46.4085C323.751 46.2619 324.157 46.1929 324.564 46.2057C325.165 46.227 325.755 46.3712 326.296 46.6289C326.837 46.8866 327.317 47.2522 327.705 47.7023C329.318 49.501 329.951 52.7526 329.537 57.1072C329.05 62.7489 327.803 85.4589 327.79 85.6878C327.783 85.8151 327.751 85.9399 327.694 86.055C327.638 86.17 327.56 86.2731 327.463 86.3583C327.366 86.4435 327.253 86.5092 327.13 86.5516C327.007 86.594 326.877 86.6123 326.748 86.6054C326.618 86.5985 326.49 86.5667 326.373 86.5116C326.256 86.4565 326.15 86.3793 326.064 86.2844C325.977 86.1894 325.91 86.0787 325.866 85.9584C325.823 85.8381 325.804 85.7106 325.811 85.5832C325.824 85.3543 327.073 62.6145 327.564 56.9352C328.046 51.8613 326.927 49.7765 326.217 48.9846C326.007 48.7316 325.743 48.5258 325.445 48.3812C325.146 48.2366 324.819 48.1566 324.487 48.1465C324.339 48.1445 324.193 48.1738 324.058 48.2323C323.923 48.2908 323.802 48.3771 323.704 48.4854C321.82 50.1915 320.425 57.1962 320.063 66.7655C320.06 66.893 320.03 67.0186 319.977 67.1349C319.924 67.2513 319.847 67.3563 319.753 67.4438C319.658 67.5313 319.547 67.5997 319.425 67.6451C319.303 67.6904 319.174 67.7118 319.044 67.708C318.913 67.7043 318.785 67.6754 318.667 67.6231C318.548 67.5708 318.441 67.4961 318.352 67.4033C318.262 67.3105 318.193 67.2013 318.146 67.082C318.1 66.9627 318.078 66.8357 318.082 66.7082C318.343 55.0511 316.763 43.1526 313.24 42.9661C312.991 42.9528 312.743 42.9964 312.514 43.0934C312.285 43.1905 312.083 43.3383 311.923 43.5252C308.869 46.6732 309.537 59.8909 310.052 64.7182C310.066 64.8535 310.052 64.9904 310.009 65.1198C309.966 65.2493 309.895 65.3684 309.802 65.4696C309.603 65.6654 309.333 65.7756 309.051 65.7761C308.769 65.7765 308.498 65.6671 308.298 65.4718C308.127 65.3031 308.025 65.0785 308.011 64.8409C307.98 64.3012 307.918 63.7638 307.825 63.2309C306.872 58.2972 304.684 54.9125 301.14 52.9038C297.716 50.9753 294.004 50.6846 290.111 52.0391C289.68 52.1851 289.284 52.4135 288.944 52.711C288.605 53.0086 288.329 53.3694 288.133 53.7724C287.938 54.1754 287.825 54.6125 287.803 55.0584C287.781 55.5043 287.85 55.9501 288.005 56.3697C288.252 57.0555 288.712 57.648 289.321 58.0638C289.451 58.152 289.557 58.2691 289.63 58.4056C289.704 58.542 289.744 58.6937 289.746 58.8482C289.865 58.7236 290.014 58.6315 290.18 58.5813C290.346 58.531 290.523 58.5243 290.692 58.5617C291.271 58.6772 291.871 58.6315 292.424 58.4299C294.691 57.653 296.477 57.6112 297.731 58.3076C299.256 59.1729 300.434 61.383 301.055 64.5365C301.224 65.3949 301.148 66.2824 300.836 67.1012C300.523 67.92 299.987 68.6386 299.285 69.1777C298.583 69.7169 297.743 70.0558 296.857 70.1572C295.971 70.2585 295.074 70.1184 294.264 69.7522C293.513 69.428 292.862 68.9153 292.377 68.2658C291.892 67.6163 291.59 66.8529 291.502 66.0526C291.408 65.1474 291.384 64.2365 291.431 63.3277C291.469 62.7384 291.349 62.1495 291.083 61.6199C290.816 61.0904 290.412 60.6387 289.912 60.3102C289.781 60.2223 289.673 60.1047 289.598 59.9675C289.523 59.8302 289.483 59.6773 289.481 59.5216C289.365 59.6429 289.22 59.7334 289.059 59.7844C288.898 59.8354 288.727 59.8452 288.561 59.8129C288.421 59.7879 288.281 59.772 288.14 59.7653C287.686 59.7403 287.232 59.8031 286.804 59.9501C286.375 60.097 285.98 60.3253 285.641 60.6219C285.303 60.9185 285.027 61.2776 284.83 61.6786C284.633 62.0797 284.518 62.5149 284.493 62.9593C284.427 64.269 284.459 65.5817 284.588 66.8869C285.083 70.9394 287.765 74.6173 292.142 77.2283C292.167 77.2432 292.192 77.2587 292.215 77.2758C293.577 78.2344 294.683 79.5016 295.438 80.9695C296.194 82.4374 296.576 84.0624 296.552 85.7062C296.55 85.9628 296.445 86.2083 296.26 86.3892C296.074 86.5701 295.823 86.6716 295.561 86.6716ZM292.661 60.3901C293.219 61.3023 293.482 62.3593 293.413 63.421C293.372 64.2247 293.392 65.0304 293.473 65.8312C293.519 66.2966 293.692 66.7413 293.973 67.1189C294.254 67.4965 294.634 67.7932 295.072 67.9779C295.529 68.1859 296.033 68.2737 296.536 68.2326C297.038 68.1915 297.52 68.0229 297.936 67.7435C298.393 67.4356 298.749 67.0028 298.958 66.4987C299.168 65.9946 299.222 65.4414 299.113 64.9075C298.618 62.3879 297.733 60.552 296.749 59.9936C296.043 59.6015 294.737 59.6961 293.081 60.2639H293.08C292.941 60.3127 292.801 60.3548 292.661 60.3901Z" fill="#30323F"/>
<path d="M95.7044 266.377C91.9067 278.031 75.0318 291.466 54.8546 286.772C45.9054 284.7 37.2533 290.884 34.4463 299.527L81.0421 317.948L112.766 316.503L107.692 328.469L120.406 333.52L140.715 284.312L95.7044 266.377Z" fill="white"/>
<path d="M120.406 334.491C120.279 334.491 120.152 334.467 120.034 334.42L107.32 329.37C107.199 329.322 107.089 329.25 106.996 329.16C106.903 329.07 106.829 328.963 106.778 328.844C106.728 328.726 106.702 328.599 106.702 328.471C106.702 328.343 106.727 328.216 106.778 328.097L111.252 317.543L81.0885 318.917C80.9462 318.923 80.8043 318.899 80.6721 318.847L34.0763 300.427C33.8446 300.335 33.6567 300.161 33.5503 299.94C33.4439 299.718 33.4269 299.465 33.5027 299.232C36.6194 289.634 46.0984 283.746 55.0827 285.826C74.9799 290.455 91.1738 277.089 94.7611 266.08C94.8027 265.952 94.8706 265.835 94.9608 265.734C95.0509 265.634 95.1613 265.553 95.285 265.496C95.4086 265.439 95.5429 265.408 95.6794 265.405C95.8159 265.401 95.9516 265.425 96.0781 265.476L141.089 283.411C141.332 283.508 141.526 283.695 141.628 283.932C141.73 284.169 141.732 284.436 141.634 284.675L121.325 333.883C121.251 334.062 121.124 334.216 120.96 334.324C120.796 334.432 120.604 334.49 120.406 334.49V334.491ZM108.991 327.938L119.86 332.255L139.428 284.847L96.2993 267.661C91.8689 279.164 75.0836 292.476 54.6263 287.717C46.9101 285.93 38.757 290.841 35.6892 298.971L81.2127 316.968L112.721 315.533C112.888 315.525 113.054 315.559 113.203 315.631C113.353 315.704 113.482 315.812 113.578 315.946C113.674 316.08 113.733 316.235 113.752 316.398C113.77 316.561 113.746 316.725 113.681 316.876L108.991 327.938Z" fill="#30323F"/>
<path d="M249.856 333.551L249.79 280.459L298.367 280.297C297.443 292.502 300.514 311.149 321.021 314.192C330.103 315.552 335.783 324.454 335.089 333.519L283.375 333.551L263.351 322.33L263.594 333.551H249.856Z" fill="white"/>
<path d="M283.374 334.523C283.202 334.523 283.032 334.479 282.882 334.395L264.378 324.025L264.584 333.531C264.586 333.661 264.563 333.789 264.514 333.909C264.466 334.03 264.393 334.139 264.301 334.231C264.209 334.324 264.098 334.397 263.977 334.447C263.855 334.497 263.725 334.523 263.593 334.523H249.856C249.593 334.523 249.341 334.421 249.155 334.239C248.969 334.056 248.865 333.809 248.865 333.552L248.799 280.459C248.799 280.202 248.903 279.956 249.088 279.774C249.273 279.592 249.524 279.489 249.786 279.488L298.363 279.326H298.367C298.503 279.326 298.638 279.354 298.763 279.407C298.888 279.461 299 279.539 299.093 279.637C299.185 279.734 299.257 279.85 299.302 279.976C299.347 280.102 299.365 280.236 299.355 280.369C298.687 289.178 299.477 310.013 321.169 313.233C330.298 314.599 336.845 323.542 336.077 333.592C336.058 333.837 335.946 334.065 335.763 334.231C335.58 334.398 335.339 334.491 335.089 334.491L283.375 334.523L283.374 334.523ZM250.846 332.581H262.583L262.361 322.351C262.358 322.179 262.401 322.009 262.486 321.859C262.571 321.708 262.695 321.583 262.846 321.495C262.997 321.407 263.168 321.36 263.344 321.359C263.519 321.357 263.692 321.401 263.844 321.487L283.638 332.58L334.149 332.548C334.405 323.875 328.713 316.325 320.872 315.151C311.408 313.747 304.642 309.019 300.765 301.101C297.294 294.011 297.055 286 297.312 281.272L250.782 281.428L250.846 332.581Z" fill="#30323F"/>
<path d="M155.044 150.332C153.56 158.799 147.893 193.822 153.989 194.021L187.067 141.686L155.044 150.332Z" fill="white"/>
<path d="M153.99 194.992H153.957C153.576 194.976 153.203 194.877 152.866 194.703C152.528 194.529 152.234 194.284 152.005 193.985C151.303 193.14 149.167 190.57 150.902 172.872C151.856 163.135 153.567 153.032 154.068 150.167C154.1 149.986 154.184 149.816 154.31 149.68C154.437 149.543 154.6 149.444 154.781 149.395L186.805 140.75C186.997 140.698 187.201 140.704 187.389 140.767C187.577 140.83 187.742 140.948 187.861 141.104C187.981 141.26 188.049 141.448 188.058 141.643C188.067 141.838 188.015 142.031 187.91 142.197L154.832 194.532C154.743 194.673 154.619 194.789 154.472 194.869C154.325 194.95 154.159 194.992 153.99 194.992ZM155.915 151.103C152.72 169.538 150.763 189.417 153.541 192.757C153.557 192.777 153.574 192.795 153.589 192.812L184.895 143.281L155.915 151.103Z" fill="#30323F"/>
<path d="M247.571 208.748L248.313 208.104L258.352 219.208L257.61 219.852L247.571 208.748Z" fill="#2B292D"/>
<path d="M299.458 177.156L256.503 122.865L198.428 115.991L188.234 129.782C188.366 129.928 190.835 138.25 190.896 139.762C190.935 140.716 177.461 144.396 177.423 144.406L172.975 150.421C173 150.488 173.019 150.556 173.034 150.626C173.444 152.806 171.864 155.676 170.594 157.022C165.694 163.622 163.699 172.225 163.649 172.516C163.171 175.321 161.782 179.988 158.023 178.422C155.6 183.961 151.34 188.534 145.933 191.4C142.133 193.421 138.833 196.238 136.27 199.651C133.707 203.065 131.944 206.99 131.106 211.148C130.359 214.939 128.767 218.521 126.443 221.638C124.12 224.755 121.122 227.331 117.665 229.18C113.878 231.143 110.584 233.907 108.023 237.273L107.857 237.144L88.6709 262.622L138.932 293.733L154.684 272.82C155.147 272.269 155.543 271.719 155.972 271.104C156.937 269.721 157.777 268.259 158.482 266.733C159.459 264.633 160.18 262.427 160.629 260.161C162.148 252.457 167.266 245.982 174.267 242.227C179.885 239.231 184.359 234.527 187.014 228.824C187.991 226.724 188.712 224.518 189.161 222.252C190.68 214.547 195.798 208.072 202.799 204.317C206.915 202.119 210.437 198.989 213.069 195.188L213.135 195.253L224.594 180.013L247.942 208.428V284.053H307.384L307.417 197C307.419 189.637 304.575 182.546 299.458 177.156Z" fill="#FFD35F"/>
<path d="M161.222 258.478C161.193 258.478 161.164 258.477 161.135 258.474C160.873 258.452 160.631 258.328 160.462 258.131C160.294 257.934 160.211 257.679 160.234 257.422L161.687 241.106C161.713 240.852 161.839 240.617 162.04 240.454C162.241 240.29 162.499 240.211 162.759 240.233C163.019 240.255 163.26 240.377 163.429 240.572C163.597 240.767 163.681 241.02 163.661 241.275L162.208 257.591C162.187 257.833 162.073 258.058 161.891 258.222C161.709 258.387 161.47 258.478 161.222 258.478Z" fill="#30323F"/>
<path d="M128.001 229.634C127.943 229.634 127.885 229.629 127.828 229.619C127.569 229.574 127.339 229.43 127.188 229.219C127.037 229.009 126.978 228.748 127.024 228.494L129.765 213.246C129.811 212.993 129.957 212.767 130.172 212.62C130.387 212.472 130.653 212.414 130.912 212.459C131.171 212.504 131.401 212.647 131.551 212.858C131.702 213.069 131.761 213.33 131.716 213.583L128.975 228.831C128.935 229.056 128.815 229.259 128.637 229.406C128.459 229.553 128.233 229.634 128.001 229.634Z" fill="#30323F"/>
<path d="M190.018 219.759C189.961 219.759 189.905 219.754 189.849 219.745C189.59 219.701 189.359 219.558 189.208 219.348C189.056 219.137 188.996 218.877 189.041 218.623L192.046 201.53C192.094 201.279 192.241 201.058 192.455 200.912C192.668 200.767 192.931 200.71 193.187 200.753C193.444 200.797 193.672 200.937 193.824 201.144C193.975 201.351 194.038 201.608 193.998 201.86L190.993 218.953C190.953 219.178 190.834 219.383 190.656 219.53C190.477 219.677 190.251 219.759 190.018 219.759Z" fill="#30323F"/>
<path d="M224.925 180.458C224.741 180.458 224.562 180.408 224.406 180.314C224.25 180.22 224.123 180.085 224.041 179.924C223.958 179.764 223.923 179.584 223.938 179.405C223.953 179.226 224.019 179.055 224.128 178.91L231.294 169.393C231.45 169.185 231.684 169.047 231.944 169.009C232.203 168.971 232.468 169.035 232.68 169.188C232.891 169.341 233.032 169.57 233.071 169.825C233.11 170.079 233.044 170.339 232.888 170.546L225.722 180.064C225.63 180.186 225.51 180.286 225.371 180.354C225.233 180.423 225.08 180.458 224.925 180.458Z" fill="#30323F"/>
<path d="M329.067 309.81C323.073 309.81 307.533 307.597 305.585 307.316C305.38 307.286 305.19 307.194 305.041 307.053C304.892 306.911 304.792 306.728 304.755 306.528C304.718 306.328 304.746 306.122 304.835 305.938C304.924 305.755 305.069 305.603 305.25 305.505C307.179 304.46 324.203 295.279 327.992 294.606C329.006 294.42 330.047 294.433 331.056 294.643C332.065 294.853 333.022 295.257 333.872 295.83C334.721 296.404 335.446 297.137 336.006 297.987C336.565 298.836 336.948 299.786 337.132 300.781C337.316 301.776 337.297 302.797 337.077 303.785C336.857 304.773 336.439 305.709 335.849 306.538C335.259 307.368 334.507 308.075 333.637 308.618C332.767 309.162 331.796 309.531 330.78 309.706C330.213 309.787 329.64 309.822 329.067 309.81ZM308.82 305.806C315.854 306.762 327.923 308.238 330.427 307.794C331.186 307.665 331.912 307.389 332.563 306.983C333.213 306.578 333.775 306.05 334.216 305.43C334.658 304.811 334.97 304.112 335.135 303.373C335.299 302.635 335.313 301.872 335.176 301.128C335.039 300.385 334.753 299.675 334.334 299.04C333.916 298.405 333.374 297.858 332.739 297.429C332.104 297.001 331.389 296.7 330.635 296.543C329.88 296.387 329.102 296.378 328.345 296.518C325.818 296.966 315.057 302.494 308.82 305.806Z" fill="#30323F"/>
<path d="M305.73 307.325C305.568 307.325 305.409 307.286 305.266 307.212C305.123 307.137 305.001 307.03 304.91 306.898C304.819 306.767 304.762 306.616 304.745 306.458C304.728 306.3 304.75 306.141 304.81 305.994C305.626 303.986 312.859 286.293 315.364 283.445C316.37 282.29 317.704 281.454 319.195 281.043C320.687 280.632 322.269 280.664 323.742 281.136C325.215 281.607 326.512 282.497 327.468 283.692C328.424 284.887 328.997 286.334 329.114 287.848C329.196 288.846 329.075 289.85 328.757 290.802C328.44 291.754 327.933 292.634 327.265 293.392C324.792 296.234 308.132 306.072 306.241 307.185C306.087 307.276 305.91 307.325 305.73 307.325ZM321.332 282.71C320.484 282.709 319.646 282.887 318.875 283.233C318.104 283.579 317.418 284.084 316.865 284.714C315.198 286.609 310.447 297.571 307.765 304.008C313.823 300.379 324.111 294.025 325.757 292.132L325.76 292.127C326.258 291.563 326.636 290.907 326.873 290.198C327.109 289.489 327.2 288.741 327.138 287.998C327.03 286.561 326.372 285.216 325.295 284.235C324.218 283.254 322.802 282.709 321.332 282.71Z" fill="#30323F"/>
<path d="M255.845 123.019L283.761 152.888C288.906 156.786 295.224 158.903 301.726 158.909C306.28 158.895 310.771 157.877 314.869 155.931C319.836 153.54 324.018 149.83 326.938 145.222C329.857 140.614 331.397 135.294 331.381 129.87V86.0039H291.753V110.025C291.753 110.025 267.403 86.4371 258.817 80.2861C252.826 75.9937 246.377 73.4647 243.676 72.1199L232.399 68.6317L226.433 67.733C215.519 66.0884 205.893 65.9324 193.509 67.8845C187.142 68.8881 166.595 71.7596 164.053 71.981C160.19 72.3467 156.453 73.5272 153.099 75.4415C149.745 77.3558 146.854 79.9587 144.622 83.0715C142.391 86.1844 140.873 89.7335 140.172 93.4755C139.471 97.2176 139.604 101.064 140.562 104.751C144.563 120.182 148.352 135.64 153.119 150.978L191.393 140.78L182.84 110.122L203.006 107.48C202.331 108.776 200.034 114.926 199.451 116.403L255.59 122.974" fill="white"/>
<path d="M301.725 159.88C295.002 159.888 288.468 157.699 283.157 153.658C283.111 153.624 283.069 153.585 283.03 153.544L255.347 123.924L199.335 117.367C199.185 117.35 199.041 117.299 198.914 117.218C198.788 117.138 198.681 117.03 198.603 116.903C198.526 116.777 198.478 116.634 198.465 116.486C198.452 116.339 198.474 116.191 198.528 116.053C198.667 115.7 198.905 115.081 199.194 114.325C199.851 112.608 200.74 110.285 201.405 108.67L184.096 110.936L192.352 140.522C192.386 140.645 192.396 140.774 192.379 140.901C192.363 141.027 192.321 141.15 192.257 141.26C192.192 141.371 192.106 141.468 192.003 141.547C191.9 141.625 191.782 141.682 191.656 141.716L153.382 151.913C153.134 151.98 152.869 151.949 152.643 151.827C152.418 151.704 152.25 151.501 152.175 151.259C148.249 138.627 144.933 125.712 141.726 113.222C141.022 110.478 140.315 107.733 139.605 104.989C138.612 101.166 138.474 97.1781 139.201 93.2983C139.928 89.4186 141.502 85.7388 143.815 82.5115C146.129 79.2841 149.127 76.5855 152.604 74.6008C156.082 72.6161 159.956 71.3923 163.961 71.0132C166.545 70.7866 187.238 67.8882 193.354 66.9241C205.24 65.051 214.868 65.0063 226.585 66.7716L232.551 67.6703C232.601 67.6775 232.65 67.6883 232.698 67.7027L243.975 71.1906C244.027 71.2068 244.077 71.2271 244.126 71.2511C244.681 71.5273 245.416 71.863 246.267 72.2521C249.584 73.7669 254.598 76.0567 259.403 79.4992C266.734 84.7506 285.062 102.225 290.764 107.705V86.0037C290.764 85.7462 290.868 85.4991 291.054 85.317C291.24 85.1349 291.492 85.0325 291.754 85.0325H331.382C331.645 85.0325 331.897 85.1349 332.083 85.317C332.269 85.4991 332.373 85.7462 332.373 86.0037V129.87C332.388 135.475 330.797 140.972 327.78 145.733C324.763 150.495 320.442 154.33 315.309 156.8C311.072 158.806 306.431 159.859 301.725 159.88ZM284.432 152.169C289.386 155.915 295.468 157.945 301.725 157.938C306.129 157.918 310.473 156.933 314.439 155.057C319.237 152.745 323.277 149.158 326.097 144.705C328.917 140.252 330.404 135.112 330.389 129.87V86.9749H292.743V110.025C292.743 110.216 292.685 110.404 292.577 110.563C292.468 110.723 292.314 110.847 292.134 110.921C291.953 110.995 291.755 111.015 291.563 110.978C291.371 110.942 291.195 110.85 291.056 110.716C290.813 110.481 266.661 87.1083 258.23 81.07C253.582 77.7398 248.674 75.4982 245.427 74.0152C244.595 73.6354 243.872 73.3052 243.299 73.022L232.17 69.58L226.279 68.6926C214.781 66.9603 205.331 67.004 193.664 68.8429C187.528 69.8105 166.74 72.7215 164.139 72.9485C160.419 73.3016 156.821 74.4394 153.591 76.2837C150.362 78.128 147.577 80.6352 145.429 83.6334C143.28 86.6317 141.819 90.0499 141.144 93.6538C140.47 97.2577 140.598 100.962 141.521 104.513C142.233 107.259 142.941 110.005 143.643 112.751C146.768 124.92 149.996 137.494 153.787 149.794L190.175 140.1L181.883 110.381C181.846 110.247 181.839 110.107 181.861 109.97C181.884 109.833 181.936 109.703 182.014 109.588C182.092 109.472 182.195 109.374 182.314 109.301C182.434 109.228 182.569 109.18 182.709 109.162L202.875 106.52C203.054 106.496 203.236 106.521 203.402 106.592C203.568 106.663 203.71 106.777 203.815 106.921C203.919 107.066 203.981 107.236 203.994 107.412C204.007 107.589 203.971 107.766 203.889 107.924C203.401 108.861 201.928 112.71 201.049 115.01C200.971 115.213 200.897 115.407 200.827 115.588L255.709 122.013C255.771 122.02 255.833 122.033 255.893 122.052C256.154 122.064 256.399 122.177 256.575 122.366L284.432 152.169Z" fill="#30323F"/>
<path d="M311.973 80.035C311.784 80.035 311.598 79.9819 311.439 79.8819C311.279 79.7819 311.152 79.6392 311.073 79.4707C307.042 70.9157 300.026 70.3203 297.72 70.1245C297.458 70.1022 297.216 69.979 297.047 69.7818C296.878 69.5846 296.795 69.3296 296.818 69.073C296.841 68.8163 296.967 68.579 297.168 68.4133C297.369 68.2476 297.629 68.1669 297.891 68.1892C300.48 68.4093 308.359 69.0778 312.872 78.6562C312.942 78.8041 312.972 78.9669 312.961 79.1296C312.95 79.2922 312.897 79.4494 312.807 79.5868C312.718 79.7241 312.594 79.8372 312.449 79.9155C312.303 79.9938 312.139 80.0349 311.973 80.035Z" fill="#30323F"/>
<path d="M92.2408 305.526C92.1018 305.526 91.9628 305.522 91.8221 305.515C89.7518 305.401 87.8123 304.486 86.4291 302.971C85.046 301.457 84.3321 299.466 84.4441 297.437C84.6452 293.694 91.8198 275.987 92.6371 273.98C92.714 273.792 92.8493 273.631 93.0241 273.522C93.1988 273.412 93.4042 273.36 93.6112 273.371C93.8183 273.382 94.0165 273.456 94.1781 273.584C94.3397 273.711 94.4564 273.885 94.5118 274.081C95.101 276.164 100.262 294.542 100.061 298.283C99.9488 300.241 99.0757 302.083 97.6213 303.43C96.1669 304.777 94.2416 305.527 92.2408 305.526ZM86.4254 297.538C86.3802 298.29 86.4867 299.043 86.7388 299.754C86.9909 300.466 87.3837 301.121 87.8947 301.684C88.4057 302.246 89.0249 302.704 89.7167 303.031C90.4085 303.358 91.1594 303.548 91.9264 303.591C92.6933 303.633 93.4613 303.527 94.1862 303.278C94.9111 303.028 95.5787 302.641 96.1509 302.139C96.723 301.637 97.1884 301.028 97.5203 300.349C97.8522 299.67 98.0442 298.933 98.0853 298.181C98.2194 295.686 95.2285 284.137 93.3877 277.417C90.8119 283.896 86.5592 295.045 86.4254 297.538Z" fill="#30323F"/>
<path d="M107.788 300.964C107.384 300.964 106.981 300.934 106.582 300.874C105.568 300.725 104.595 300.38 103.718 299.858C102.842 299.336 102.08 298.648 101.477 297.835C99.1988 294.806 93.2814 276.663 92.614 274.602C92.5511 274.408 92.5519 274.2 92.6161 274.006C92.6804 273.813 92.8049 273.644 92.9721 273.524C93.1394 273.404 93.3409 273.338 93.5483 273.336C93.7557 273.334 93.9585 273.396 94.1281 273.513C95.9295 274.755 111.796 285.733 114.07 288.752C114.925 289.893 115.44 291.244 115.56 292.655C115.68 294.066 115.399 295.482 114.749 296.747C114.098 298.011 113.104 299.074 111.875 299.818C110.647 300.563 109.232 300.959 107.788 300.964ZM95.417 276.792C97.6216 283.404 101.556 294.671 103.073 296.683L103.077 296.688C103.53 297.294 104.101 297.806 104.756 298.195C105.412 298.585 106.139 298.843 106.897 298.956C107.654 299.069 108.427 299.034 109.171 298.853C109.915 298.673 110.615 298.35 111.231 297.904C111.85 297.458 112.374 296.898 112.772 296.254C113.169 295.61 113.433 294.895 113.549 294.151C113.666 293.409 113.632 292.652 113.448 291.923C113.264 291.194 112.934 290.508 112.476 289.906C110.958 287.892 101.184 280.837 95.417 276.792Z" fill="#30323F"/>
<path d="M255.504 123.836C255.487 123.836 255.471 123.836 255.453 123.836C255.323 123.83 255.195 123.798 255.078 123.743C254.96 123.688 254.855 123.611 254.768 123.517C254.681 123.422 254.613 123.311 254.57 123.191C254.526 123.071 254.507 122.943 254.514 122.816C254.667 119.897 254.85 114.431 255.042 108.647C255.167 104.911 255.296 101.047 255.426 97.6233C255.431 97.4957 255.461 97.3704 255.515 97.2544C255.57 97.1383 255.647 97.0339 255.742 96.9471C255.837 96.8603 255.949 96.7927 256.071 96.7483C256.193 96.7039 256.323 96.6834 256.453 96.6882C256.583 96.6929 256.711 96.7227 256.83 96.7759C256.948 96.8291 257.054 96.9046 257.143 96.9982C257.232 97.0917 257.301 97.2014 257.346 97.3211C257.391 97.4407 257.412 97.5679 257.407 97.6955C257.278 101.115 257.149 104.976 257.024 108.71C256.83 114.505 256.648 119.979 256.493 122.916C256.48 123.164 256.37 123.398 256.186 123.569C256.002 123.741 255.758 123.836 255.504 123.836Z" fill="#30323F"/>
<path d="M285.358 115.257C285.148 115.257 284.943 115.192 284.773 115.07C284.603 114.949 284.477 114.778 284.413 114.582C284.349 114.386 284.351 114.175 284.417 113.979C284.483 113.784 284.611 113.614 284.782 113.495L291.09 109.092C291.196 109.015 291.316 108.959 291.444 108.928C291.572 108.897 291.705 108.891 291.835 108.911C291.966 108.931 292.091 108.977 292.203 109.045C292.315 109.113 292.412 109.202 292.489 109.307C292.565 109.413 292.619 109.532 292.648 109.658C292.677 109.784 292.68 109.915 292.657 110.042C292.634 110.169 292.585 110.291 292.513 110.399C292.441 110.508 292.348 110.601 292.239 110.674L285.932 115.076C285.764 115.194 285.564 115.257 285.358 115.257Z" fill="#30323F"/>
<path d="M202.919 108.664C202.756 108.664 202.596 108.624 202.453 108.549C202.309 108.474 202.187 108.365 202.096 108.233C202.006 108.1 201.95 107.948 201.934 107.789C201.917 107.63 201.941 107.47 202.003 107.323L204.315 101.819C204.365 101.701 204.437 101.594 204.529 101.504C204.621 101.413 204.73 101.341 204.85 101.292C204.97 101.243 205.099 101.218 205.229 101.218C205.359 101.218 205.488 101.242 205.608 101.291C205.729 101.34 205.838 101.411 205.93 101.501C206.022 101.591 206.096 101.698 206.146 101.816C206.196 101.933 206.222 102.06 206.222 102.187C206.222 102.315 206.197 102.441 206.147 102.559L203.836 108.062C203.761 108.24 203.634 108.393 203.471 108.5C203.307 108.607 203.116 108.664 202.919 108.664Z" fill="#30323F"/>
<path d="M182.721 110.952C182.496 110.952 182.277 110.877 182.102 110.738C181.926 110.6 181.804 110.406 181.755 110.191L180.533 104.784C180.476 104.533 180.524 104.269 180.665 104.052C180.806 103.835 181.029 103.681 181.286 103.626C181.542 103.57 181.811 103.616 182.033 103.755C182.254 103.893 182.411 104.112 182.468 104.363L183.69 109.77C183.721 109.912 183.72 110.059 183.686 110.2C183.652 110.342 183.586 110.474 183.494 110.587C183.401 110.701 183.283 110.792 183.15 110.855C183.016 110.918 182.87 110.951 182.721 110.951V110.952Z" fill="#30323F"/>
<path d="M159.536 180.064C159.434 180.064 159.346 180.06 159.272 180.052C157.364 179.881 155.796 178.106 155.774 176.097C155.774 173.078 156.798 160.339 157.334 155.996C157.348 155.868 157.388 155.745 157.452 155.633C157.515 155.521 157.601 155.422 157.704 155.342C157.806 155.262 157.924 155.204 158.05 155.169C158.176 155.134 158.308 155.124 158.438 155.14C158.568 155.155 158.693 155.196 158.807 155.259C158.921 155.322 159.021 155.407 159.101 155.508C159.181 155.61 159.24 155.726 159.275 155.85C159.309 155.974 159.318 156.103 159.301 156.23C158.769 160.532 157.756 173.126 157.756 176.087C157.766 177.084 158.559 178.038 159.453 178.118C160.451 178.208 161.757 177.103 162.431 173.732C164.487 163.282 167.273 159.822 169.512 157.041C170.993 155.202 172.162 153.749 172.695 150.55C172.738 150.296 172.881 150.069 173.094 149.918C173.308 149.768 173.573 149.707 173.833 149.748C174.092 149.79 174.324 149.93 174.477 150.139C174.631 150.349 174.693 150.609 174.651 150.863C174.035 154.558 172.66 156.266 171.067 158.244C168.962 160.859 166.341 164.115 164.376 174.102C163.303 179.463 160.662 180.064 159.536 180.064Z" fill="#30323F"/>
<path d="M233.389 55.3777L227.117 66.0554C226.335 67.3851 225.908 68.887 225.876 70.4217C225.844 71.9564 226.208 73.4742 226.934 74.8342L227.305 75.5205C228.073 76.9462 229.215 78.1459 230.612 78.9969C232.009 79.8478 233.612 80.3193 235.257 80.3631C236.901 80.4068 238.528 80.0213 239.97 79.246C241.413 78.4707 242.619 77.3334 243.465 75.9507L247.669 69.107C251.027 69.1767 254.298 68.0511 256.875 65.9385C259.451 63.826 261.16 60.8697 261.685 57.617C261.86 56.5043 261.898 55.375 261.798 54.2534C261.528 51.4296 260.37 48.758 258.483 46.6084C258.911 45.603 259.216 44.5509 259.389 43.4746C259.565 41.9004 259.565 40.3122 259.389 38.738L243.886 36.8633L239.89 41.7497L235.495 41.5895C229.731 41.3797 226.568 48.0911 230.468 52.2582L233.389 55.3777Z" fill="white"/>
<path d="M235.529 81.3416C234.512 81.3407 233.5 81.1924 232.527 80.9016C231.228 80.5191 230.019 79.8865 228.972 79.0407C227.925 78.195 227.06 77.1531 226.428 75.976L226.058 75.2897C225.252 73.7853 224.847 72.1055 224.882 70.4066C224.917 68.7076 225.389 67.045 226.256 65.5734L232.167 55.5098L229.739 52.9154C228.74 51.8486 228.086 50.516 227.858 49.0854C227.63 47.6549 227.839 46.1902 228.459 44.8758C229.078 43.5614 230.08 42.456 231.339 41.6987C232.598 40.9414 234.057 40.566 235.533 40.6199L239.43 40.7617L243.114 36.2566C243.22 36.1279 243.358 36.0277 243.514 35.9654C243.67 35.9031 243.84 35.8808 244.008 35.9005L259.511 37.7753C259.732 37.802 259.937 37.9008 260.094 38.0557C260.25 38.2106 260.349 38.4126 260.374 38.6293C260.559 40.2904 260.557 41.9664 260.368 43.6271C260.214 44.5843 259.962 45.5241 259.618 46.4326C261.42 48.6521 262.521 51.3398 262.785 54.1647C262.891 55.3667 262.85 56.5769 262.663 57.7695C262.108 61.1538 260.36 64.2399 257.722 66.4897C255.084 68.7395 251.724 70.0103 248.228 70.0804L244.314 76.4525C243.362 78.0038 242.002 79.2758 240.377 80.1357C238.888 80.926 237.222 81.3404 235.529 81.3416ZM235.241 42.5581C234.174 42.5611 233.131 42.868 232.238 43.4417C231.346 44.0153 230.643 44.8309 230.214 45.7891C229.786 46.7474 229.651 47.807 229.826 48.8391C230.001 49.8711 230.478 50.8312 231.199 51.6023L234.118 54.7208C234.261 54.873 234.35 55.0657 234.373 55.271C234.396 55.4762 234.352 55.6834 234.247 55.8623L227.976 66.541C227.275 67.7287 226.893 69.0708 226.864 70.4423C226.835 71.8138 227.161 73.1702 227.81 74.3851L228.179 75.0669C228.691 76.0143 229.389 76.8531 230.233 77.5352C231.076 78.2172 232.049 78.729 233.096 79.0411C234.142 79.3532 235.241 79.4595 236.329 79.3538C237.417 79.2481 238.473 78.9326 239.437 78.4254C240.749 77.7305 241.847 76.7029 242.616 75.4499L246.819 68.6065C246.907 68.4585 247.035 68.3368 247.188 68.2541C247.342 68.1714 247.515 68.1309 247.69 68.1367C250.807 68.1944 253.84 67.1465 256.231 65.1859C258.623 63.2253 260.211 60.484 260.705 57.4664C260.869 56.4304 260.904 55.3787 260.81 54.3343C260.562 51.7133 259.486 49.2336 257.73 47.2419C257.61 47.1053 257.532 46.9388 257.503 46.761C257.474 46.5831 257.497 46.4009 257.567 46.2348C257.965 45.3007 258.248 44.3235 258.41 43.3237C258.55 42.0893 258.571 40.8447 258.473 39.6063L244.313 37.8941L240.664 42.358C240.567 42.4759 240.443 42.5701 240.302 42.6331C240.162 42.6961 240.008 42.7263 239.854 42.7213L235.459 42.561C235.387 42.5581 235.314 42.5568 235.241 42.5568V42.5581Z" fill="#30323F"/>
<path d="M260.641 39.5085C260.267 36.4493 258.914 33.5848 256.778 31.3252C254.641 29.0657 251.83 27.5271 248.746 26.93C245.663 26.3329 242.466 26.7078 239.614 28.0011C236.761 29.2944 234.399 31.4397 232.867 34.1296C232.675 34.4438 232.503 34.7691 232.352 35.1037C231.775 36.3287 231.374 37.6257 231.159 38.9581C231.09 39.3874 231.043 39.8176 231.014 40.2479C231.036 40.2505 231.057 40.2479 231.08 40.2527C232.571 40.4865 234.139 40.389 235.55 40.9973C236.744 41.5114 237.69 42.4946 238.492 43.4778C239.894 45.1962 241.251 47.7236 240.382 49.9159C240.558 49.8992 240.723 49.8254 240.852 49.7062C240.98 49.587 241.065 49.4292 241.092 49.2577L242.264 41.9789C242.444 40.8665 243.067 39.8696 243.996 39.207C244.926 38.5445 246.085 38.2703 247.22 38.4447L259.718 40.379C259.841 40.3978 259.966 40.3887 260.084 40.3522C260.202 40.3157 260.31 40.253 260.4 40.1688C260.489 40.0846 260.557 39.9813 260.599 39.867C260.641 39.7527 260.655 39.6304 260.641 39.5098V39.5085Z" fill="#FFD35F"/>
<path d="M247.312 47.8697C248.114 47.8697 248.765 47.2321 248.765 46.4456C248.765 45.6591 248.114 45.0215 247.312 45.0215C246.51 45.0215 245.859 45.6591 245.859 46.4456C245.859 47.2321 246.51 47.8697 247.312 47.8697Z" fill="#30323F"/>
<path d="M257.21 48.3101C258.012 48.3101 258.662 47.6725 258.662 46.886C258.662 46.0995 258.012 45.4619 257.21 45.4619C256.407 45.4619 255.757 46.0995 255.757 46.886C255.757 47.6725 256.407 48.3101 257.21 48.3101Z" fill="#30323F"/>
<path d="M247.882 70.0841H247.876C247.119 70.0795 246.363 70.0189 245.615 69.9028C242.543 69.4402 239.699 68.0358 237.491 65.891C237.395 65.802 237.318 65.6952 237.265 65.5767C237.212 65.4582 237.184 65.3305 237.182 65.2011C237.18 65.0717 237.204 64.9433 237.253 64.8232C237.303 64.7032 237.376 64.594 237.469 64.5021C237.562 64.4103 237.673 64.3375 237.795 64.2882C237.917 64.2389 238.048 64.2139 238.18 64.2149C238.312 64.2158 238.442 64.2426 238.563 64.2937C238.685 64.3447 238.794 64.4191 238.886 64.5123C240.799 66.3686 243.262 67.5838 245.922 67.984C246.571 68.0851 247.227 68.1378 247.884 68.1417C248.146 68.1422 248.398 68.2451 248.584 68.4276C248.769 68.6101 248.873 68.8574 248.872 69.115C248.872 69.3725 248.767 69.6194 248.581 69.8011C248.394 69.9828 248.142 70.0846 247.879 70.0841H247.882Z" fill="#30323F"/>
<path d="M254.958 52.6984C254.925 52.6984 254.895 52.6984 254.863 52.6942L251.038 52.3309C250.908 52.3186 250.783 52.2814 250.668 52.2215C250.553 52.1615 250.451 52.08 250.368 51.9815C250.286 51.883 250.224 51.7695 250.186 51.6475C250.148 51.5255 250.135 51.3973 250.147 51.2704C250.16 51.1434 250.198 51.0201 250.259 50.9075C250.32 50.7949 250.403 50.6953 250.504 50.6142C250.604 50.5331 250.72 50.4722 250.844 50.435C250.969 50.3978 251.1 50.385 251.229 50.3973L253.723 50.6339L252.577 45.0699C252.525 44.8174 252.577 44.5549 252.722 44.3403C252.868 44.1257 253.094 43.9765 253.352 43.9255C253.609 43.8745 253.877 43.9259 254.096 44.0684C254.315 44.2109 254.467 44.4328 254.519 44.6853L255.93 51.5352C255.959 51.6762 255.955 51.8217 255.92 51.9613C255.885 52.1009 255.818 52.231 255.725 52.3423C255.632 52.4536 255.515 52.5433 255.383 52.6049C255.25 52.6664 255.105 52.6984 254.958 52.6984Z" fill="#30323F"/>
<path d="M233.389 55.3764C231.809 55.5328 230.219 55.2007 228.841 54.4265C227.464 53.6522 226.368 52.4748 225.707 51.0592C225.047 49.6437 224.854 48.0609 225.158 46.5328C225.461 45.0048 226.244 43.608 227.398 42.5384C228.551 41.4687 230.018 40.7798 231.591 40.5682C233.164 40.3567 234.765 40.633 236.17 41.3585C237.575 42.0841 238.713 43.2224 239.425 44.614C240.137 46.0055 240.387 47.5806 240.139 49.1183" fill="white"/>
<path d="M232.635 56.3852C230.877 56.3875 229.16 55.8612 227.717 54.8773C226.273 53.8935 225.172 52.4994 224.561 50.8829C223.951 49.2665 223.861 47.5054 224.303 45.8372C224.745 44.1689 225.698 42.6737 227.034 41.553C228.37 40.4323 230.024 39.7401 231.774 39.5696C233.523 39.3992 235.284 39.7587 236.819 40.5997C238.354 41.4408 239.589 42.7229 240.357 44.2732C241.125 45.8235 241.391 47.5676 241.117 49.2702C241.096 49.3961 241.051 49.517 240.983 49.6258C240.915 49.7346 240.826 49.8292 240.721 49.9042C240.616 49.9793 240.496 50.0332 240.37 50.0631C240.243 50.0929 240.112 50.0981 239.984 50.0782C239.855 50.0583 239.732 50.0138 239.621 49.9473C239.51 49.8807 239.413 49.7933 239.337 49.6902C239.26 49.587 239.205 49.4701 239.175 49.3461C239.144 49.2221 239.139 49.0935 239.159 48.9675C239.372 47.6322 239.154 46.265 238.535 45.0574C237.916 43.8497 236.927 42.8622 235.707 42.233C234.487 41.6039 233.097 41.3646 231.731 41.5488C230.365 41.733 229.092 42.3314 228.091 43.2602C227.089 44.189 226.409 45.4017 226.146 46.7283C225.882 48.0549 226.049 49.4291 226.622 50.6583C227.195 51.8875 228.146 52.9102 229.342 53.5831C230.538 54.256 231.918 54.5454 233.29 54.4107C233.551 54.385 233.812 54.4621 234.016 54.6252C234.219 54.7882 234.348 55.0238 234.375 55.2801C234.401 55.5365 234.322 55.7925 234.156 55.992C233.99 56.1915 233.749 56.318 233.488 56.3438C233.204 56.3713 232.92 56.3852 232.635 56.3852Z" fill="#30323F"/>
<path d="M231.419 50.9441C231.203 50.9442 230.994 50.8756 230.822 50.7486C230.65 50.6215 230.525 50.443 230.466 50.2401C230.406 50.0371 230.416 49.8208 230.494 49.6238C230.571 49.4268 230.712 49.2599 230.895 49.1484L233.041 47.8401L229.376 46.1726C229.137 46.0642 228.953 45.8674 228.862 45.6255C228.772 45.3837 228.783 45.1165 228.894 44.8828C229.004 44.6492 229.205 44.4681 229.452 44.3795C229.699 44.291 229.971 44.3021 230.209 44.4105L235.541 46.8343C235.703 46.908 235.842 47.0233 235.943 47.168C236.043 47.3127 236.102 47.4815 236.113 47.6563C236.124 47.8312 236.086 48.0057 236.004 48.1613C235.922 48.317 235.799 48.4479 235.647 48.5404L231.941 50.7978C231.784 50.8937 231.603 50.9444 231.419 50.9441Z" fill="#30323F"/>
<path d="M252.546 57.9635C252.326 57.9635 252.106 57.9478 251.889 57.9166C251.271 57.8283 250.678 57.6143 250.149 57.2883C249.62 56.9622 249.167 56.5314 248.818 56.0234L248.735 55.9153C248.578 55.7092 248.51 55.4502 248.547 55.1952C248.584 54.9402 248.723 54.7101 248.933 54.5556C249.144 54.401 249.408 54.3347 249.668 54.3711C249.928 54.4075 250.163 54.5437 250.32 54.7498L250.419 54.8793C250.431 54.8942 250.443 54.9101 250.452 54.9262C250.645 55.2146 250.899 55.4591 251.196 55.6434C251.493 55.8276 251.827 55.9474 252.176 55.9946C252.536 56.0454 252.903 56.0214 253.253 55.924C253.603 55.8267 253.928 55.6583 254.208 55.4297L254.69 55.0195C254.888 54.8508 255.147 54.7664 255.409 54.7848C255.671 54.8032 255.915 54.9229 256.087 55.1176C256.259 55.3123 256.345 55.566 256.327 55.8229C256.308 56.0799 256.186 56.319 255.987 56.4876L255.492 56.9085C254.667 57.5883 253.624 57.9619 252.546 57.9635Z" fill="#30323F"/>
</g>
<g clip-path="url(#clip4_1020_4620)">
<path d="M441.929 260.354C445.591 259.628 447.937 256.068 447.168 252.402C446.399 248.737 442.808 246.353 439.145 247.079C435.483 247.804 433.138 251.364 433.906 255.03C434.675 258.696 438.267 261.079 441.929 260.354Z" fill="#E195C7"/>
<path d="M453.803 271.422C457.465 270.696 459.811 267.136 459.042 263.471C458.273 259.805 454.682 257.422 451.019 258.147C447.357 258.873 445.012 262.433 445.78 266.098C446.549 269.764 450.141 272.148 453.803 271.422Z" fill="#E195C7"/>
<path d="M441.282 276.461C444.944 275.735 447.289 272.176 446.521 268.51C445.752 264.844 442.16 262.461 438.498 263.186C434.836 263.912 432.49 267.472 433.259 271.137C434.028 274.803 437.62 277.187 441.282 276.461Z" fill="#E195C7"/>
<path d="M459.565 285.373C463.227 284.647 465.572 281.088 464.804 277.422C464.035 273.756 460.443 271.373 456.781 272.098C453.119 272.824 450.774 276.384 451.542 280.05C452.311 283.715 455.903 286.099 459.565 285.373Z" fill="#E195C7"/>
<path d="M447.044 290.411C450.706 289.686 453.052 286.126 452.283 282.46C451.515 278.794 447.923 276.411 444.261 277.136C440.599 277.862 438.253 281.422 439.022 285.088C439.79 288.753 443.382 291.137 447.044 290.411Z" fill="#E195C7"/>
<path d="M471.873 329.941C471.699 329.976 471.518 329.948 471.36 329.863C471.203 329.779 471.08 329.642 471.012 329.477L439.834 254C439.756 253.812 439.756 253.602 439.833 253.416C439.911 253.23 440.06 253.084 440.247 253.008C440.434 252.933 440.644 252.935 440.831 253.015C441.018 253.095 441.167 253.245 441.245 253.432L472.422 328.91C472.5 329.097 472.499 329.307 472.422 329.493C472.345 329.678 472.196 329.825 472.009 329.9C471.965 329.918 471.92 329.932 471.873 329.941Z" fill="#30323F"/>
</g>
<g clip-path="url(#clip5_1020_4620)">
<path d="M543.36 318.596C543.741 318.596 544.071 318.319 544.123 317.939L551.69 262.081C551.747 261.666 551.45 261.286 551.028 261.23C550.606 261.175 550.219 261.467 550.163 261.881L542.595 317.739C542.539 318.154 542.836 318.534 543.257 318.59C543.292 318.594 543.326 318.596 543.36 318.596Z" fill="#30323F"/>
<path d="M550.926 268.759C547.115 268.759 544.026 265.724 544.026 261.981C544.026 258.237 547.115 255.202 550.926 255.202C554.736 255.202 557.825 258.237 557.825 261.981C557.825 265.724 554.736 268.759 550.926 268.759Z" fill="#44B480"/>
</g>
<g clip-path="url(#clip6_1020_4620)">
<path d="M484.599 292.671C482.635 293.135 480.57 293.012 478.666 292.317C476.762 291.621 475.105 290.385 473.903 288.764C472.701 287.144 472.009 285.211 471.915 283.212C471.82 281.212 472.327 279.235 473.372 277.53C474.416 275.825 475.951 274.47 477.783 273.635C479.615 272.799 481.661 272.522 483.662 272.838C485.663 273.154 487.53 274.049 489.026 275.409C490.523 276.77 491.582 278.535 492.069 280.482C492.719 283.092 492.297 285.841 490.897 288.126C489.497 290.411 487.232 292.046 484.599 292.671ZM479.984 274.228C478.267 274.634 476.715 275.535 475.524 276.817C474.333 278.1 473.557 279.706 473.293 281.433C473.03 283.16 473.29 284.93 474.043 286.519C474.795 288.109 476.006 289.446 477.521 290.362C479.036 291.278 480.787 291.732 482.554 291.665C484.321 291.599 486.024 291.017 487.447 289.991C488.87 288.965 489.95 287.542 490.55 285.902C491.15 284.262 491.243 282.479 490.817 280.778C490.244 278.498 488.781 276.528 486.75 275.3C484.719 274.072 482.286 273.687 479.984 274.228Z" fill="#30323F"/>
<path d="M484.599 292.671C482.635 293.135 480.57 293.012 478.666 292.317C476.762 291.621 475.105 290.385 473.903 288.764C472.701 287.144 472.009 285.211 471.915 283.212C471.82 281.212 472.327 279.235 473.372 277.53C474.416 275.825 475.951 274.47 477.783 273.635C479.615 272.799 481.661 272.522 483.662 272.838C485.663 273.154 487.53 274.049 489.026 275.409C490.523 276.77 491.582 278.535 492.069 280.482C492.719 283.092 492.297 285.841 490.897 288.126C489.497 290.411 487.232 292.046 484.599 292.671ZM479.984 274.228C478.267 274.634 476.715 275.535 475.524 276.817C474.333 278.1 473.557 279.706 473.293 281.433C473.03 283.16 473.29 284.93 474.043 286.519C474.795 288.109 476.006 289.446 477.521 290.362C479.036 291.278 480.787 291.732 482.554 291.665C484.321 291.599 486.024 291.017 487.447 289.991C488.87 288.965 489.95 287.542 490.55 285.902C491.15 284.262 491.243 282.479 490.817 280.778C490.244 278.498 488.781 276.528 486.75 275.3C484.719 274.072 482.286 273.687 479.984 274.228Z" fill="#30323F"/>
<path d="M484.443 292.05C489.583 290.835 492.716 285.722 491.442 280.629C490.167 275.536 484.967 272.392 479.828 273.607C474.688 274.822 471.555 279.935 472.829 285.028C474.104 290.121 479.304 293.265 484.443 292.05Z" fill="white"/>
<path d="M484.599 292.674C482.634 293.138 480.569 293.015 478.665 292.32C476.761 291.624 475.104 290.388 473.902 288.767C472.7 287.147 472.008 285.214 471.914 283.215C471.819 281.215 472.326 279.238 473.371 277.533C474.415 275.828 475.95 274.473 477.782 273.637C479.614 272.802 481.66 272.525 483.661 272.841C485.662 273.157 487.529 274.052 489.025 275.412C490.522 276.773 491.581 278.538 492.068 280.485C492.718 283.095 492.296 285.844 490.896 288.129C489.496 290.414 487.231 292.049 484.599 292.674ZM479.983 274.231C478.266 274.637 476.714 275.538 475.523 276.82C474.332 278.103 473.556 279.709 473.292 281.436C473.029 283.163 473.289 284.933 474.042 286.522C474.794 288.112 476.005 289.449 477.52 290.365C479.035 291.281 480.786 291.735 482.553 291.668C484.32 291.602 486.023 291.019 487.446 289.994C488.869 288.968 489.949 287.545 490.549 285.905C491.149 284.265 491.242 282.482 490.816 280.781C490.243 278.501 488.78 276.531 486.749 275.303C484.718 274.075 482.285 273.689 479.983 274.231Z" fill="#30323F"/>
<path d="M500.986 358.156C500.82 358.195 500.644 358.167 500.498 358.079C500.351 357.99 500.246 357.848 500.205 357.684L483.817 292.202C483.776 292.038 483.803 291.864 483.891 291.72C483.979 291.576 484.122 291.473 484.288 291.434C484.454 291.395 484.63 291.423 484.776 291.511C484.923 291.6 485.028 291.742 485.069 291.906L501.457 357.388C501.498 357.552 501.471 357.725 501.383 357.87C501.295 358.014 501.152 358.117 500.986 358.156Z" fill="#30323F"/>
<path d="M482.653 284.899C480.758 285.343 478.77 285.242 476.922 284.607C475.074 283.972 473.443 282.829 472.221 281.314C472.167 281.249 472.126 281.173 472.101 281.092C472.077 281.011 472.068 280.926 472.077 280.841C472.086 280.757 472.112 280.676 472.153 280.602C472.194 280.528 472.249 280.464 472.316 280.411C472.383 280.359 472.459 280.321 472.542 280.298C472.624 280.276 472.71 280.269 472.795 280.28C472.88 280.291 472.962 280.318 473.036 280.361C473.111 280.403 473.176 280.459 473.228 280.527C474.296 281.85 475.72 282.848 477.335 283.403C478.95 283.958 480.687 284.046 482.342 283.658C483.995 283.264 485.495 282.412 486.669 281.202C487.843 279.992 488.641 278.474 488.971 276.824C489.005 276.659 489.103 276.514 489.244 276.422C489.386 276.329 489.56 276.296 489.727 276.329C489.895 276.363 490.042 276.461 490.138 276.602C490.234 276.742 490.269 276.914 490.237 277.079C489.86 278.967 488.947 280.704 487.604 282.089C486.26 283.473 484.543 284.448 482.653 284.899Z" fill="#30323F"/>
<path d="M486.338 283.11C486.247 283.131 486.152 283.133 486.06 283.114C484.143 282.727 482.372 281.81 480.955 280.468C479.537 279.127 478.532 277.418 478.056 275.541C477.938 275.069 477.855 274.589 477.806 274.105C477.796 274.021 477.803 273.936 477.826 273.855C477.85 273.773 477.89 273.698 477.944 273.632C477.997 273.567 478.064 273.512 478.139 273.473C478.214 273.433 478.297 273.409 478.382 273.401C478.468 273.393 478.554 273.403 478.636 273.428C478.718 273.454 478.794 273.495 478.86 273.55C478.925 273.605 478.98 273.672 479.019 273.748C479.058 273.823 479.082 273.906 479.089 273.99C479.132 274.413 479.205 274.832 479.308 275.245C479.724 276.886 480.603 278.38 481.842 279.552C483.081 280.725 484.629 281.527 486.305 281.864C486.449 281.893 486.58 281.97 486.674 282.082C486.769 282.193 486.823 282.333 486.827 282.479C486.831 282.624 486.784 282.766 486.695 282.88C486.606 282.995 486.48 283.076 486.338 283.11Z" fill="#30323F"/>
</g>
<g clip-path="url(#clip7_1020_4620)">
<path d="M566.687 313.501C566.487 313.438 566.322 313.298 566.227 313.112C566.132 312.927 566.116 312.71 566.183 312.511L578.344 275.94C578.41 275.741 578.553 275.575 578.742 275.478C578.93 275.382 579.148 275.363 579.348 275.427C579.548 275.49 579.714 275.629 579.809 275.815C579.903 276.001 579.919 276.217 579.853 276.417L567.692 312.987C567.626 313.187 567.482 313.353 567.294 313.449C567.106 313.545 566.887 313.564 566.687 313.501Z" fill="#30323F"/>
<path d="M588.983 279.629L569.013 273.328C567.379 272.812 566.027 271.671 565.254 270.154C564.482 268.638 564.352 266.871 564.893 265.243C565.435 263.614 566.604 262.257 568.142 261.47C569.681 260.683 571.463 260.53 573.097 261.046L593.067 267.347C594.701 267.863 596.054 269.004 596.826 270.521C597.599 272.037 597.729 273.804 597.187 275.432C596.645 277.061 595.477 278.418 593.938 279.205C592.4 279.992 590.617 280.145 588.983 279.629ZM571.464 265.959C571.137 265.856 570.78 265.886 570.473 266.043C570.165 266.201 569.931 266.472 569.823 266.798C569.715 267.124 569.741 267.477 569.895 267.78C570.05 268.084 570.32 268.312 570.647 268.415L590.617 274.716C590.944 274.819 591.3 274.789 591.608 274.631C591.915 274.474 592.149 274.203 592.257 273.877C592.366 273.551 592.34 273.198 592.185 272.895C592.031 272.591 591.76 272.363 591.434 272.26L571.464 265.959Z" fill="#2C98F0"/>
<path d="M582.034 296.437C579.619 295.675 574.844 289.974 574.307 289.326C574.223 289.225 574.166 289.103 574.142 288.973C574.118 288.843 574.127 288.709 574.169 288.582C574.211 288.456 574.284 288.342 574.382 288.25C574.48 288.159 574.599 288.093 574.729 288.059C575.553 287.84 582.853 285.95 585.268 286.712C586.562 287.12 587.633 288.024 588.244 289.224C588.856 290.425 588.959 291.824 588.53 293.114C588.101 294.403 587.176 295.478 585.958 296.101C584.739 296.725 583.328 296.845 582.034 296.437ZM576.355 289.272C578.344 291.557 581.238 294.524 582.534 294.933C582.976 295.073 583.444 295.124 583.909 295.084C584.374 295.044 584.827 294.914 585.244 294.701C585.661 294.488 586.032 294.196 586.337 293.842C586.642 293.488 586.874 293.079 587.021 292.638C587.168 292.197 587.226 291.732 587.192 291.271C587.158 290.81 587.033 290.362 586.824 289.951C586.614 289.541 586.325 289.176 585.972 288.878C585.62 288.58 585.21 288.355 584.768 288.215C583.471 287.806 579.341 288.557 576.355 289.272Z" fill="#30323F"/>
<path d="M564.553 290.921C563.259 290.513 562.189 289.609 561.577 288.408C560.965 287.208 560.862 285.809 561.291 284.519C561.72 283.229 562.645 282.155 563.864 281.531C565.082 280.908 566.493 280.788 567.787 281.196C570.202 281.958 574.978 287.659 575.515 288.307C575.599 288.408 575.656 288.53 575.68 288.66C575.704 288.79 575.695 288.924 575.653 289.05C575.611 289.177 575.537 289.291 575.44 289.383C575.342 289.474 575.223 289.54 575.093 289.574C574.268 289.792 566.968 291.683 564.553 290.921ZM567.287 282.7C566.394 282.418 565.419 282.501 564.577 282.932C563.736 283.362 563.096 284.104 562.8 284.995C562.504 285.886 562.575 286.852 562.998 287.682C563.42 288.511 564.16 289.135 565.054 289.417C566.35 289.826 570.48 289.075 573.467 288.361C571.477 286.076 568.584 283.109 567.287 282.7Z" fill="#30323F"/>
</g>
<g clip-path="url(#clip8_1020_4620)">
<path d="M527.603 371.437C527.413 371.476 527.213 371.438 527.049 371.331C526.884 371.224 526.769 371.057 526.727 370.866L500.45 250.144C500.409 249.953 500.445 249.755 500.551 249.592C500.656 249.429 500.823 249.316 501.014 249.277C501.205 249.237 501.404 249.276 501.568 249.383C501.733 249.49 501.848 249.657 501.89 249.848L528.167 370.57C528.208 370.761 528.172 370.959 528.067 371.122C527.961 371.284 527.794 371.398 527.603 371.437Z" fill="#30323F"/>
<path d="M507.331 228.321C506.638 228.466 506.034 228.878 505.651 229.469C505.267 230.059 505.136 230.779 505.285 231.472C505.132 230.78 504.712 230.173 504.115 229.784C503.519 229.396 502.794 229.257 502.101 229.398C501.408 229.542 500.804 229.954 500.421 230.545C500.037 231.135 499.906 231.855 500.055 232.548C499.902 231.856 499.482 231.249 498.885 230.861C498.289 230.472 497.564 230.333 496.871 230.474C496.178 230.618 495.574 231.03 495.191 231.621C494.807 232.211 494.676 232.932 494.825 233.624C494.672 232.932 494.252 232.325 493.655 231.937C493.059 231.548 492.334 231.409 491.641 231.55C490.948 231.694 490.344 232.107 489.961 232.697C489.577 233.287 489.446 234.008 489.595 234.7C489.442 234.008 489.022 233.402 488.425 233.013C487.829 232.624 487.104 232.485 486.411 232.626C485.718 232.77 485.114 233.183 484.731 233.773C484.347 234.363 484.215 235.084 484.365 235.776L486.754 246.753C487.511 250.23 489.62 253.28 492.616 255.232C495.612 257.184 499.25 257.878 502.73 257.163C506.21 256.446 509.247 254.378 511.173 251.413C513.099 248.449 513.756 244.83 513 241.353L510.611 230.376C510.427 229.683 509.985 229.084 509.375 228.702C508.765 228.319 508.033 228.183 507.331 228.321Z" fill="white"/>
<path d="M502.886 257.881C499.215 258.632 495.379 257.898 492.22 255.839C489.06 253.78 486.836 250.566 486.033 246.9L483.644 235.923C483.494 235.231 483.563 234.513 483.842 233.867C484.121 233.22 484.595 232.679 485.2 232.317C485.804 231.956 486.509 231.792 487.216 231.849C487.923 231.905 488.597 232.18 489.144 232.634C489.37 232.175 489.698 231.774 490.103 231.462C490.508 231.149 490.98 230.933 491.484 230.83C491.987 230.726 492.509 230.738 493.009 230.864C493.51 230.99 493.977 231.227 494.374 231.558C494.6 231.099 494.928 230.698 495.333 230.386C495.739 230.073 496.21 229.857 496.714 229.753C497.217 229.65 497.739 229.662 498.239 229.788C498.74 229.914 499.207 230.151 499.604 230.481C499.83 230.023 500.158 229.622 500.563 229.309C500.969 228.997 501.441 228.781 501.944 228.677C502.447 228.574 502.969 228.585 503.469 228.711C503.97 228.838 504.437 229.075 504.834 229.405C505.06 228.947 505.388 228.546 505.793 228.233C506.199 227.921 506.671 227.705 507.174 227.601C508.061 227.423 508.986 227.592 509.759 228.074C510.531 228.557 511.091 229.314 511.322 230.191L511.33 230.227L513.719 241.204C514.513 244.871 513.818 248.686 511.787 251.813C509.757 254.939 506.555 257.122 502.886 257.881ZM486.567 233.344C486.064 233.448 485.626 233.746 485.348 234.174C485.07 234.603 484.975 235.125 485.084 235.627L487.473 246.604C488.188 249.89 490.181 252.773 493.013 254.618C495.845 256.463 499.284 257.12 502.573 256.443C505.863 255.766 508.734 253.811 510.554 251.009C512.374 248.207 512.995 244.786 512.28 241.5L509.894 230.542C509.758 230.034 509.433 229.596 508.985 229.317C508.538 229.037 508.002 228.938 507.487 229.039C506.985 229.143 506.546 229.442 506.268 229.87C505.99 230.298 505.895 230.82 506.004 231.323C506.045 231.513 506.009 231.712 505.904 231.874C505.798 232.037 505.631 232.15 505.441 232.19C505.25 232.229 505.05 232.191 504.886 232.084C504.721 231.977 504.606 231.809 504.564 231.619C504.455 231.117 504.15 230.676 503.718 230.394C503.285 230.112 502.76 230.012 502.257 230.115C501.754 230.219 501.316 230.517 501.037 230.946C500.759 231.374 500.664 231.896 500.774 232.399C500.815 232.589 500.779 232.788 500.674 232.95C500.568 233.113 500.401 233.226 500.21 233.266C500.02 233.305 499.82 233.267 499.656 233.16C499.491 233.053 499.376 232.886 499.334 232.695C499.225 232.193 498.92 231.752 498.488 231.47C498.055 231.188 497.529 231.088 497.027 231.191C496.524 231.295 496.085 231.594 495.807 232.022C495.529 232.45 495.434 232.973 495.544 233.475C495.585 233.665 495.549 233.864 495.443 234.027C495.338 234.189 495.171 234.303 494.98 234.342C494.79 234.381 494.59 234.343 494.426 234.236C494.261 234.129 494.146 233.962 494.104 233.771C494.05 233.522 493.947 233.286 493.802 233.076C493.657 232.866 493.472 232.686 493.258 232.546C493.043 232.407 492.804 232.31 492.553 232.262C492.303 232.215 492.046 232.216 491.797 232.268C491.548 232.319 491.312 232.418 491.103 232.561C490.894 232.703 490.715 232.886 490.577 233.098C490.44 233.31 490.345 233.547 490.3 233.797C490.255 234.046 490.259 234.302 490.314 234.551C490.355 234.742 490.319 234.94 490.213 235.103C490.108 235.265 489.941 235.379 489.75 235.418C489.559 235.457 489.36 235.419 489.196 235.312C489.031 235.205 488.916 235.038 488.874 234.847C488.764 234.345 488.46 233.905 488.027 233.623C487.595 233.341 487.069 233.241 486.567 233.344Z" fill="#30323F"/>
<path d="M507.715 242.289C507.525 242.328 507.325 242.29 507.161 242.183C506.996 242.076 506.881 241.909 506.839 241.718L504.596 231.412C504.554 231.222 504.59 231.023 504.696 230.861C504.802 230.698 504.968 230.585 505.159 230.545C505.35 230.506 505.55 230.544 505.714 230.651C505.878 230.758 505.994 230.925 506.035 231.116L508.279 241.422C508.32 241.613 508.284 241.811 508.178 241.974C508.073 242.136 507.906 242.25 507.715 242.289Z" fill="#30323F"/>
<path d="M502.46 243.369C502.269 243.409 502.069 243.37 501.905 243.263C501.74 243.156 501.625 242.989 501.583 242.798L499.34 232.492C499.299 232.302 499.335 232.103 499.44 231.941C499.546 231.778 499.712 231.665 499.903 231.625C500.094 231.586 500.294 231.624 500.458 231.731C500.622 231.838 500.738 232.006 500.78 232.196L503.023 242.502C503.064 242.693 503.028 242.891 502.923 243.054C502.817 243.217 502.65 243.33 502.46 243.369Z" fill="#30323F"/>
<path d="M497.207 244.452C497.016 244.492 496.816 244.453 496.652 244.346C496.488 244.239 496.372 244.072 496.33 243.881L494.087 233.575C494.046 233.385 494.082 233.186 494.187 233.024C494.293 232.861 494.46 232.748 494.65 232.708C494.841 232.669 495.041 232.707 495.205 232.814C495.369 232.921 495.485 233.089 495.527 233.279L497.77 243.585C497.811 243.776 497.775 243.974 497.67 244.137C497.564 244.3 497.397 244.413 497.207 244.452Z" fill="#30323F"/>
<path d="M491.976 245.526C491.785 245.566 491.586 245.528 491.421 245.421C491.257 245.314 491.141 245.146 491.1 244.956L488.857 234.65C488.815 234.459 488.851 234.26 488.957 234.098C489.062 233.935 489.229 233.822 489.42 233.783C489.611 233.743 489.81 233.781 489.975 233.888C490.139 233.996 490.255 234.163 490.296 234.353L492.539 244.659C492.581 244.85 492.545 245.049 492.439 245.211C492.334 245.374 492.167 245.487 491.976 245.526Z" fill="#30323F"/>
</g>
<g clip-path="url(#clip9_1020_4620)">
<path d="M573.297 302.85C573.097 302.85 572.906 302.772 572.764 302.633C572.623 302.495 572.544 302.307 572.544 302.111V255.982C572.544 255.786 572.623 255.598 572.764 255.46C572.906 255.321 573.097 255.243 573.297 255.243C573.496 255.243 573.688 255.321 573.829 255.46C573.97 255.598 574.049 255.786 574.049 255.982V302.111C574.049 302.307 573.97 302.495 573.829 302.633C573.688 302.772 573.496 302.85 573.297 302.85Z" fill="#30323F"/>
<path d="M466.248 302.85C466.048 302.85 465.857 302.772 465.716 302.633C465.574 302.495 465.495 302.307 465.495 302.11V251.547C465.495 251.351 465.574 251.163 465.716 251.024C465.857 250.885 466.048 250.808 466.248 250.808C466.447 250.808 466.639 250.885 466.78 251.024C466.921 251.163 467 251.351 467 251.547V302.11C467 302.307 466.921 302.495 466.78 302.633C466.639 302.772 466.447 302.85 466.248 302.85Z" fill="#30323F"/>
<path d="M508.045 302.849C507.845 302.849 507.654 302.771 507.512 302.633C507.371 302.494 507.292 302.306 507.292 302.11V283.599C507.292 283.403 507.371 283.215 507.512 283.076C507.654 282.937 507.845 282.859 508.045 282.859C508.244 282.859 508.436 282.937 508.577 283.076C508.718 283.215 508.797 283.403 508.797 283.599V302.11C508.797 302.306 508.718 302.494 508.577 302.633C508.436 302.771 508.244 302.849 508.045 302.849Z" fill="#30323F"/>
<path d="M526.961 302.849C526.761 302.849 526.57 302.771 526.428 302.633C526.287 302.494 526.208 302.306 526.208 302.11V261.551C526.208 261.355 526.287 261.167 526.428 261.028C526.57 260.889 526.761 260.812 526.961 260.812C527.16 260.812 527.352 260.889 527.493 261.028C527.634 261.167 527.713 261.355 527.713 261.551V302.11C527.713 302.306 527.634 302.494 527.493 302.633C527.352 302.771 527.16 302.849 526.961 302.849Z" fill="#30323F"/>
<path d="M547.055 302.85C546.856 302.85 546.664 302.772 546.523 302.633C546.382 302.495 546.303 302.306 546.303 302.11V297.33C546.303 297.134 546.382 296.946 546.523 296.807C546.664 296.669 546.856 296.591 547.055 296.591C547.255 296.591 547.446 296.669 547.588 296.807C547.729 296.946 547.808 297.134 547.808 297.33V302.11C547.808 302.306 547.729 302.495 547.588 302.633C547.446 302.772 547.255 302.85 547.055 302.85Z" fill="#30323F"/>
<path d="M449.264 302.11H585.364V348.411H449.264V302.11Z" fill="white"/>
<path d="M585.363 349.151H449.263C449.064 349.151 448.872 349.073 448.731 348.935C448.59 348.796 448.511 348.608 448.511 348.412V302.111C448.511 301.915 448.59 301.727 448.731 301.589C448.872 301.45 449.064 301.372 449.263 301.372H585.363C585.563 301.372 585.755 301.45 585.896 301.589C586.037 301.727 586.116 301.915 586.116 302.111V348.412C586.116 348.608 586.037 348.796 585.896 348.935C585.755 349.073 585.563 349.151 585.363 349.151ZM450.016 347.673H584.611V302.851H450.016V347.673Z" fill="#30323F"/>
<path d="M585.363 311.352H449.263C449.064 311.352 448.872 311.274 448.731 311.135C448.59 310.996 448.511 310.808 448.511 310.612C448.511 310.416 448.59 310.228 448.731 310.09C448.872 309.951 449.064 309.873 449.263 309.873H585.363C585.563 309.873 585.755 309.951 585.896 310.09C586.037 310.228 586.116 310.416 586.116 310.612C586.116 310.808 586.037 310.996 585.896 311.135C585.755 311.274 585.563 311.352 585.363 311.352Z" fill="#30323F"/>
<path d="M487.595 302.851C487.396 302.851 487.204 302.773 487.063 302.634C486.922 302.495 486.843 302.307 486.843 302.111V234.816C486.843 234.62 486.922 234.432 487.063 234.294C487.204 234.155 487.396 234.077 487.595 234.077C487.795 234.077 487.986 234.155 488.128 234.294C488.269 234.432 488.348 234.62 488.348 234.816V302.111C488.348 302.307 488.269 302.495 488.128 302.634C487.986 302.773 487.795 302.851 487.595 302.851Z" fill="#30323F"/>
</g>
<g clip-path="url(#clip10_1020_4620)">
<path d="M360.903 134.959L362.187 139.128C362.411 139.852 362.99 140.419 363.729 140.638L367.978 141.9C368.255 141.982 368.411 142.269 368.328 142.541C368.277 142.705 368.146 142.834 367.978 142.884L363.729 144.146C362.99 144.365 362.411 144.932 362.187 145.656L360.903 149.825C360.821 150.097 360.53 150.253 360.252 150.173C360.081 150.124 359.948 149.993 359.897 149.825L358.611 145.656C358.388 144.932 357.81 144.365 357.072 144.146L352.823 142.884C352.546 142.802 352.389 142.515 352.473 142.243C352.523 142.079 352.655 141.95 352.823 141.9L357.072 140.638C357.81 140.419 358.388 139.852 358.611 139.128L359.897 134.959C359.979 134.687 360.27 134.531 360.548 134.611C360.719 134.66 360.853 134.791 360.903 134.959Z" fill="#FFD35F"/>
</g>
<g clip-path="url(#clip11_1020_4620)">
<path d="M462.077 26.2396L462.88 28.845C463.02 29.2978 463.381 29.652 463.843 29.7888L466.499 30.5776C466.672 30.629 466.77 30.8083 466.717 30.9781C466.686 31.081 466.604 31.1617 466.499 31.1928L463.843 31.9816C463.381 32.1184 463.02 32.4726 462.88 32.9254L462.077 35.5308C462.026 35.701 461.844 35.7985 461.67 35.7485C461.563 35.7176 461.48 35.6356 461.448 35.5308L460.644 32.9254C460.505 32.4725 460.144 32.1181 459.682 31.9816L457.027 31.1928C456.854 31.1414 456.756 30.9621 456.808 30.7923C456.84 30.6894 456.922 30.6087 457.027 30.5776L459.682 29.7888C460.144 29.6523 460.505 29.2979 460.644 28.845L461.448 26.2396C461.5 26.0694 461.681 25.9718 461.855 26.0219C461.962 26.0526 462.046 26.1347 462.077 26.2396Z" fill="#FFD35F"/>
</g>
<g clip-path="url(#clip12_1020_4620)">
<path d="M612.055 334.539H23.9453C23.3283 334.539 22.8564 334.057 22.8564 333.427C22.8564 332.796 23.3283 332.314 23.9453 332.314H612.055C612.672 332.314 613.144 332.796 613.144 333.427C613.144 334.057 612.672 334.539 612.055 334.539Z" fill="#30323F"/>
</g>
<g clip-path="url(#clip13_1020_4620)">
<path d="M481.048 57.4292L482.921 63.5085C483.248 64.5649 484.091 65.3914 485.169 65.7105L491.365 67.5512C491.769 67.6711 491.997 68.0896 491.876 68.4857C491.802 68.7259 491.61 68.914 491.365 68.9866L485.169 70.8273C484.091 71.1464 483.248 71.9729 482.921 73.0293L481.048 79.1086C480.929 79.5058 480.504 79.7334 480.099 79.6165C479.849 79.5446 479.655 79.3531 479.581 79.1086L477.705 73.0293C477.38 71.9725 476.538 71.1458 475.461 70.8273L469.264 68.9866C468.86 68.8667 468.632 68.4482 468.754 68.0521C468.828 67.8119 469.019 67.6238 469.264 67.5512L475.461 65.7105C476.538 65.3921 477.38 64.5653 477.705 63.5085L479.581 57.4292C479.7 57.032 480.125 56.8044 480.53 56.9213C480.779 56.9929 480.974 57.1844 481.048 57.4292Z" fill="#FFD35F"/>
</g>
<defs>
<clipPath id="clip0_1020_4620">
<rect width="174.569" height="90.7019" fill="white" transform="translate(378.949 110.531)"/>
</clipPath>
<clipPath id="clip1_1020_4620">
<rect width="201.069" height="134.265" fill="white" transform="translate(359.407 199.935)"/>
</clipPath>
<clipPath id="clip2_1020_4620">
<rect width="168.606" height="165.149" fill="white" transform="translate(341.793 13.6123)"/>
</clipPath>
<clipPath id="clip3_1020_4620">
<rect width="303.756" height="307.866" fill="white" transform="translate(33.4561 26.6572)"/>
</clipPath>
<clipPath id="clip4_1020_4620">
<rect width="29.5844" height="87.6471" fill="white" transform="matrix(0.980944 -0.194361 0.205234 0.978727 428.651 249.157)"/>
</clipPath>
<clipPath id="clip5_1020_4620">
<rect width="15.2375" height="47.4641" fill="white" transform="matrix(-1 0 0 1 557.825 255.202)"/>
</clipPath>
<clipPath id="clip6_1020_4620">
<rect width="20.4114" height="31.3301" fill="white" transform="matrix(0.973205 -0.230023 0.242778 0.970102 469.741 275.335)"/>
</clipPath>
<clipPath id="clip7_1020_4620">
<rect width="33.8623" height="51.9569" fill="white" transform="matrix(0.953675 0.300918 -0.315552 0.948934 566.936 259.102)"/>
</clipPath>
<clipPath id="clip8_1020_4620">
<rect width="27.9366" height="82.1176" fill="white" transform="matrix(0.979495 -0.201541 0.212686 0.977136 482.919 232.591)"/>
</clipPath>
<clipPath id="clip9_1020_4620">
<rect width="141.444" height="31.5343" fill="white" transform="translate(448.511 301.688)"/>
</clipPath>
<clipPath id="clip10_1020_4620">
<rect width="15.9" height="15.6046" fill="white" transform="translate(352.45 134.59)"/>
</clipPath>
<clipPath id="clip11_1020_4620">
<rect width="9.9375" height="9.75289" fill="white" transform="translate(456.794 26.0088)"/>
</clipPath>
<clipPath id="clip12_1020_4620">
<rect width="590.288" height="4.22625" fill="white" transform="translate(22.8564 331.275)"/>
</clipPath>
<clipPath id="clip13_1020_4620">
<rect width="23.1875" height="22.7567" fill="white" transform="translate(468.721 56.8906)"/>
</clipPath>
</defs>
</svg>
