<svg width="482" height="994" viewBox="0 0 482 994" fill="none" xmlns="http://www.w3.org/2000/svg">
<path d="M232.281 708.722C233.794 715.052 230.045 721.799 223.907 723.794C217.768 725.789 211.567 722.276 210.055 715.946C208.542 709.616 212.291 702.869 218.429 700.874C224.568 698.879 230.769 702.392 232.281 708.722Z" fill="url(#paint0_linear_1816_5567)"/>
<path d="M222.905 631.986L235.63 604.086" stroke="url(#paint1_linear_1816_5567)" stroke-width="0.896997" stroke-miterlimit="10"/>
<path d="M229.183 635.261L249.199 591.423" stroke="url(#paint2_linear_1816_5567)" stroke-width="0.896997" stroke-miterlimit="10"/>
<path d="M228.628 655.646L249.163 610.61" stroke="url(#paint3_linear_1816_5567)" stroke-width="0.896997" stroke-miterlimit="10"/>
<path d="M240.927 747.962L265.139 694.913" stroke="url(#paint4_linear_1816_5567)" stroke-width="0.896997" stroke-miterlimit="10"/>
<path d="M252.877 754.156L290.923 670.835" stroke="url(#paint5_linear_1816_5567)" stroke-width="0.896997" stroke-miterlimit="10"/>
<path d="M251.808 792.941L290.872 707.321" stroke="url(#paint6_linear_1816_5567)" stroke-width="0.896997" stroke-miterlimit="10"/>
<path d="M280.155 635.639C283.844 634.44 286.098 630.384 285.188 626.579C284.279 622.775 280.551 620.663 276.862 621.862C273.173 623.061 270.919 627.117 271.828 630.922C272.737 634.726 276.465 636.838 280.155 635.639Z" fill="#698FEE"/>
<path d="M321.063 776.018C321.973 779.824 319.721 783.878 316.03 785.077C312.339 786.277 308.613 784.166 307.703 780.36C306.794 776.554 309.046 772.5 312.737 771.301C316.428 770.101 320.154 772.212 321.063 776.018Z" fill="#738FF1"/>
<path d="M198.858 442.855C199.278 444.614 198.235 446.491 196.53 447.045C194.825 447.599 193.1 446.622 192.68 444.863C192.26 443.105 193.303 441.228 195.008 440.674C196.718 440.14 198.438 441.097 198.858 442.855Z" fill="white"/>
<path d="M451.275 818.319C452.185 822.125 449.933 826.179 446.242 827.378C442.55 828.578 438.825 826.467 437.915 822.661C437.006 818.855 439.258 814.801 442.949 813.601C446.64 812.402 450.366 814.512 451.275 818.319Z" fill="white"/>
<path d="M121.239 583.539C124.928 582.34 127.182 578.284 126.272 574.48C125.363 570.675 121.635 568.563 117.946 569.762C114.257 570.962 112.003 575.018 112.912 578.822C113.821 582.626 117.549 584.738 121.239 583.539Z" fill="white"/>
<path d="M429.781 243.773L409.545 269.404L442.72 275.531L429.781 243.773Z" fill="#5D91EB"/>
<path d="M518.892 173.23C488.293 166.636 452.518 167.406 424.059 186.401C401.97 201.145 388.382 225.218 379.729 250.162C369.985 278.233 365.414 307.631 360.044 336.579C356.751 354.3 352.695 371.627 345.742 388.48C338.272 406.61 328.329 423.775 316.364 439.25C303.981 455.237 289.499 469.295 273.379 481.005C254.996 494.363 235.108 504.931 215.715 516.402C183.842 535.292 150.965 559.209 135.816 595.583C129.112 611.668 127.024 629.195 130.665 645.672C134.389 662.587 143.582 677.453 155.281 689.151C181.836 715.749 218.916 723.819 255.818 724.699C295.324 725.638 335.252 719.191 374.565 722.765C394.201 724.558 413.639 728.965 431.025 737.987C448.265 746.945 463.022 759.884 476.699 773.729C502.501 799.886 525.449 830.1 557.907 847.946C572.882 856.181 589.667 861.321 607.164 861.019C624.742 860.691 642.246 854.979 658.023 845.908C732.155 803.253 747.7 710.961 763.407 634.22C772.191 591.324 783.132 548.787 806.053 510.609C828.188 473.751 857.423 441.602 877.091 403.178C894.569 369.059 904.395 329.457 891.412 293.863C879.065 260.035 850.378 235.905 819.029 222.441C782.92 206.939 742.183 204.274 702.812 202.449C681.687 201.474 660.439 201.071 639.527 198.453C618.88 195.859 598.601 191.549 578.46 186.818C568.834 184.551 559.248 182.182 549.632 179.867C539.422 177.414 529.042 175.792 518.781 173.577C517.982 173.395 517.605 174.714 518.404 174.897C528.641 177.098 538.637 180.286 548.808 182.752C558.424 185.066 568.009 187.435 577.636 189.702C597.323 194.338 617.147 198.552 637.299 201.152C677.273 206.327 718.208 204.384 758.151 209.879C795.392 214.993 831.956 226.246 859.769 252.235C872.536 264.16 883.12 278.882 889.122 295.941C895.387 313.734 896.163 333.318 892.482 352.495C884.777 392.668 860.849 427.341 837.305 460.003C824.811 477.335 812.132 494.617 801.367 513.135C790.949 531.031 782.85 550.054 776.563 569.704C763.74 609.774 757.972 651.287 748.485 692.041C739.217 731.815 726.074 772.898 700.106 805.444C676.116 835.504 640.676 858.993 603.53 858.082C566.968 857.18 537.172 832.924 512.923 807.945C487.183 781.412 463.738 750.74 430.179 734.251C397.038 717.98 358.499 717.745 321.588 719.55C282.588 721.46 242.396 725.71 205.01 714.814C172.031 705.207 140.574 680.23 133.085 643.685C125.483 606.668 148.189 571.486 175.422 547.704C208.103 519.152 248.853 504.28 282.6 477.398C310.866 454.874 333.463 424.582 347.599 390.844C360.157 360.902 363.652 328.974 370.028 297.636C375.527 270.595 382.367 242.474 397.154 218.543C412.419 193.812 435.97 178.68 462.977 173.9C481.595 170.596 500.285 171.589 518.327 175.299C519.541 175.501 520.101 173.501 518.892 173.23Z" fill="url(#paint7_linear_1816_5567)"/>
<path d="M770.796 528.049C788.157 494.168 813.524 465.63 833.641 433.531C851.178 405.555 865.56 372.579 863.142 339.566C860.782 307.709 842.238 281.665 818.215 264.436C791.457 245.239 758.792 237.768 726.157 234.32C690.489 230.555 654.106 231.944 618.702 226.475C583.427 221.007 549.61 210.055 514.605 203.635C488.086 198.768 457.359 200.528 433.028 216.824C414.299 229.364 402.221 249.352 394.327 270.414C385.309 294.459 380.972 319.857 376.402 344.821C373.791 359.149 371.31 373.48 366.71 387.438C361.553 403.04 354.394 418.033 345.547 431.914C336.482 446.154 325.599 459.192 313.32 470.536C299.183 483.594 283.07 493.795 266.761 503.351C237.095 520.723 205.78 537.148 184.27 566.023C175.226 578.173 168.237 592.156 165.777 607.123C163.313 622.068 165.652 636.976 171.805 650.04C185.011 678.047 212.189 695.2 241.029 701.837C306.203 716.853 380.735 686.303 441.544 719.433C471.057 735.514 491.621 763.425 515.143 786.981C536.033 807.914 561.134 827.319 591.67 829.833C622.824 832.411 653.641 815.705 676.204 792.339C700.605 767.088 714.969 733.851 724.514 700.503C726.916 692.095 729.048 683.641 730.995 675.137C733.014 666.388 734.068 657.577 735.841 648.797C736.006 647.945 734.788 647.633 734.603 648.491C732.855 657.197 730.287 665.815 728.289 674.468C726.281 683.17 724.118 691.855 721.635 700.467C716.756 717.42 710.738 734.124 702.666 749.902C687.096 780.34 662.766 807.341 631.739 820.171C616.826 826.345 600.853 828.698 585.5 826.128C570.506 823.618 556.778 816.904 544.459 808.312C518.501 790.207 499.346 764.141 476.536 742.304C465.188 731.445 452.821 721.561 438.764 714.644C424.632 707.686 409.115 703.883 393.362 702.086C360.989 698.376 328.024 702.706 295.324 703.336C262.753 703.968 228.732 700.774 202.175 681.423C178.124 663.893 161.559 633.923 169.846 601.273C177.888 569.59 203.853 545.646 229.707 528.764C259.949 509.009 293.109 494.442 319.519 468.469C341.804 446.567 359.004 418.989 369.011 389.214C377.557 363.816 380.142 336.862 385.781 310.862C390.77 287.933 397.198 264.247 410.215 244.217C423.707 223.456 443.951 210.666 466.928 206.271C501.213 199.693 534.184 210.899 566.478 218.625C583.484 222.695 600.57 226.562 617.933 229.23C634.671 231.814 651.537 232.849 668.544 233.571C731.841 236.345 808.718 238.321 846.401 297.617C854.714 310.686 859.866 325.895 860.665 342.037C861.472 358.486 858.029 375.125 852.252 390.841C839.925 424.476 817.638 452.718 797.238 481.629C786.957 496.199 777.124 511.111 769.121 527.089C768.525 528.303 770.195 529.243 770.796 528.049Z" fill="url(#paint8_linear_1816_5567)" fill-opacity="0.8"/>
<defs>
<linearGradient id="paint0_linear_1816_5567" x1="210.068" y1="715.935" x2="232.711" y2="710.524" gradientUnits="userSpaceOnUse">
<stop offset="0.0277" stop-color="#FFD24D"/>
<stop offset="0.7154" stop-color="#F6BE56"/>
<stop offset="1" stop-color="#F2B45A"/>
</linearGradient>
<linearGradient id="paint1_linear_1816_5567" x1="219.501" y1="621.224" x2="239.414" y2="616.484" gradientUnits="userSpaceOnUse">
<stop offset="0.0277" stop-color="#FFD24D"/>
<stop offset="0.1674" stop-color="#EBC34D"/>
<stop offset="0.4544" stop-color="#B69D4D"/>
<stop offset="0.8604" stop-color="#625F4E"/>
<stop offset="1" stop-color="#44494E"/>
</linearGradient>
<linearGradient id="paint2_linear_1816_5567" x1="224.295" y1="618.195" x2="254.679" y2="610.963" gradientUnits="userSpaceOnUse">
<stop offset="0.0277" stop-color="#FFD24D"/>
<stop offset="0.1674" stop-color="#EBC34D"/>
<stop offset="0.4544" stop-color="#B69D4D"/>
<stop offset="0.8604" stop-color="#625F4E"/>
<stop offset="1" stop-color="#44494E"/>
</linearGradient>
<linearGradient id="paint3_linear_1816_5567" x1="223.613" y1="638.117" x2="254.788" y2="630.696" gradientUnits="userSpaceOnUse">
<stop offset="0.0277" stop-color="#FFD24D"/>
<stop offset="0.1674" stop-color="#EBC34D"/>
<stop offset="0.4544" stop-color="#B69D4D"/>
<stop offset="0.8604" stop-color="#625F4E"/>
<stop offset="1" stop-color="#44494E"/>
</linearGradient>
<linearGradient id="paint4_linear_1816_5567" x1="234.004" y1="729.535" x2="273.113" y2="716.529" gradientUnits="userSpaceOnUse">
<stop offset="0.0277" stop-color="#FFD24D"/>
<stop offset="0.1674" stop-color="#EBC34D"/>
<stop offset="0.4544" stop-color="#B69D4D"/>
<stop offset="0.8604" stop-color="#625F4E"/>
<stop offset="1" stop-color="#44494E"/>
</linearGradient>
<linearGradient id="paint5_linear_1816_5567" x1="242.41" y1="725.047" x2="303.037" y2="704.886" gradientUnits="userSpaceOnUse">
<stop offset="0.0277" stop-color="#FFD24D"/>
<stop offset="0.1674" stop-color="#EBC34D"/>
<stop offset="0.4544" stop-color="#B69D4D"/>
<stop offset="0.8604" stop-color="#625F4E"/>
<stop offset="1" stop-color="#44494E"/>
</linearGradient>
<linearGradient id="paint6_linear_1816_5567" x1="241.061" y1="763.014" x2="303.311" y2="742.312" gradientUnits="userSpaceOnUse">
<stop offset="0.0277" stop-color="#FFD24D"/>
<stop offset="0.1674" stop-color="#EBC34D"/>
<stop offset="0.4544" stop-color="#B69D4D"/>
<stop offset="0.8604" stop-color="#625F4E"/>
<stop offset="1" stop-color="#44494E"/>
</linearGradient>
<linearGradient id="paint7_linear_1816_5567" x1="208.693" y1="772.291" x2="903.666" y2="306.71" gradientUnits="userSpaceOnUse">
<stop offset="0.0277" stop-color="#FFD24D"/>
<stop offset="0.0356" stop-color="#F7CC4C"/>
<stop offset="0.0797" stop-color="#CEAE4A"/>
<stop offset="0.1292" stop-color="#A89348"/>
<stop offset="0.1831" stop-color="#887B45"/>
<stop offset="0.2427" stop-color="#6C6744"/>
<stop offset="0.3099" stop-color="#565742"/>
<stop offset="0.3884" stop-color="#454B41"/>
<stop offset="0.4856" stop-color="#3A4241"/>
<stop offset="0.6218" stop-color="#333D40"/>
<stop offset="1" stop-color="#313C40"/>
</linearGradient>
<linearGradient id="paint8_linear_1816_5567" x1="300.181" y1="356.3" x2="776.411" y2="622.195" gradientUnits="userSpaceOnUse">
<stop stop-color="#313C40"/>
<stop offset="0.251" stop-color="#333E40"/>
<stop offset="0.397" stop-color="#3C4441"/>
<stop offset="0.5161" stop-color="#4A4E42"/>
<stop offset="0.6208" stop-color="#5E5D43"/>
<stop offset="0.716" stop-color="#786F44"/>
<stop offset="0.8042" stop-color="#988746"/>
<stop offset="0.8873" stop-color="#BDA249"/>
<stop offset="0.964" stop-color="#E8C14C"/>
<stop offset="1" stop-color="#FFD24D"/>
</linearGradient>
</defs>
</svg>
