<svg width="190" height="48" viewBox="0 0 190 48" fill="none" xmlns="http://www.w3.org/2000/svg">
<path d="M18.7208 42.792C20.3842 43.2471 22.1007 43.479 23.8252 43.4817L24.0999 43.4797C25.0844 43.4675 26.0498 43.2065 26.9064 42.7212C27.7631 42.2358 28.4831 41.5417 28.9996 40.7035C30.0556 38.9969 30.1686 36.8986 29.2977 35.0926L28.912 34.2841C28.0294 32.4489 28.723 30.7851 29.6679 29.8402C30.6128 28.8953 32.2804 28.2018 34.1098 29.0843H34.1118L34.9164 29.472C35.8011 29.8998 36.7798 30.0969 37.7611 30.0447C38.7425 29.9926 39.6947 29.6931 40.5292 29.1739C41.3679 28.6578 42.0625 27.9379 42.5482 27.0812C43.0339 26.2245 43.2951 25.2589 43.3074 24.2742C43.3317 22.4584 43.1002 20.6483 42.6197 18.8971C40.5974 11.4412 34.139 5.73879 26.5546 4.70428C20.4197 3.87239 14.3958 5.87711 10.0512 10.2236C5.70671 14.5701 3.69224 20.5842 4.52998 26.727C5.56254 34.3133 11.2669 40.7698 18.7208 42.792ZM30.6439 12.3101C31.419 12.3101 32.1623 12.618 32.7103 13.1661C33.2584 13.7141 33.5663 14.4574 33.5663 15.2325C33.5663 16.0075 33.2584 16.7508 32.7103 17.2989C32.1623 17.8469 31.419 18.1548 30.6439 18.1548C29.8689 18.1548 29.1256 17.8469 28.5775 17.2989C28.0295 16.7508 27.7216 16.0075 27.7216 15.2325C27.7216 14.4574 28.0295 13.7141 28.5775 13.1661C29.1256 12.618 29.8689 12.3101 30.6439 12.3101ZM20.9028 10.3619C21.6779 10.3619 22.4212 10.6698 22.9692 11.2178C23.5173 11.7659 23.8252 12.5092 23.8252 13.2842C23.8252 14.0593 23.5173 14.8026 22.9692 15.3506C22.4212 15.8987 21.6779 16.2066 20.9028 16.2066C20.1278 16.2066 19.3845 15.8987 18.8364 15.3506C18.2884 14.8026 17.9805 14.0593 17.9805 13.2842C17.9805 12.5092 18.2884 11.7659 18.8364 11.2178C19.3845 10.6698 20.1278 10.3619 20.9028 10.3619ZM17.9805 30.8299C17.9805 31.605 17.6726 32.3483 17.1246 32.8963C16.5765 33.4444 15.8332 33.7523 15.0582 33.7523C14.2831 33.7523 13.5398 33.4444 12.9918 32.8963C12.4437 32.3483 12.1358 31.605 12.1358 30.8299C12.1358 30.0549 12.4437 29.3116 12.9918 28.7635C13.5398 28.2155 14.2831 27.9076 15.0582 27.9076C15.8332 27.9076 16.5765 28.2155 17.1246 28.7635C17.6726 29.3116 17.9805 30.0549 17.9805 30.8299ZM13.1099 18.1665C13.8853 18.1667 14.6287 18.475 15.1768 19.0234C15.7248 19.5718 16.0325 20.3155 16.0323 21.0908C16.032 21.8661 15.7238 22.6095 15.1754 23.1576C14.627 23.7056 13.8833 24.0134 13.108 24.0131C12.3327 24.0128 11.5892 23.7046 11.0412 23.1562C10.4932 22.6078 10.1854 21.8641 10.1857 21.0888C10.1859 20.3135 10.4942 19.5701 11.0426 19.022C11.591 18.474 12.3346 18.1662 13.1099 18.1665Z" fill="#9747FF"/>
<path d="M90.982 27.9626H86.266L85.51 30.1946H82.288L86.86 17.5586H90.424L94.996 30.1946H91.738L90.982 27.9626ZM90.19 25.5866L88.624 20.9606L87.076 25.5866H90.19ZM95.7755 25.1726C95.7755 24.1286 95.9855 23.2166 96.4055 22.4366C96.8375 21.6566 97.4315 21.0566 98.1875 20.6366C98.9555 20.2166 99.8315 20.0066 100.815 20.0066C102.075 20.0066 103.125 20.3366 103.965 20.9966C104.817 21.6566 105.375 22.5866 105.639 23.7866H102.363C102.087 23.0186 101.553 22.6346 100.761 22.6346C100.197 22.6346 99.7475 22.8566 99.4115 23.3006C99.0755 23.7326 98.9075 24.3566 98.9075 25.1726C98.9075 25.9886 99.0755 26.6186 99.4115 27.0626C99.7475 27.4946 100.197 27.7106 100.761 27.7106C101.553 27.7106 102.087 27.3266 102.363 26.5586H105.639C105.375 27.7346 104.817 28.6586 103.965 29.3306C103.113 30.0026 102.063 30.3386 100.815 30.3386C99.8315 30.3386 98.9555 30.1286 98.1875 29.7086C97.4315 29.2886 96.8375 28.6886 96.4055 27.9086C95.9855 27.1286 95.7755 26.2166 95.7755 25.1726ZM106.674 25.1726C106.674 24.1286 106.884 23.2166 107.304 22.4366C107.736 21.6566 108.33 21.0566 109.086 20.6366C109.854 20.2166 110.73 20.0066 111.714 20.0066C112.974 20.0066 114.024 20.3366 114.864 20.9966C115.716 21.6566 116.274 22.5866 116.538 23.7866H113.262C112.986 23.0186 112.452 22.6346 111.66 22.6346C111.096 22.6346 110.646 22.8566 110.31 23.3006C109.974 23.7326 109.806 24.3566 109.806 25.1726C109.806 25.9886 109.974 26.6186 110.31 27.0626C110.646 27.4946 111.096 27.7106 111.66 27.7106C112.452 27.7106 112.986 27.3266 113.262 26.5586H116.538C116.274 27.7346 115.716 28.6586 114.864 29.3306C114.012 30.0026 112.962 30.3386 111.714 30.3386C110.73 30.3386 109.854 30.1286 109.086 29.7086C108.33 29.2886 107.736 28.6886 107.304 27.9086C106.884 27.1286 106.674 26.2166 106.674 25.1726ZM122.756 30.3386C121.772 30.3386 120.884 30.1286 120.092 29.7086C119.312 29.2886 118.694 28.6886 118.238 27.9086C117.794 27.1286 117.572 26.2166 117.572 25.1726C117.572 24.1406 117.8 23.2346 118.256 22.4546C118.712 21.6626 119.336 21.0566 120.128 20.6366C120.92 20.2166 121.808 20.0066 122.792 20.0066C123.776 20.0066 124.664 20.2166 125.456 20.6366C126.248 21.0566 126.872 21.6626 127.328 22.4546C127.784 23.2346 128.012 24.1406 128.012 25.1726C128.012 26.2046 127.778 27.1166 127.31 27.9086C126.854 28.6886 126.224 29.2886 125.42 29.7086C124.628 30.1286 123.74 30.3386 122.756 30.3386ZM122.756 27.6746C123.344 27.6746 123.842 27.4586 124.25 27.0266C124.67 26.5946 124.88 25.9766 124.88 25.1726C124.88 24.3686 124.676 23.7506 124.268 23.3186C123.872 22.8866 123.38 22.6706 122.792 22.6706C122.192 22.6706 121.694 22.8866 121.298 23.3186C120.902 23.7386 120.704 24.3566 120.704 25.1726C120.704 25.9766 120.896 26.5946 121.28 27.0266C121.676 27.4586 122.168 27.6746 122.756 27.6746ZM139.563 20.1506V30.1946H136.485V28.8266C136.173 29.2706 135.747 29.6306 135.207 29.9066C134.679 30.1706 134.091 30.3026 133.443 30.3026C132.675 30.3026 131.997 30.1346 131.409 29.7986C130.821 29.4506 130.365 28.9526 130.041 28.3046C129.717 27.6566 129.555 26.8946 129.555 26.0186V20.1506H132.615V25.6046C132.615 26.2766 132.789 26.7986 133.137 27.1706C133.485 27.5426 133.953 27.7286 134.541 27.7286C135.141 27.7286 135.615 27.5426 135.963 27.1706C136.311 26.7986 136.485 26.2766 136.485 25.6046V20.1506H139.563ZM147.894 20.0426C149.07 20.0426 150.006 20.4266 150.702 21.1946C151.41 21.9506 151.764 22.9946 151.764 24.3266V30.1946H148.704V24.7406C148.704 24.0686 148.53 23.5466 148.182 23.1746C147.834 22.8026 147.366 22.6166 146.778 22.6166C146.19 22.6166 145.722 22.8026 145.374 23.1746C145.026 23.5466 144.852 24.0686 144.852 24.7406V30.1946H141.774V20.1506H144.852V21.4826C145.164 21.0386 145.584 20.6906 146.112 20.4386C146.64 20.1746 147.234 20.0426 147.894 20.0426ZM159.501 27.5846V30.1946H157.935C156.819 30.1946 155.949 29.9246 155.325 29.3846C154.701 28.8326 154.389 27.9386 154.389 26.7026V22.7066H153.165V20.1506H154.389V17.7026H157.467V20.1506H159.483V22.7066H157.467V26.7386C157.467 27.0386 157.539 27.2546 157.683 27.3866C157.827 27.5186 158.067 27.5846 158.403 27.5846H159.501ZM162.764 19.1066C162.224 19.1066 161.78 18.9506 161.432 18.6386C161.096 18.3146 160.928 17.9186 160.928 17.4506C160.928 16.9706 161.096 16.5746 161.432 16.2626C161.78 15.9386 162.224 15.7766 162.764 15.7766C163.292 15.7766 163.724 15.9386 164.06 16.2626C164.408 16.5746 164.582 16.9706 164.582 17.4506C164.582 17.9186 164.408 18.3146 164.06 18.6386C163.724 18.9506 163.292 19.1066 162.764 19.1066ZM164.294 20.1506V30.1946H161.216V20.1506H164.294ZM172.644 20.0426C173.82 20.0426 174.756 20.4266 175.452 21.1946C176.16 21.9506 176.514 22.9946 176.514 24.3266V30.1946H173.454V24.7406C173.454 24.0686 173.28 23.5466 172.932 23.1746C172.584 22.8026 172.116 22.6166 171.528 22.6166C170.94 22.6166 170.472 22.8026 170.124 23.1746C169.776 23.5466 169.602 24.0686 169.602 24.7406V30.1946H166.524V20.1506H169.602V21.4826C169.914 21.0386 170.334 20.6906 170.862 20.4386C171.39 20.1746 171.984 20.0426 172.644 20.0426ZM182.469 20.0066C183.177 20.0066 183.795 20.1506 184.323 20.4386C184.863 20.7266 185.277 21.1046 185.565 21.5726V20.1506H188.643V30.1766C188.643 31.1006 188.457 31.9346 188.085 32.6786C187.725 33.4346 187.167 34.0346 186.411 34.4786C185.667 34.9226 184.737 35.1446 183.621 35.1446C182.133 35.1446 180.927 34.7906 180.003 34.0826C179.079 33.3866 178.551 32.4386 178.419 31.2386H181.461C181.557 31.6226 181.785 31.9226 182.145 32.1386C182.505 32.3666 182.949 32.4806 183.477 32.4806C184.113 32.4806 184.617 32.2946 184.989 31.9226C185.373 31.5626 185.565 30.9806 185.565 30.1766V28.7546C185.265 29.2226 184.851 29.6066 184.323 29.9066C183.795 30.1946 183.177 30.3386 182.469 30.3386C181.641 30.3386 180.891 30.1286 180.219 29.7086C179.547 29.2766 179.013 28.6706 178.617 27.8906C178.233 27.0986 178.041 26.1866 178.041 25.1546C178.041 24.1226 178.233 23.2166 178.617 22.4366C179.013 21.6566 179.547 21.0566 180.219 20.6366C180.891 20.2166 181.641 20.0066 182.469 20.0066ZM185.565 25.1726C185.565 24.4046 185.349 23.7986 184.917 23.3546C184.497 22.9106 183.981 22.6886 183.369 22.6886C182.757 22.6886 182.235 22.9106 181.803 23.3546C181.383 23.7866 181.173 24.3866 181.173 25.1546C181.173 25.9226 181.383 26.5346 181.803 26.9906C182.235 27.4346 182.757 27.6566 183.369 27.6566C183.981 27.6566 184.497 27.4346 184.917 26.9906C185.349 26.5466 185.565 25.9406 185.565 25.1726Z" fill="#414141"/>
</svg>
