<svg width="214" height="48" viewBox="0 0 214 48" fill="none" xmlns="http://www.w3.org/2000/svg">
<mask id="mask0_1531_7370" style="mask-type:alpha" maskUnits="userSpaceOnUse" x="2" y="6" width="44" height="37">
<path d="M22.844 39.3892H7.25827C6.48322 39.3892 5.73991 39.0813 5.19187 38.5333C4.64383 37.9852 4.33594 37.2419 4.33594 36.4669V11.14C4.33594 10.3649 4.64383 9.62163 5.19187 9.07358C5.73991 8.52554 6.48322 8.21765 7.25827 8.21765H40.378C41.1531 8.21765 41.8964 8.52554 42.4444 9.07358C42.9925 9.62163 43.3004 10.3649 43.3004 11.14V25.6367" stroke="white" stroke-width="3.89644" stroke-linecap="round" stroke-linejoin="round"/>
<path d="M4.33594 11.14C4.33594 10.3649 4.64383 9.62163 5.19187 9.07358C5.73991 8.52554 6.48322 8.21765 7.25827 8.21765H40.378C41.1531 8.21765 41.8964 8.52554 42.4444 9.07358C42.9925 9.62163 43.3004 10.3649 43.3004 11.14V19.907H4.33594V11.14Z" fill="white" stroke="white" stroke-width="3.89644"/>
<path d="M39.4052 32.5695L43.3016 36.4659L39.4052 40.3623M33.5605 32.5695L29.6641 36.4659L33.5605 40.3623V32.5695Z" stroke="white" stroke-width="3.89644" stroke-linecap="round" stroke-linejoin="round"/>
<path d="M8.22856 14.0618C8.22856 12.9859 9.10081 12.1136 10.1768 12.1136C11.2528 12.1136 12.125 12.9859 12.125 14.0618C12.125 15.1378 11.2528 16.0101 10.1768 16.0101C9.10081 16.0101 8.22856 15.1378 8.22856 14.0618Z" fill="black"/>
<path d="M14.0801 14.0618C14.0801 12.9859 14.9524 12.1136 16.0283 12.1136C17.1043 12.1136 17.9766 12.9859 17.9766 14.0618C17.9766 15.1378 17.1043 16.0101 16.0283 16.0101C14.9524 16.0101 14.0801 15.1378 14.0801 14.0618Z" fill="black"/>
</mask>
<g mask="url(#mask0_1531_7370)">
<path d="M0.445312 0.426575H47.2026V47.1839H0.445312V0.426575Z" fill="#F6BE56"/>
</g>
<path d="M82.594 20.6639C82.594 19.4159 82.864 18.3059 83.404 17.3339C83.944 16.3499 84.694 15.5879 85.654 15.0479C86.626 14.4959 87.724 14.2199 88.948 14.2199C90.448 14.2199 91.732 14.6159 92.8 15.4079C93.868 16.1999 94.582 17.2799 94.942 18.6479H91.558C91.306 18.1199 90.946 17.7179 90.478 17.4419C90.022 17.1659 89.5 17.0279 88.912 17.0279C87.964 17.0279 87.196 17.3579 86.608 18.0179C86.02 18.6779 85.726 19.5599 85.726 20.6639C85.726 21.7679 86.02 22.6499 86.608 23.3099C87.196 23.9699 87.964 24.2999 88.912 24.2999C89.5 24.2999 90.022 24.1619 90.478 23.8859C90.946 23.6099 91.306 23.2079 91.558 22.6799H94.942C94.582 24.0479 93.868 25.1279 92.8 25.9199C91.732 26.6999 90.448 27.0899 88.948 27.0899C87.724 27.0899 86.626 26.8199 85.654 26.2799C84.694 25.7279 83.944 24.9659 83.404 23.9939C82.864 23.0219 82.594 21.9119 82.594 20.6639ZM107.087 16.9559L100.787 31.7699H97.4749L99.7789 26.6579L95.6929 16.9559H99.1309L101.453 23.2379L103.757 16.9559H107.087ZM111.278 18.3779C111.566 17.9099 111.98 17.5319 112.52 17.2439C113.06 16.9559 113.678 16.8119 114.374 16.8119C115.202 16.8119 115.952 17.0219 116.624 17.4419C117.296 17.8619 117.824 18.4619 118.208 19.2419C118.604 20.0219 118.802 20.9279 118.802 21.9599C118.802 22.9919 118.604 23.9039 118.208 24.6959C117.824 25.4759 117.296 26.0819 116.624 26.5139C115.952 26.9339 115.202 27.1439 114.374 27.1439C113.666 27.1439 113.048 27.0059 112.52 26.7299C111.992 26.4419 111.578 26.0639 111.278 25.5959V26.9999H108.2V13.6799H111.278V18.3779ZM115.67 21.9599C115.67 21.1919 115.454 20.5919 115.022 20.1599C114.602 19.7159 114.08 19.4939 113.456 19.4939C112.844 19.4939 112.322 19.7159 111.89 20.1599C111.47 20.6039 111.26 21.2099 111.26 21.9779C111.26 22.7459 111.47 23.3519 111.89 23.7959C112.322 24.2399 112.844 24.4619 113.456 24.4619C114.068 24.4619 114.59 24.2399 115.022 23.7959C115.454 23.3399 115.67 22.7279 115.67 21.9599ZM129.885 21.8159C129.885 22.1039 129.867 22.4039 129.831 22.7159H122.865C122.913 23.3399 123.111 23.8199 123.459 24.1559C123.819 24.4799 124.257 24.6419 124.773 24.6419C125.541 24.6419 126.075 24.3179 126.375 23.6699H129.651C129.483 24.3299 129.177 24.9239 128.733 25.4519C128.301 25.9799 127.755 26.3939 127.095 26.6939C126.435 26.9939 125.697 27.1439 124.881 27.1439C123.897 27.1439 123.021 26.9339 122.253 26.5139C121.485 26.0939 120.885 25.4939 120.453 24.7139C120.021 23.9339 119.805 23.0219 119.805 21.9779C119.805 20.9339 120.015 20.0219 120.435 19.2419C120.867 18.4619 121.467 17.8619 122.235 17.4419C123.003 17.0219 123.885 16.8119 124.881 16.8119C125.853 16.8119 126.717 17.0159 127.473 17.4239C128.229 17.8319 128.817 18.4139 129.237 19.1699C129.669 19.9259 129.885 20.8079 129.885 21.8159ZM126.735 21.0059C126.735 20.4779 126.555 20.0579 126.195 19.7459C125.835 19.4339 125.385 19.2779 124.845 19.2779C124.329 19.2779 123.891 19.4279 123.531 19.7279C123.183 20.0279 122.967 20.4539 122.883 21.0059H126.735ZM134.587 18.6299C134.947 18.0779 135.397 17.6459 135.937 17.3339C136.477 17.0099 137.077 16.8479 137.737 16.8479V20.1059H136.891C136.123 20.1059 135.547 20.2739 135.163 20.6099C134.779 20.9339 134.587 21.5099 134.587 22.3379V26.9999H131.509V16.9559H134.587V18.6299ZM143.294 27.1439C142.418 27.1439 141.638 26.9939 140.954 26.6939C140.27 26.3939 139.73 25.9859 139.334 25.4699C138.938 24.9419 138.716 24.3539 138.668 23.7059H141.71C141.746 24.0539 141.908 24.3359 142.196 24.5519C142.484 24.7679 142.838 24.8759 143.258 24.8759C143.642 24.8759 143.936 24.8039 144.14 24.6599C144.356 24.5039 144.464 24.3059 144.464 24.0659C144.464 23.7779 144.314 23.5679 144.014 23.4359C143.714 23.2919 143.228 23.1359 142.556 22.9679C141.836 22.7999 141.236 22.6259 140.756 22.4459C140.276 22.2539 139.862 21.9599 139.514 21.5639C139.166 21.1559 138.992 20.6099 138.992 19.9259C138.992 19.3499 139.148 18.8279 139.46 18.3599C139.784 17.8799 140.252 17.5019 140.864 17.2259C141.488 16.9499 142.226 16.8119 143.078 16.8119C144.338 16.8119 145.328 17.1239 146.048 17.7479C146.78 18.3719 147.2 19.1999 147.308 20.2319H144.464C144.416 19.8839 144.26 19.6079 143.996 19.4039C143.744 19.1999 143.408 19.0979 142.988 19.0979C142.628 19.0979 142.352 19.1699 142.16 19.3139C141.968 19.4459 141.872 19.6319 141.872 19.8719C141.872 20.1599 142.022 20.3759 142.322 20.5199C142.634 20.6639 143.114 20.8079 143.762 20.9519C144.506 21.1439 145.112 21.3359 145.58 21.5279C146.048 21.7079 146.456 22.0079 146.804 22.4279C147.164 22.8359 147.35 23.3879 147.362 24.0839C147.362 24.6719 147.194 25.1999 146.858 25.6679C146.534 26.1239 146.06 26.4839 145.436 26.7479C144.824 27.0119 144.11 27.1439 143.294 27.1439ZM158.713 21.8159C158.713 22.1039 158.695 22.4039 158.659 22.7159H151.693C151.741 23.3399 151.939 23.8199 152.287 24.1559C152.647 24.4799 153.085 24.6419 153.601 24.6419C154.369 24.6419 154.903 24.3179 155.203 23.6699H158.479C158.311 24.3299 158.005 24.9239 157.561 25.4519C157.129 25.9799 156.583 26.3939 155.923 26.6939C155.263 26.9939 154.525 27.1439 153.709 27.1439C152.725 27.1439 151.849 26.9339 151.081 26.5139C150.313 26.0939 149.713 25.4939 149.281 24.7139C148.849 23.9339 148.633 23.0219 148.633 21.9779C148.633 20.9339 148.843 20.0219 149.263 19.2419C149.695 18.4619 150.295 17.8619 151.063 17.4419C151.831 17.0219 152.713 16.8119 153.709 16.8119C154.681 16.8119 155.545 17.0159 156.301 17.4239C157.057 17.8319 157.645 18.4139 158.065 19.1699C158.497 19.9259 158.713 20.8079 158.713 21.8159ZM155.563 21.0059C155.563 20.4779 155.383 20.0579 155.023 19.7459C154.663 19.4339 154.213 19.2779 153.673 19.2779C153.157 19.2779 152.719 19.4279 152.359 19.7279C152.011 20.0279 151.795 20.4539 151.711 21.0059H155.563ZM159.725 21.9779C159.725 20.9339 159.935 20.0219 160.355 19.2419C160.787 18.4619 161.381 17.8619 162.137 17.4419C162.905 17.0219 163.781 16.8119 164.765 16.8119C166.025 16.8119 167.075 17.1419 167.915 17.8019C168.767 18.4619 169.325 19.3919 169.589 20.5919H166.313C166.037 19.8239 165.503 19.4399 164.711 19.4399C164.147 19.4399 163.697 19.6619 163.361 20.1059C163.025 20.5379 162.857 21.1619 162.857 21.9779C162.857 22.7939 163.025 23.4239 163.361 23.8679C163.697 24.2999 164.147 24.5159 164.711 24.5159C165.503 24.5159 166.037 24.1319 166.313 23.3639H169.589C169.325 24.5399 168.767 25.4639 167.915 26.1359C167.063 26.8079 166.013 27.1439 164.765 27.1439C163.781 27.1439 162.905 26.9339 162.137 26.5139C161.381 26.0939 160.787 25.4939 160.355 24.7139C159.935 23.9339 159.725 23.0219 159.725 21.9779ZM181.153 16.9559V26.9999H178.075V25.6319C177.763 26.0759 177.337 26.4359 176.797 26.7119C176.269 26.9759 175.681 27.1079 175.033 27.1079C174.265 27.1079 173.587 26.9399 172.999 26.6039C172.411 26.2559 171.955 25.7579 171.631 25.1099C171.307 24.4619 171.145 23.6999 171.145 22.8239V16.9559H174.205V22.4099C174.205 23.0819 174.379 23.6039 174.727 23.9759C175.075 24.3479 175.543 24.5339 176.131 24.5339C176.731 24.5339 177.205 24.3479 177.553 23.9759C177.901 23.6039 178.075 23.0819 178.075 22.4099V16.9559H181.153ZM186.442 18.6299C186.802 18.0779 187.252 17.6459 187.792 17.3339C188.332 17.0099 188.932 16.8479 189.592 16.8479V20.1059H188.746C187.978 20.1059 187.402 20.2739 187.018 20.6099C186.634 20.9339 186.442 21.5099 186.442 22.3379V26.9999H183.364V16.9559H186.442V18.6299ZM192.611 15.9119C192.071 15.9119 191.627 15.7559 191.279 15.4439C190.943 15.1199 190.775 14.7239 190.775 14.2559C190.775 13.7759 190.943 13.3799 191.279 13.0679C191.627 12.7439 192.071 12.5819 192.611 12.5819C193.139 12.5819 193.571 12.7439 193.907 13.0679C194.255 13.3799 194.429 13.7759 194.429 14.2559C194.429 14.7239 194.255 15.1199 193.907 15.4439C193.571 15.7559 193.139 15.9119 192.611 15.9119ZM194.141 16.9559V26.9999H191.063V16.9559H194.141ZM201.97 24.3899V26.9999H200.404C199.288 26.9999 198.418 26.7299 197.794 26.1899C197.17 25.6379 196.858 24.7439 196.858 23.5079V19.5119H195.634V16.9559H196.858V14.5079H199.936V16.9559H201.952V19.5119H199.936V23.5439C199.936 23.8439 200.008 24.0599 200.152 24.1919C200.296 24.3239 200.536 24.3899 200.872 24.3899H201.97ZM213.944 16.9559L207.644 31.7699H204.332L206.636 26.6579L202.55 16.9559H205.988L208.31 23.2379L210.614 16.9559H213.944Z" fill="#414141"/>
</svg>
