<svg width="204" height="48" viewBox="0 0 204 48" fill="none" xmlns="http://www.w3.org/2000/svg">
<path d="M12.8643 6.46698C11.1204 6.46698 9.44801 7.15973 8.21491 8.39283C6.98181 9.62592 6.28906 11.2984 6.28906 13.0422V29.1151C6.28906 30.8589 6.98181 32.5314 8.21491 33.7645C9.44801 34.9976 11.1204 35.6903 12.8643 35.6903H31.8595C33.6033 35.6903 35.2758 34.9976 36.5089 33.7645C37.742 32.5314 38.4347 30.8589 38.4347 29.1151V13.0422C38.4347 11.2984 37.742 9.62592 36.5089 8.39283C35.2758 7.15973 33.6033 6.46698 31.8595 6.46698H12.8643ZM17.9784 26.9116V15.2457C17.9782 14.9809 18.0499 14.7211 18.1859 14.4939C18.3219 14.2667 18.5171 14.0808 18.7506 13.9559C18.9841 13.8311 19.2471 13.772 19.5115 13.7851C19.776 13.7981 20.0319 13.8828 20.252 14.03L29.0102 19.863C29.2109 19.9963 29.3756 20.1772 29.4895 20.3895C29.6033 20.6019 29.6629 20.8391 29.6629 21.0801C29.6629 21.3211 29.6033 21.5583 29.4895 21.7707C29.3756 21.983 29.2109 22.1639 29.0102 22.2973L20.249 28.1302C20.0288 28.2768 19.7729 28.3608 19.5086 28.3733C19.2444 28.3858 18.9817 28.3264 18.7486 28.2013C18.5155 28.0762 18.3207 27.8901 18.1851 27.663C18.0494 27.4359 17.978 27.1762 17.9784 26.9116ZM17.9784 41.535C16.844 41.5359 15.7251 41.2722 14.7105 40.7649C13.6959 40.2576 12.8136 39.5207 12.1337 38.6126H33.3206C35.452 38.6126 37.4961 37.7659 39.0032 36.2588C40.5104 34.7517 41.357 32.7076 41.357 30.5762V12.3116C43.1309 13.6442 44.2794 15.7658 44.2794 18.1563V30.5762C44.2794 33.4827 43.1248 36.2701 41.0696 38.3252C39.0145 40.3804 36.2271 41.535 33.3206 41.535H17.9784Z" fill="#332A75"/>
<path d="M87.85 17.3642C89.182 17.3642 90.346 17.6282 91.342 18.1562C92.338 18.6842 93.106 19.4282 93.646 20.3882C94.198 21.3362 94.474 22.4342 94.474 23.6822C94.474 24.9182 94.198 26.0162 93.646 26.9762C93.106 27.9362 92.332 28.6802 91.324 29.2082C90.328 29.7362 89.17 30.0002 87.85 30.0002H83.116V17.3642H87.85ZM87.652 27.3362C88.816 27.3362 89.722 27.0182 90.37 26.3822C91.018 25.7462 91.342 24.8462 91.342 23.6822C91.342 22.5182 91.018 21.6122 90.37 20.9642C89.722 20.3162 88.816 19.9922 87.652 19.9922H86.194V27.3362H87.652ZM95.5821 24.9602C95.5821 23.9282 95.7741 23.0222 96.1581 22.2422C96.5541 21.4622 97.0881 20.8622 97.7601 20.4422C98.4321 20.0222 99.1821 19.8122 100.01 19.8122C100.718 19.8122 101.336 19.9562 101.864 20.2442C102.404 20.5322 102.818 20.9102 103.106 21.3782V19.9562H106.184V30.0002H103.106V28.5782C102.806 29.0462 102.386 29.4242 101.846 29.7122C101.318 30.0002 100.7 30.1442 99.9921 30.1442C99.1761 30.1442 98.4321 29.9342 97.7601 29.5142C97.0881 29.0822 96.5541 28.4762 96.1581 27.6962C95.7741 26.9042 95.5821 25.9922 95.5821 24.9602ZM103.106 24.9782C103.106 24.2102 102.89 23.6042 102.458 23.1602C102.038 22.7162 101.522 22.4942 100.91 22.4942C100.298 22.4942 99.7761 22.7162 99.3441 23.1602C98.9241 23.5922 98.7141 24.1922 98.7141 24.9602C98.7141 25.7282 98.9241 26.3402 99.3441 26.7962C99.7761 27.2402 100.298 27.4622 100.91 27.4622C101.522 27.4622 102.038 27.2402 102.458 26.7962C102.89 26.3522 103.106 25.7462 103.106 24.9782ZM114.009 27.3902V30.0002H112.443C111.327 30.0002 110.457 29.7302 109.833 29.1902C109.209 28.6382 108.897 27.7442 108.897 26.5082V22.5122H107.673V19.9562H108.897V17.5082H111.975V19.9562H113.991V22.5122H111.975V26.5442C111.975 26.8442 112.047 27.0602 112.191 27.1922C112.335 27.3242 112.575 27.3902 112.911 27.3902H114.009ZM115.111 24.9602C115.111 23.9282 115.303 23.0222 115.687 22.2422C116.083 21.4622 116.617 20.8622 117.289 20.4422C117.961 20.0222 118.711 19.8122 119.539 19.8122C120.247 19.8122 120.865 19.9562 121.393 20.2442C121.933 20.5322 122.347 20.9102 122.635 21.3782V19.9562H125.713V30.0002H122.635V28.5782C122.335 29.0462 121.915 29.4242 121.375 29.7122C120.847 30.0002 120.229 30.1442 119.521 30.1442C118.705 30.1442 117.961 29.9342 117.289 29.5142C116.617 29.0822 116.083 28.4762 115.687 27.6962C115.303 26.9042 115.111 25.9922 115.111 24.9602ZM122.635 24.9782C122.635 24.2102 122.419 23.6042 121.987 23.1602C121.567 22.7162 121.051 22.4942 120.439 22.4942C119.827 22.4942 119.305 22.7162 118.873 23.1602C118.453 23.5922 118.243 24.1922 118.243 24.9602C118.243 25.7282 118.453 26.3402 118.873 26.7962C119.305 27.2402 119.827 27.4622 120.439 27.4622C121.051 27.4622 121.567 27.2402 121.987 26.7962C122.419 26.3522 122.635 25.7462 122.635 24.9782ZM136.327 30.1262C135.403 30.1262 134.575 29.9762 133.843 29.6762C133.111 29.3762 132.523 28.9322 132.079 28.3442C131.647 27.7562 131.419 27.0482 131.395 26.2202H134.671C134.719 26.6882 134.881 27.0482 135.157 27.3002C135.433 27.5402 135.793 27.6602 136.237 27.6602C136.693 27.6602 137.053 27.5582 137.317 27.3542C137.581 27.1382 137.713 26.8442 137.713 26.4722C137.713 26.1602 137.605 25.9022 137.389 25.6982C137.185 25.4942 136.927 25.3262 136.615 25.1942C136.315 25.0622 135.883 24.9122 135.319 24.7442C134.503 24.4922 133.837 24.2402 133.321 23.9882C132.805 23.7362 132.361 23.3642 131.989 22.8722C131.617 22.3802 131.431 21.7382 131.431 20.9462C131.431 19.7702 131.857 18.8522 132.709 18.1922C133.561 17.5202 134.671 17.1842 136.039 17.1842C137.431 17.1842 138.553 17.5202 139.405 18.1922C140.257 18.8522 140.713 19.7762 140.773 20.9642H137.443C137.419 20.5562 137.269 20.2382 136.993 20.0102C136.717 19.7702 136.363 19.6502 135.931 19.6502C135.559 19.6502 135.259 19.7522 135.031 19.9562C134.803 20.1482 134.689 20.4302 134.689 20.8022C134.689 21.2102 134.881 21.5282 135.265 21.7562C135.649 21.9842 136.249 22.2302 137.065 22.4942C137.881 22.7702 138.541 23.0342 139.045 23.2862C139.561 23.5382 140.005 23.9042 140.377 24.3842C140.749 24.8642 140.935 25.4822 140.935 26.2382C140.935 26.9582 140.749 27.6122 140.377 28.2002C140.017 28.7882 139.489 29.2562 138.793 29.6042C138.097 29.9522 137.275 30.1262 136.327 30.1262ZM142.217 24.9782C142.217 23.9342 142.427 23.0222 142.847 22.2422C143.279 21.4622 143.873 20.8622 144.629 20.4422C145.397 20.0222 146.273 19.8122 147.257 19.8122C148.517 19.8122 149.567 20.1422 150.407 20.8022C151.259 21.4622 151.817 22.3922 152.081 23.5922H148.805C148.529 22.8242 147.995 22.4402 147.203 22.4402C146.639 22.4402 146.189 22.6622 145.853 23.1062C145.517 23.5382 145.349 24.1622 145.349 24.9782C145.349 25.7942 145.517 26.4242 145.853 26.8682C146.189 27.3002 146.639 27.5162 147.203 27.5162C147.995 27.5162 148.529 27.1322 148.805 26.3642H152.081C151.817 27.5402 151.259 28.4642 150.407 29.1362C149.555 29.8082 148.505 30.1442 147.257 30.1442C146.273 30.1442 145.397 29.9342 144.629 29.5142C143.873 29.0942 143.279 28.4942 142.847 27.7142C142.427 26.9342 142.217 26.0222 142.217 24.9782ZM155.275 18.9122C154.735 18.9122 154.291 18.7562 153.943 18.4442C153.607 18.1202 153.439 17.7242 153.439 17.2562C153.439 16.7762 153.607 16.3802 153.943 16.0682C154.291 15.7442 154.735 15.5822 155.275 15.5822C155.803 15.5822 156.235 15.7442 156.571 16.0682C156.919 16.3802 157.093 16.7762 157.093 17.2562C157.093 17.7242 156.919 18.1202 156.571 18.4442C156.235 18.7562 155.803 18.9122 155.275 18.9122ZM156.805 19.9562V30.0002H153.727V19.9562H156.805ZM168.504 24.8162C168.504 25.1042 168.486 25.4042 168.45 25.7162H161.484C161.532 26.3402 161.73 26.8202 162.078 27.1562C162.438 27.4802 162.876 27.6422 163.392 27.6422C164.16 27.6422 164.694 27.3182 164.994 26.6702H168.27C168.102 27.3302 167.796 27.9242 167.352 28.4522C166.92 28.9802 166.374 29.3942 165.714 29.6942C165.054 29.9942 164.316 30.1442 163.5 30.1442C162.516 30.1442 161.64 29.9342 160.872 29.5142C160.104 29.0942 159.504 28.4942 159.072 27.7142C158.64 26.9342 158.424 26.0222 158.424 24.9782C158.424 23.9342 158.634 23.0222 159.054 22.2422C159.486 21.4622 160.086 20.8622 160.854 20.4422C161.622 20.0222 162.504 19.8122 163.5 19.8122C164.472 19.8122 165.336 20.0162 166.092 20.4242C166.848 20.8322 167.436 21.4142 167.856 22.1702C168.288 22.9262 168.504 23.8082 168.504 24.8162ZM165.354 24.0062C165.354 23.4782 165.174 23.0582 164.814 22.7462C164.454 22.4342 164.004 22.2782 163.464 22.2782C162.948 22.2782 162.51 22.4282 162.15 22.7282C161.802 23.0282 161.586 23.4542 161.502 24.0062H165.354ZM176.248 19.8482C177.424 19.8482 178.36 20.2322 179.056 21.0002C179.764 21.7562 180.118 22.8002 180.118 24.1322V30.0002H177.058V24.5462C177.058 23.8742 176.884 23.3522 176.536 22.9802C176.188 22.6082 175.72 22.4222 175.132 22.4222C174.544 22.4222 174.076 22.6082 173.728 22.9802C173.38 23.3522 173.206 23.8742 173.206 24.5462V30.0002H170.128V19.9562H173.206V21.2882C173.518 20.8442 173.938 20.4962 174.466 20.2442C174.994 19.9802 175.588 19.8482 176.248 19.8482ZM181.645 24.9782C181.645 23.9342 181.855 23.0222 182.275 22.2422C182.707 21.4622 183.301 20.8622 184.057 20.4422C184.825 20.0222 185.701 19.8122 186.685 19.8122C187.945 19.8122 188.995 20.1422 189.835 20.8022C190.687 21.4622 191.245 22.3922 191.509 23.5922H188.233C187.957 22.8242 187.423 22.4402 186.631 22.4402C186.067 22.4402 185.617 22.6622 185.281 23.1062C184.945 23.5382 184.777 24.1622 184.777 24.9782C184.777 25.7942 184.945 26.4242 185.281 26.8682C185.617 27.3002 186.067 27.5162 186.631 27.5162C187.423 27.5162 187.957 27.1322 188.233 26.3642H191.509C191.245 27.5402 190.687 28.4642 189.835 29.1362C188.983 29.8082 187.933 30.1442 186.685 30.1442C185.701 30.1442 184.825 29.9342 184.057 29.5142C183.301 29.0942 182.707 28.4942 182.275 27.7142C181.855 26.9342 181.645 26.0222 181.645 24.9782ZM202.623 24.8162C202.623 25.1042 202.605 25.4042 202.569 25.7162H195.603C195.651 26.3402 195.849 26.8202 196.197 27.1562C196.557 27.4802 196.995 27.6422 197.511 27.6422C198.279 27.6422 198.813 27.3182 199.113 26.6702H202.389C202.221 27.3302 201.915 27.9242 201.471 28.4522C201.039 28.9802 200.493 29.3942 199.833 29.6942C199.173 29.9942 198.435 30.1442 197.619 30.1442C196.635 30.1442 195.759 29.9342 194.991 29.5142C194.223 29.0942 193.623 28.4942 193.191 27.7142C192.759 26.9342 192.543 26.0222 192.543 24.9782C192.543 23.9342 192.753 23.0222 193.173 22.2422C193.605 21.4622 194.205 20.8622 194.973 20.4422C195.741 20.0222 196.623 19.8122 197.619 19.8122C198.591 19.8122 199.455 20.0162 200.211 20.4242C200.967 20.8322 201.555 21.4142 201.975 22.1702C202.407 22.9262 202.623 23.8082 202.623 24.8162ZM199.473 24.0062C199.473 23.4782 199.293 23.0582 198.933 22.7462C198.573 22.4342 198.123 22.2782 197.583 22.2782C197.067 22.2782 196.629 22.4282 196.269 22.7282C195.921 23.0282 195.705 23.4542 195.621 24.0062H199.473Z" fill="#414141"/>
</svg>
