<svg width="159" height="21" viewBox="0 0 159 21" fill="none" xmlns="http://www.w3.org/2000/svg">
<path d="M4.85 2.55858C6.182 2.55858 7.346 2.82258 8.342 3.35058C9.338 3.87858 10.106 4.62258 10.646 5.58258C11.198 6.53058 11.474 7.62858 11.474 8.87658C11.474 10.1126 11.198 11.2106 10.646 12.1706C10.106 13.1306 9.332 13.8746 8.324 14.4026C7.328 14.9306 6.17 15.1946 4.85 15.1946H0.116V2.55858H4.85ZM4.652 12.5306C5.816 12.5306 6.722 12.2126 7.37 11.5766C8.018 10.9406 8.342 10.0406 8.342 8.87658C8.342 7.71258 8.018 6.80658 7.37 6.15858C6.722 5.51058 5.816 5.18658 4.652 5.18658H3.194V12.5306H4.652ZM14.7421 4.10658C14.2021 4.10658 13.7581 3.95058 13.4101 3.63858C13.0741 3.31458 12.9061 2.91858 12.9061 2.45058C12.9061 1.97058 13.0741 1.57458 13.4101 1.26258C13.7581 0.938579 14.2021 0.776579 14.7421 0.776579C15.2701 0.776579 15.7021 0.938579 16.0381 1.26258C16.3861 1.57458 16.5601 1.97058 16.5601 2.45058C16.5601 2.91858 16.3861 3.31458 16.0381 3.63858C15.7021 3.95058 15.2701 4.10658 14.7421 4.10658ZM16.2721 5.15058V15.1946H13.1941V5.15058H16.2721ZM22.3187 5.00658C23.0267 5.00658 23.6447 5.15058 24.1727 5.43858C24.7127 5.72658 25.1267 6.10458 25.4147 6.57258V5.15058H28.4927V15.1766C28.4927 16.1006 28.3067 16.9346 27.9347 17.6786C27.5747 18.4346 27.0167 19.0346 26.2607 19.4786C25.5167 19.9226 24.5867 20.1446 23.4707 20.1446C21.9827 20.1446 20.7767 19.7906 19.8527 19.0826C18.9287 18.3866 18.4007 17.4386 18.2687 16.2386H21.3107C21.4067 16.6226 21.6347 16.9226 21.9947 17.1386C22.3547 17.3666 22.7987 17.4806 23.3267 17.4806C23.9627 17.4806 24.4667 17.2946 24.8387 16.9226C25.2227 16.5626 25.4147 15.9806 25.4147 15.1766V13.7546C25.1147 14.2226 24.7007 14.6066 24.1727 14.9066C23.6447 15.1946 23.0267 15.3386 22.3187 15.3386C21.4907 15.3386 20.7407 15.1286 20.0687 14.7086C19.3967 14.2766 18.8627 13.6706 18.4667 12.8906C18.0827 12.0986 17.8907 11.1866 17.8907 10.1546C17.8907 9.12258 18.0827 8.21658 18.4667 7.43658C18.8627 6.65658 19.3967 6.05658 20.0687 5.63658C20.7407 5.21658 21.4907 5.00658 22.3187 5.00658ZM25.4147 10.1726C25.4147 9.40458 25.1987 8.79858 24.7667 8.35458C24.3467 7.91058 23.8307 7.68858 23.2187 7.68858C22.6067 7.68858 22.0847 7.91058 21.6527 8.35458C21.2327 8.78658 21.0227 9.38658 21.0227 10.1546C21.0227 10.9226 21.2327 11.5346 21.6527 11.9906C22.0847 12.4346 22.6067 12.6566 23.2187 12.6566C23.8307 12.6566 24.3467 12.4346 24.7667 11.9906C25.1987 11.5466 25.4147 10.9406 25.4147 10.1726ZM32.2675 4.10658C31.7275 4.10658 31.2835 3.95058 30.9355 3.63858C30.5995 3.31458 30.4315 2.91858 30.4315 2.45058C30.4315 1.97058 30.5995 1.57458 30.9355 1.26258C31.2835 0.938579 31.7275 0.776579 32.2675 0.776579C32.7955 0.776579 33.2275 0.938579 33.5635 1.26258C33.9115 1.57458 34.0855 1.97058 34.0855 2.45058C34.0855 2.91858 33.9115 3.31458 33.5635 3.63858C33.2275 3.95058 32.7955 4.10658 32.2675 4.10658ZM33.7975 5.15058V15.1946H30.7195V5.15058H33.7975ZM41.6261 12.5846V15.1946H40.0601C38.9441 15.1946 38.0741 14.9246 37.4501 14.3846C36.8261 13.8326 36.5141 12.9386 36.5141 11.7026V7.70658H35.2901V5.15058H36.5141V2.70258H39.5921V5.15058H41.6081V7.70658H39.5921V11.7386C39.5921 12.0386 39.6641 12.2546 39.8081 12.3866C39.9521 12.5186 40.1921 12.5846 40.5281 12.5846H41.6261ZM42.7286 10.1546C42.7286 9.12258 42.9206 8.21658 43.3046 7.43658C43.7006 6.65658 44.2346 6.05658 44.9066 5.63658C45.5786 5.21658 46.3286 5.00658 47.1566 5.00658C47.8646 5.00658 48.4826 5.15058 49.0106 5.43858C49.5506 5.72658 49.9646 6.10458 50.2526 6.57258V5.15058H53.3306V15.1946H50.2526V13.7726C49.9526 14.2406 49.5326 14.6186 48.9926 14.9066C48.4646 15.1946 47.8466 15.3386 47.1386 15.3386C46.3226 15.3386 45.5786 15.1286 44.9066 14.7086C44.2346 14.2766 43.7006 13.6706 43.3046 12.8906C42.9206 12.0986 42.7286 11.1866 42.7286 10.1546ZM50.2526 10.1726C50.2526 9.40458 50.0366 8.79858 49.6046 8.35458C49.1846 7.91058 48.6686 7.68858 48.0566 7.68858C47.4446 7.68858 46.9226 7.91058 46.4906 8.35458C46.0706 8.78658 45.8606 9.38658 45.8606 10.1546C45.8606 10.9226 46.0706 11.5346 46.4906 11.9906C46.9226 12.4346 47.4446 12.6566 48.0566 12.6566C48.6686 12.6566 49.1846 12.4346 49.6046 11.9906C50.0366 11.5466 50.2526 10.9406 50.2526 10.1726ZM58.6354 1.87458V15.1946H55.5574V1.87458H58.6354ZM78.9905 2.55858V15.1946H75.9125V7.61658L73.0865 15.1946H70.6025L67.7585 7.59858V15.1946H64.6805V2.55858H68.3165L71.8625 11.3066L75.3725 2.55858H78.9905ZM80.5919 10.1546C80.5919 9.12258 80.7839 8.21658 81.1679 7.43658C81.5639 6.65658 82.0979 6.05658 82.7699 5.63658C83.4419 5.21658 84.1919 5.00658 85.0199 5.00658C85.7279 5.00658 86.3459 5.15058 86.8739 5.43858C87.4139 5.72658 87.8279 6.10458 88.1159 6.57258V5.15058H91.1939V15.1946H88.1159V13.7726C87.8159 14.2406 87.3959 14.6186 86.8559 14.9066C86.3279 15.1946 85.7099 15.3386 85.0019 15.3386C84.1859 15.3386 83.4419 15.1286 82.7699 14.7086C82.0979 14.2766 81.5639 13.6706 81.1679 12.8906C80.7839 12.0986 80.5919 11.1866 80.5919 10.1546ZM88.1159 10.1726C88.1159 9.40458 87.8999 8.79858 87.4679 8.35458C87.0479 7.91058 86.5319 7.68858 85.9199 7.68858C85.3079 7.68858 84.7859 7.91058 84.3539 8.35458C83.9339 8.78658 83.7239 9.38658 83.7239 10.1546C83.7239 10.9226 83.9339 11.5346 84.3539 11.9906C84.7859 12.4346 85.3079 12.6566 85.9199 12.6566C86.5319 12.6566 87.0479 12.4346 87.4679 11.9906C87.8999 11.5466 88.1159 10.9406 88.1159 10.1726ZM96.4987 6.82458C96.8587 6.27258 97.3087 5.84058 97.8487 5.52858C98.3887 5.20458 98.9887 5.04258 99.6487 5.04258V8.30058H98.8027C98.0347 8.30058 97.4587 8.46858 97.0747 8.80458C96.6907 9.12858 96.4987 9.70458 96.4987 10.5326V15.1946H93.4207V5.15058H96.4987V6.82458ZM107.258 15.1946L104.198 10.9826V15.1946H101.12V1.87458H104.198V9.23658L107.24 5.15058H111.038L106.862 10.1906L111.074 15.1946H107.258ZM121.715 10.0106C121.715 10.2986 121.697 10.5986 121.661 10.9106H114.695C114.743 11.5346 114.941 12.0146 115.289 12.3506C115.649 12.6746 116.087 12.8366 116.603 12.8366C117.371 12.8366 117.905 12.5126 118.205 11.8646H121.481C121.313 12.5246 121.007 13.1186 120.563 13.6466C120.131 14.1746 119.585 14.5886 118.925 14.8886C118.265 15.1886 117.527 15.3386 116.711 15.3386C115.727 15.3386 114.851 15.1286 114.083 14.7086C113.315 14.2886 112.715 13.6886 112.283 12.9086C111.851 12.1286 111.635 11.2166 111.635 10.1726C111.635 9.12858 111.845 8.21658 112.265 7.43658C112.697 6.65658 113.297 6.05658 114.065 5.63658C114.833 5.21658 115.715 5.00658 116.711 5.00658C117.683 5.00658 118.547 5.21058 119.303 5.61858C120.059 6.02658 120.647 6.60858 121.067 7.36458C121.499 8.12058 121.715 9.00258 121.715 10.0106ZM118.565 9.20058C118.565 8.67258 118.385 8.25258 118.025 7.94058C117.665 7.62858 117.215 7.47258 116.675 7.47258C116.159 7.47258 115.721 7.62258 115.361 7.92258C115.013 8.22258 114.797 8.64858 114.713 9.20058H118.565ZM128.937 12.5846V15.1946H127.371C126.255 15.1946 125.385 14.9246 124.761 14.3846C124.137 13.8326 123.825 12.9386 123.825 11.7026V7.70658H122.601V5.15058H123.825V2.70258H126.903V5.15058H128.919V7.70658H126.903V11.7386C126.903 12.0386 126.975 12.2546 127.119 12.3866C127.263 12.5186 127.503 12.5846 127.839 12.5846H128.937ZM132.199 4.10658C131.659 4.10658 131.215 3.95058 130.867 3.63858C130.531 3.31458 130.363 2.91858 130.363 2.45058C130.363 1.97058 130.531 1.57458 130.867 1.26258C131.215 0.938579 131.659 0.776579 132.199 0.776579C132.727 0.776579 133.159 0.938579 133.495 1.26258C133.843 1.57458 134.017 1.97058 134.017 2.45058C134.017 2.91858 133.843 3.31458 133.495 3.63858C133.159 3.95058 132.727 4.10658 132.199 4.10658ZM133.729 5.15058V15.1946H130.651V5.15058H133.729ZM142.08 5.04258C143.256 5.04258 144.192 5.42658 144.888 6.19458C145.596 6.95058 145.95 7.99458 145.95 9.32658V15.1946H142.89V9.74058C142.89 9.06858 142.716 8.54658 142.368 8.17458C142.02 7.80258 141.552 7.61658 140.964 7.61658C140.376 7.61658 139.908 7.80258 139.56 8.17458C139.212 8.54658 139.038 9.06858 139.038 9.74058V15.1946H135.96V5.15058H139.038V6.48258C139.35 6.03858 139.77 5.69058 140.298 5.43858C140.826 5.17458 141.42 5.04258 142.08 5.04258ZM151.905 5.00658C152.613 5.00658 153.231 5.15058 153.759 5.43858C154.299 5.72658 154.713 6.10458 155.001 6.57258V5.15058H158.079V15.1766C158.079 16.1006 157.893 16.9346 157.521 17.6786C157.161 18.4346 156.603 19.0346 155.847 19.4786C155.103 19.9226 154.173 20.1446 153.057 20.1446C151.569 20.1446 150.363 19.7906 149.439 19.0826C148.515 18.3866 147.987 17.4386 147.855 16.2386H150.897C150.993 16.6226 151.221 16.9226 151.581 17.1386C151.941 17.3666 152.385 17.4806 152.913 17.4806C153.549 17.4806 154.053 17.2946 154.425 16.9226C154.809 16.5626 155.001 15.9806 155.001 15.1766V13.7546C154.701 14.2226 154.287 14.6066 153.759 14.9066C153.231 15.1946 152.613 15.3386 151.905 15.3386C151.077 15.3386 150.327 15.1286 149.655 14.7086C148.983 14.2766 148.449 13.6706 148.053 12.8906C147.669 12.0986 147.477 11.1866 147.477 10.1546C147.477 9.12258 147.669 8.21658 148.053 7.43658C148.449 6.65658 148.983 6.05658 149.655 5.63658C150.327 5.21658 151.077 5.00658 151.905 5.00658ZM155.001 10.1726C155.001 9.40458 154.785 8.79858 154.353 8.35458C153.933 7.91058 153.417 7.68858 152.805 7.68858C152.193 7.68858 151.671 7.91058 151.239 8.35458C150.819 8.78658 150.609 9.38658 150.609 10.1546C150.609 10.9226 150.819 11.5346 151.239 11.9906C151.671 12.4346 152.193 12.6566 152.805 12.6566C153.417 12.6566 153.933 12.4346 154.353 11.9906C154.785 11.5466 155.001 10.9406 155.001 10.1726Z" fill="#414141"/>
</svg>
