<svg width="194" height="38" viewBox="0 0 194 38" fill="none" xmlns="http://www.w3.org/2000/svg">
<g clip-path="url(#clip0_1531_7389)">
<path d="M24.8906 16.1776L22.6989 18.1873C19.7327 20.9075 16.3574 19.058 15.2688 17.8736C13.3036 15.7243 13.457 12.398 15.5903 10.4387L21.5665 4.96307H21.0843C16.8615 4.96307 12.7995 6.64086 9.81139 9.62725L2.78318 9.64918C1.49735 9.64918 0.445312 10.7012 0.445312 11.9871V23.6695C0.445312 24.9554 1.49735 26.0118 2.71743 26.0118L11.068 26.0074L17.6798 31.989C19.6889 33.6243 22.6295 33.3129 24.255 31.3124L25.5788 32.4272C26.739 33.3118 28.4559 33.1948 29.4056 32.0347L31.6982 29.2128L32.0908 29.5417C33.0954 30.3458 34.566 30.1998 35.3784 29.1945L36.078 28.3297C36.8875 27.3281 36.734 25.8624 35.7346 25.0501L24.8906 16.1776ZM44.8648 9.64918L37.8512 9.63999C34.8572 6.64556 30.7967 4.96997 26.5637 4.96997L25.9354 4.96307C25.3509 4.96307 24.7942 5.19679 24.3558 5.58945L17.1757 12.1494C17.1684 12.164 17.1611 12.1787 17.1611 12.1787C15.9337 13.3337 15.9629 15.1468 17.0003 16.2726C17.7035 17.0402 19.5574 17.8532 21.1011 16.4736C21.1011 16.4645 21.1194 16.4645 21.1285 16.4554L26.9731 11.1113C27.448 10.6821 28.1874 10.7095 28.6257 11.1844C29.0641 11.6593 29.0275 12.3994 28.5527 12.8381L26.6444 14.5831L37.2817 23.217C38.1671 23.9474 38.7063 24.9342 38.8977 25.9935L44.8648 25.9957C46.1506 25.9957 47.2026 24.9445 47.2026 23.6578V11.9886C47.2026 10.6946 46.1579 9.64918 44.8648 9.64918Z" fill="#F2994A"/>
</g>
<path d="M86.194 15.0249V17.5809H90.316V19.9569H86.194V22.7289H90.856V25.1949H83.116V12.5589H90.856V15.0249H86.194ZM98.9743 15.0429C100.15 15.0429 101.086 15.4269 101.782 16.1949C102.49 16.9509 102.844 17.9949 102.844 19.3269V25.1949H99.7843V19.7409C99.7843 19.0689 99.6103 18.5469 99.2623 18.1749C98.9143 17.8029 98.4463 17.6169 97.8583 17.6169C97.2703 17.6169 96.8023 17.8029 96.4543 18.1749C96.1063 18.5469 95.9323 19.0689 95.9323 19.7409V25.1949H92.8543V15.1509H95.9323V16.4829C96.2443 16.0389 96.6643 15.6909 97.1923 15.4389C97.7203 15.1749 98.3143 15.0429 98.9743 15.0429ZM108.799 15.0069C109.507 15.0069 110.125 15.1509 110.653 15.4389C111.193 15.7269 111.607 16.1049 111.895 16.5729V15.1509H114.973V25.1769C114.973 26.1009 114.787 26.9349 114.415 27.6789C114.055 28.4349 113.497 29.0349 112.741 29.4789C111.997 29.9229 111.067 30.1449 109.951 30.1449C108.463 30.1449 107.257 29.7909 106.333 29.0829C105.409 28.3869 104.881 27.4389 104.749 26.2389H107.791C107.887 26.6229 108.115 26.9229 108.475 27.1389C108.835 27.3669 109.279 27.4809 109.807 27.4809C110.443 27.4809 110.947 27.2949 111.319 26.9229C111.703 26.5629 111.895 25.9809 111.895 25.1769V23.7549C111.595 24.2229 111.181 24.6069 110.653 24.9069C110.125 25.1949 109.507 25.3389 108.799 25.3389C107.971 25.3389 107.221 25.1289 106.549 24.7089C105.877 24.2769 105.343 23.6709 104.947 22.8909C104.563 22.0989 104.371 21.1869 104.371 20.1549C104.371 19.1229 104.563 18.2169 104.947 17.4369C105.343 16.6569 105.877 16.0569 106.549 15.6369C107.221 15.2169 107.971 15.0069 108.799 15.0069ZM111.895 20.1729C111.895 19.4049 111.679 18.7989 111.247 18.3549C110.827 17.9109 110.311 17.6889 109.699 17.6889C109.087 17.6889 108.565 17.9109 108.133 18.3549C107.713 18.7869 107.503 19.3869 107.503 20.1549C107.503 20.9229 107.713 21.5349 108.133 21.9909C108.565 22.4349 109.087 22.6569 109.699 22.6569C110.311 22.6569 110.827 22.4349 111.247 21.9909C111.679 21.5469 111.895 20.9409 111.895 20.1729ZM118.748 14.1069C118.208 14.1069 117.764 13.9509 117.416 13.6389C117.08 13.3149 116.912 12.9189 116.912 12.4509C116.912 11.9709 117.08 11.5749 117.416 11.2629C117.764 10.9389 118.208 10.7769 118.748 10.7769C119.276 10.7769 119.708 10.9389 120.044 11.2629C120.392 11.5749 120.566 11.9709 120.566 12.4509C120.566 12.9189 120.392 13.3149 120.044 13.6389C119.708 13.9509 119.276 14.1069 118.748 14.1069ZM120.278 15.1509V25.1949H117.2V15.1509H120.278ZM128.629 15.0429C129.805 15.0429 130.741 15.4269 131.437 16.1949C132.145 16.9509 132.499 17.9949 132.499 19.3269V25.1949H129.439V19.7409C129.439 19.0689 129.265 18.5469 128.917 18.1749C128.569 17.8029 128.101 17.6169 127.513 17.6169C126.925 17.6169 126.457 17.8029 126.109 18.1749C125.761 18.5469 125.587 19.0689 125.587 19.7409V25.1949H122.509V15.1509H125.587V16.4829C125.899 16.0389 126.319 15.6909 126.847 15.4389C127.375 15.1749 127.969 15.0429 128.629 15.0429ZM144.105 20.0109C144.105 20.2989 144.087 20.5989 144.051 20.9109H137.085C137.133 21.5349 137.331 22.0149 137.679 22.3509C138.039 22.6749 138.477 22.8369 138.993 22.8369C139.761 22.8369 140.295 22.5129 140.595 21.8649H143.871C143.703 22.5249 143.397 23.1189 142.953 23.6469C142.521 24.1749 141.975 24.5889 141.315 24.8889C140.655 25.1889 139.917 25.3389 139.101 25.3389C138.117 25.3389 137.241 25.1289 136.473 24.7089C135.705 24.2889 135.105 23.6889 134.673 22.9089C134.241 22.1289 134.025 21.2169 134.025 20.1729C134.025 19.1289 134.235 18.2169 134.655 17.4369C135.087 16.6569 135.687 16.0569 136.455 15.6369C137.223 15.2169 138.105 15.0069 139.101 15.0069C140.073 15.0069 140.937 15.2109 141.693 15.6189C142.449 16.0269 143.037 16.6089 143.457 17.3649C143.889 18.1209 144.105 19.0029 144.105 20.0109ZM140.955 19.2009C140.955 18.6729 140.775 18.2529 140.415 17.9409C140.055 17.6289 139.605 17.4729 139.065 17.4729C138.549 17.4729 138.111 17.6229 137.751 17.9229C137.403 18.2229 137.187 18.6489 137.103 19.2009H140.955ZM155.197 20.0109C155.197 20.2989 155.179 20.5989 155.143 20.9109H148.177C148.225 21.5349 148.423 22.0149 148.771 22.3509C149.131 22.6749 149.569 22.8369 150.085 22.8369C150.853 22.8369 151.387 22.5129 151.687 21.8649H154.963C154.795 22.5249 154.489 23.1189 154.045 23.6469C153.613 24.1749 153.067 24.5889 152.407 24.8889C151.747 25.1889 151.009 25.3389 150.193 25.3389C149.209 25.3389 148.333 25.1289 147.565 24.7089C146.797 24.2889 146.197 23.6889 145.765 22.9089C145.333 22.1289 145.117 21.2169 145.117 20.1729C145.117 19.1289 145.327 18.2169 145.747 17.4369C146.179 16.6569 146.779 16.0569 147.547 15.6369C148.315 15.2169 149.197 15.0069 150.193 15.0069C151.165 15.0069 152.029 15.2109 152.785 15.6189C153.541 16.0269 154.129 16.6089 154.549 17.3649C154.981 18.1209 155.197 19.0029 155.197 20.0109ZM152.047 19.2009C152.047 18.6729 151.867 18.2529 151.507 17.9409C151.147 17.6289 150.697 17.4729 150.157 17.4729C149.641 17.4729 149.203 17.6229 148.843 17.9229C148.495 18.2229 148.279 18.6489 148.195 19.2009H152.047ZM159.899 16.8249C160.259 16.2729 160.709 15.8409 161.249 15.5289C161.789 15.2049 162.389 15.0429 163.049 15.0429V18.3009H162.203C161.435 18.3009 160.859 18.4689 160.475 18.8049C160.091 19.1289 159.899 19.7049 159.899 20.5329V25.1949H156.821V15.1509H159.899V16.8249ZM166.068 14.1069C165.528 14.1069 165.084 13.9509 164.736 13.6389C164.4 13.3149 164.232 12.9189 164.232 12.4509C164.232 11.9709 164.4 11.5749 164.736 11.2629C165.084 10.9389 165.528 10.7769 166.068 10.7769C166.596 10.7769 167.028 10.9389 167.364 11.2629C167.712 11.5749 167.886 11.9709 167.886 12.4509C167.886 12.9189 167.712 13.3149 167.364 13.6389C167.028 13.9509 166.596 14.1069 166.068 14.1069ZM167.598 15.1509V25.1949H164.52V15.1509H167.598ZM175.949 15.0429C177.125 15.0429 178.061 15.4269 178.757 16.1949C179.465 16.9509 179.819 17.9949 179.819 19.3269V25.1949H176.759V19.7409C176.759 19.0689 176.585 18.5469 176.237 18.1749C175.889 17.8029 175.421 17.6169 174.833 17.6169C174.245 17.6169 173.777 17.8029 173.429 18.1749C173.081 18.5469 172.907 19.0689 172.907 19.7409V25.1949H169.829V15.1509H172.907V16.4829C173.219 16.0389 173.639 15.6909 174.167 15.4389C174.695 15.1749 175.289 15.0429 175.949 15.0429ZM185.774 15.0069C186.482 15.0069 187.1 15.1509 187.628 15.4389C188.168 15.7269 188.582 16.1049 188.87 16.5729V15.1509H191.948V25.1769C191.948 26.1009 191.762 26.9349 191.39 27.6789C191.03 28.4349 190.472 29.0349 189.716 29.4789C188.972 29.9229 188.042 30.1449 186.926 30.1449C185.438 30.1449 184.232 29.7909 183.308 29.0829C182.384 28.3869 181.856 27.4389 181.724 26.2389H184.766C184.862 26.6229 185.09 26.9229 185.45 27.1389C185.81 27.3669 186.254 27.4809 186.782 27.4809C187.418 27.4809 187.922 27.2949 188.294 26.9229C188.678 26.5629 188.87 25.9809 188.87 25.1769V23.7549C188.57 24.2229 188.156 24.6069 187.628 24.9069C187.1 25.1949 186.482 25.3389 185.774 25.3389C184.946 25.3389 184.196 25.1289 183.524 24.7089C182.852 24.2769 182.318 23.6709 181.922 22.8909C181.538 22.0989 181.346 21.1869 181.346 20.1549C181.346 19.1229 181.538 18.2169 181.922 17.4369C182.318 16.6569 182.852 16.0569 183.524 15.6369C184.196 15.2169 184.946 15.0069 185.774 15.0069ZM188.87 20.1729C188.87 19.4049 188.654 18.7989 188.222 18.3549C187.802 17.9109 187.286 17.6889 186.674 17.6889C186.062 17.6889 185.54 17.9109 185.108 18.3549C184.688 18.7869 184.478 19.3869 184.478 20.1549C184.478 20.9229 184.688 21.5349 185.108 21.9909C185.54 22.4349 186.062 22.6569 186.674 22.6569C187.286 22.6569 187.802 22.4349 188.222 21.9909C188.654 21.5469 188.87 20.9409 188.87 20.1729Z" fill="#414141"/>
<defs>
<clipPath id="clip0_1531_7389">
<rect width="46.7573" height="37.4304" fill="white" transform="translate(0.445312 0.28479)"/>
</clipPath>
</defs>
</svg>
