<svg width="1440" height="544" viewBox="0 0 1440 544" fill="none" xmlns="http://www.w3.org/2000/svg">
<path opacity="0.2" fill-rule="evenodd" clip-rule="evenodd" d="M1812.97 52.3177C1730.46 19.0406 1516.23 -32.4408 1319.25 27.8428C1257.66 46.6942 1233.88 74.1184 1227.57 104.878C1224.42 120.23 1225.63 136.371 1228.6 152.619C1230.75 164.348 1233.82 176.159 1236.84 187.776L1236.84 187.783C1238.01 192.248 1239.16 196.684 1240.25 201.076C1248.13 232.791 1252.72 262.181 1233.78 284.223C1224.31 295.251 1208.91 304.484 1184.96 311.229C1161.01 317.973 1128.54 322.221 1084.98 323.299C953.781 326.549 863.83 298.139 787.691 274.091C762.706 266.2 739.209 258.779 716.229 253.1C669.726 241.608 625.359 237.264 575.144 250.666C524.939 264.066 468.927 295.195 399.105 354.576C329.367 413.885 271.083 431.571 219.002 426.168C166.896 420.761 120.916 392.238 75.7985 358.935C64.8889 350.883 54.0286 342.549 43.1451 334.198C9.04865 308.036 -25.2767 281.698 -62.067 263.257C-110.633 238.914 -163.542 228.304 -226 249.933L-225.73 250.712C-163.53 229.171 -110.853 239.726 -62.4363 263.994C-25.7231 282.396 8.51369 308.666 42.5956 334.816L42.5959 334.817L42.5974 334.818C53.4918 343.177 64.3704 351.524 75.3091 359.598C120.438 392.909 166.573 421.556 218.917 426.987C271.285 432.421 329.786 414.612 399.639 355.204C469.409 295.867 525.313 264.819 575.357 251.463C625.392 238.108 669.608 242.428 716.031 253.9C738.948 259.564 762.406 266.973 787.365 274.856C863.521 298.909 953.649 327.376 1085 324.123C1128.6 323.044 1161.14 318.792 1185.18 312.022C1209.22 305.251 1224.79 295.954 1234.41 284.76C1253.66 262.357 1248.92 232.539 1241.05 200.877C1239.95 196.466 1238.8 192.018 1237.64 187.547L1237.63 187.546L1237.63 187.542C1234.61 175.934 1231.55 164.169 1229.41 152.47C1226.45 136.271 1225.25 120.248 1228.37 105.044C1234.6 74.6911 1258.06 47.4333 1319.49 28.6309C1516.23 -31.5778 1730.25 19.8453 1812.66 53.082L1812.97 52.3177ZM1345.22 66.2158C1542.2 5.93219 1756.43 57.4136 1838.93 90.6907L1838.63 91.455C1756.22 58.2183 1542.2 6.79525 1345.46 67.0039C1284.03 85.8063 1260.57 113.064 1254.34 143.417C1251.22 158.621 1252.42 174.644 1255.38 190.843C1257.52 202.544 1260.58 214.311 1263.6 225.92L1263.6 225.921L1263.6 225.923C1264.77 230.393 1265.92 234.84 1267.02 239.25C1274.89 270.912 1279.63 300.73 1260.38 323.133C1250.76 334.327 1235.19 343.624 1211.15 350.395C1187.11 357.165 1154.57 361.417 1110.97 362.496C979.618 365.749 889.49 337.282 813.334 313.229C788.375 305.346 764.917 297.937 742 292.273C695.577 280.801 651.361 276.481 601.326 289.836C551.282 303.192 495.378 334.24 425.608 393.577C355.755 452.984 297.254 470.794 244.885 465.36C192.542 459.929 146.407 431.282 101.278 397.971C90.3387 389.897 79.4595 381.549 68.5645 373.19L68.5641 373.189L68.5633 373.189C34.4817 347.038 0.245392 320.769 -36.4674 302.367C-84.8846 278.099 -137.561 267.544 -199.761 289.085L-200.031 288.306C-137.574 266.677 -84.6642 277.287 -36.0981 301.63C0.692032 320.071 35.0173 346.409 69.1136 372.571L69.1142 372.572C79.9977 380.923 90.8578 389.256 101.767 397.308C146.885 430.611 192.865 459.134 244.97 464.541C297.051 469.944 355.336 452.258 425.074 392.949C494.895 333.568 550.907 302.439 601.113 289.039C651.328 275.637 695.695 279.981 742.198 291.473C765.177 297.152 788.675 304.573 813.66 312.465C889.799 336.512 979.75 364.922 1110.95 361.673C1154.51 360.594 1186.98 356.346 1210.93 349.602C1234.88 342.857 1250.28 333.624 1259.75 322.596C1278.69 300.554 1274.1 271.164 1266.22 239.449C1265.13 235.065 1263.98 230.637 1262.82 226.181L1262.81 226.156L1262.81 226.155L1262.81 226.153C1259.79 214.534 1256.72 202.723 1254.57 190.992C1251.6 174.745 1250.39 158.603 1253.54 143.251C1259.85 112.491 1283.62 85.0672 1345.22 66.2158ZM1397.16 142.963C1594.14 82.679 1808.37 134.16 1890.88 167.437L1890.57 168.202C1808.16 134.965 1594.14 83.5421 1397.4 143.751C1335.97 162.553 1312.51 189.811 1306.28 220.164C1303.16 235.368 1304.36 251.39 1307.32 267.59C1309.46 279.29 1312.53 291.058 1315.54 302.667L1315.55 302.669C1316.71 307.139 1317.86 311.586 1318.96 315.997C1326.83 347.659 1331.57 377.477 1312.32 399.88C1302.7 411.074 1287.13 420.371 1263.09 427.142C1239.05 433.912 1206.51 438.164 1162.91 439.243C1031.56 442.496 941.431 414.029 865.275 389.976C840.316 382.093 816.858 374.683 793.941 369.02C747.518 357.548 703.302 353.228 653.267 366.582C603.223 379.939 547.319 410.987 477.549 470.323C407.696 529.731 349.195 547.541 296.826 542.107C244.483 536.676 198.348 508.029 153.219 474.718C142.28 466.644 131.4 458.296 120.505 449.936C86.4235 423.785 52.1868 397.516 15.4735 379.114C-32.9436 354.846 -85.6201 344.291 -147.82 365.832L-148.09 365.053C-85.6326 343.423 -32.7232 354.034 15.8428 378.377C52.6331 396.818 86.9585 423.156 121.055 449.318L121.055 449.318C131.939 457.669 142.799 466.002 153.708 474.055C198.826 507.358 244.806 535.881 296.911 541.287C348.992 546.691 407.277 529.005 477.015 469.696C546.836 410.315 602.848 379.186 653.054 365.786C703.269 352.384 747.636 356.728 794.139 368.22C817.118 373.899 840.616 381.32 865.601 389.211C941.74 413.259 1031.69 441.668 1162.89 438.419C1206.45 437.341 1238.92 433.093 1262.87 426.348C1286.82 419.604 1302.22 410.371 1311.69 399.342C1330.63 377.301 1326.04 347.91 1318.16 316.196C1317.07 311.812 1315.92 307.385 1314.76 302.929L1314.75 302.903L1314.75 302.902L1314.75 302.899C1311.73 291.281 1308.66 279.469 1306.51 267.739C1303.54 251.491 1302.33 235.35 1305.48 219.998C1311.79 189.238 1335.57 161.814 1397.16 142.963Z" fill="url(#paint0_linear_1558_6299)"/>
<defs>
<linearGradient id="paint0_linear_1558_6299" x1="-1085.5" y1="405.217" x2="1872.76" y2="405.217" gradientUnits="userSpaceOnUse">
<stop stop-color="#0071CD" stop-opacity="0.23"/>
<stop offset="0.625684" stop-color="#42D18F"/>
<stop offset="0.851637" stop-color="#1DC276"/>
</linearGradient>
</defs>
</svg>
