<svg width="101" height="54" viewBox="0 0 101 54" fill="none" xmlns="http://www.w3.org/2000/svg">
<path d="M79.7699 30.1598V52.9531H74.3168V30.1598L53.3984 0.760498H59.2983L77.2284 25.3168L95.1584 0.760498H100.688L79.7699 30.1598Z" fill="black"/>
<path d="M7.70312 0.697266H17.7364V4.03508H11.3827V10.202H16.4308V13.5398H11.3827V20.7102H17.7364V24.048H7.70312V0.697266Z" fill="black"/>
<path d="M19.8438 0.697266H24.4589L28.0338 14.6757H28.1036V0.697266H31.3782V24.048H27.6009L23.1882 7.00358H23.1184V24.048H19.8438V0.697266Z" fill="black"/>
<path d="M33.2812 24.048V20.7102C33.6745 20.804 34.0779 20.8484 34.4822 20.8426C35.2153 20.8426 35.7669 20.6614 36.123 20.2921C36.4791 19.9228 36.6536 19.3653 36.6536 18.6128V0.697266H40.3332V18.5082C40.3332 20.4268 39.8933 21.8507 39.0136 22.7798C38.1338 23.7136 36.7863 24.1804 34.9849 24.1804C34.4141 24.1896 33.8437 24.1453 33.2812 24.048Z" fill="black"/>
<path d="M44.1492 22.8493C43.1857 21.8249 42.7109 20.3755 42.7109 18.508V6.23683C42.7109 4.36235 43.1857 2.91992 44.1492 1.89558C45.1128 0.871235 46.4883 0.362549 48.2896 0.362549C50.091 0.362549 51.4805 0.871235 52.437 1.89558C53.3936 2.91992 53.8753 4.36235 53.8753 6.23683V18.508C53.8753 20.3755 53.3959 21.8226 52.437 22.8493C51.4805 23.8666 50.098 24.3823 48.2896 24.3823C46.4813 24.3823 45.1058 23.8666 44.1492 22.8493ZM50.1958 18.7449V5.9999C50.1958 4.46688 49.5604 3.70036 48.2896 3.70036C47.0189 3.70036 46.3835 4.46688 46.3835 5.9999V18.7449C46.3835 20.278 47.0189 21.0445 48.2896 21.0445C49.5604 21.0445 50.1958 20.278 50.1958 18.7449Z" fill="black"/>
<path d="M0.3125 29.6013H5.56304L7.90205 46.3113H7.97187L10.3109 29.6013H15.5544V52.9521H12.0773V35.2735H12.0145L9.34036 52.9521H6.26824L3.58711 35.2735H3.52427V52.9521H0.3125V29.6013Z" fill="black"/>
<path d="M19.4626 51.7543C18.5037 50.7323 18.0266 49.2852 18.0313 47.413V35.1419C18.0313 33.2674 18.5061 31.8249 19.4626 30.8006C20.4192 29.7763 21.8086 29.2676 23.61 29.2676C25.4114 29.2676 26.8008 29.7763 27.7574 30.8006C28.7139 31.8249 29.1957 33.2674 29.1957 35.1419V47.413C29.1957 49.2805 28.7162 50.7276 27.7574 51.7543C26.8008 52.7717 25.4184 53.2873 23.61 53.2873C21.8016 53.2873 20.4261 52.7717 19.4626 51.7543ZM25.5161 47.65V34.9049C25.5161 33.3719 24.8807 32.6054 23.61 32.6054C22.3392 32.6054 21.7039 33.3719 21.7039 34.9049V47.65C21.7039 49.183 22.3392 49.9495 23.61 49.9495C24.8807 49.9495 25.5161 49.183 25.5161 47.65Z" fill="black"/>
<path d="M31.6719 29.6013H36.287L39.8619 43.5797H39.9247V29.6013H43.2063V52.9521H39.429L35.0163 35.9076H34.9465V52.9521H31.6719V29.6013Z" fill="black"/>
<path d="M45.9375 29.6013H51.5511C53.3804 29.6013 54.7512 30.0891 55.6636 31.0647C56.5759 32.0402 57.0321 33.4757 57.0321 35.3711V47.1823C57.0321 49.0684 56.5759 50.5016 55.6636 51.4818C54.7512 52.462 53.3804 52.9521 51.5511 52.9521H45.9375V29.6013ZM51.4883 49.6143C52.0887 49.6143 52.5496 49.4401 52.8707 49.0847C53.1919 48.7293 53.3595 48.1509 53.3595 47.3496V35.2038C53.3595 34.4025 53.1989 33.8241 52.8707 33.4687C52.5426 33.1133 52.0887 32.9391 51.4883 32.9391H49.6171V49.6143H51.4883Z" fill="black"/>
<path d="M62.2888 29.6013H67.267L71.0793 52.9521H67.3997L66.7364 48.3182V48.3809H62.5541L61.8908 52.9521H58.4766L62.2888 29.6013ZM66.2965 45.2103L64.6627 33.6708H64.5929L62.994 45.2103H66.2965Z" fill="black"/>
<path d="M84.7279 51.7682C83.8155 50.7601 83.3594 49.3084 83.3594 47.413V46.0821H86.8365V47.6848C86.8365 49.1969 87.4718 49.9495 88.7426 49.9495C89.364 49.9495 89.8388 49.7683 90.1599 49.399C90.4811 49.0297 90.6487 48.4374 90.6487 47.6151C90.6487 46.6396 90.4253 45.7755 89.9784 45.0299C89.5316 44.2843 88.7077 43.3923 87.5067 42.3471C85.994 41.0092 84.935 39.8013 84.3299 38.7236C83.7294 37.6435 83.4292 36.431 83.4292 35.0722C83.4292 33.2279 83.897 31.7994 84.8326 30.7867C85.7682 29.7763 87.1227 29.2676 88.9101 29.2676C90.6976 29.2676 92.0032 29.7763 92.9039 30.7867C93.8046 31.7971 94.2584 33.2465 94.2584 35.1419V36.1035H90.7814V34.9049C90.7814 34.1036 90.6208 33.5182 90.3136 33.1559C90.0063 32.7935 89.5455 32.6054 88.9381 32.6054C87.7162 32.6054 87.1018 33.351 87.1018 34.8352C87.1 35.6738 87.3373 36.4955 87.786 37.2045C88.2469 37.9431 89.0777 38.8281 90.2786 39.8733C91.8147 41.2112 92.8737 42.4237 93.4555 43.5108C94.035 44.6048 94.3213 45.88 94.3213 47.3503C94.3213 49.2596 93.8488 50.7276 92.9039 51.7543C91.9544 52.7717 90.5789 53.2873 88.7775 53.2873C86.9761 53.2873 85.6425 52.7786 84.7279 51.7682Z" fill="black"/>
<path d="M77.0366 12.1388C79.624 12.1388 81.7216 10.0454 81.7216 7.46308C81.7216 4.88075 79.624 2.78735 77.0366 2.78735C74.4491 2.78735 72.3516 4.88075 72.3516 7.46308C72.3516 10.0454 74.4491 12.1388 77.0366 12.1388Z" fill="#F9B400"/>
</svg>
