<svg width="171" height="211" viewBox="0 0 171 211" fill="none" xmlns="http://www.w3.org/2000/svg">
<g clip-path="url(#clip0_1773_5134)">
<rect x="2" y="2" width="166.55" height="321.35" rx="17.31" fill="white"/>
<g opacity="0.8">
<path fill-rule="evenodd" clip-rule="evenodd" d="M20.1352 19.71L20.4023 19.4777L20.8541 19.0848V16.4482C20.8541 16.1029 20.5322 15.823 20.1352 15.823C19.7382 15.823 19.4163 16.1029 19.4163 16.4482V19.0848L19.8681 19.4777L20.1352 19.71ZM20.1352 22.9493L19.8681 23.1816L19.4163 23.5745V26.2111C19.4163 26.5563 19.7382 26.8363 20.1352 26.8363C20.5322 26.8363 20.8541 26.5563 20.8541 26.2111V23.5745L20.4023 23.1816L20.1352 22.9493ZM22.0204 21.0264L22.4129 20.574H25.0461C25.3909 20.574 25.6704 20.8963 25.6704 21.2938C25.6704 21.6913 25.3909 22.0136 25.0461 22.0136H22.4129L22.0204 21.5613L21.7886 21.2938L22.0204 21.0264ZM18.5537 21.2938L18.3217 21.0264L17.9294 20.574H15.2962C14.9514 20.574 14.6719 20.8963 14.6719 21.2938C14.6719 21.6913 14.9514 22.0136 15.2962 22.0136H17.9294L18.3217 21.5613L18.5537 21.2938ZM18.9595 21.6537L19.848 22.5434L19.6146 22.7772L17.1825 25.2125C17.0597 25.3354 16.899 25.3967 16.7382 25.3967C16.6578 25.3967 16.5775 25.3813 16.5018 25.3506C16.4262 25.32 16.3554 25.2738 16.2939 25.2125C16.0486 24.9668 16.0486 24.5684 16.2939 24.3228L18.7261 21.8875L18.9595 21.6537ZM20.4949 20.1159L21.3834 21.0056L21.6169 20.7719L24.049 18.3366C24.2943 18.0909 24.2943 17.6927 24.049 17.4469C23.9876 17.3855 23.9168 17.3394 23.8411 17.3088C23.7656 17.278 23.6852 17.2626 23.6047 17.2626C23.4439 17.2626 23.2832 17.324 23.1605 17.4469L20.7284 19.8822L20.4949 20.1159ZM20.0271 20.3112L20.9003 21.1855L21.5177 21.8037L23.9078 24.197C24.149 24.4385 24.149 24.83 23.9078 25.0714C23.7873 25.1921 23.6292 25.2524 23.4712 25.2524C23.3133 25.2524 23.1552 25.1921 23.0346 25.0714L20.6445 22.6781L20.0271 22.0598L19.1539 21.1855L18.5365 20.5673L16.1464 18.174C15.9052 17.9325 15.9052 17.5411 16.1464 17.2997C16.1765 17.2694 16.209 17.2431 16.2433 17.2204C16.3118 17.1752 16.3872 17.145 16.465 17.1299C16.504 17.1223 16.5435 17.1186 16.583 17.1186C16.7409 17.1186 16.899 17.1789 17.0196 17.2997L19.4097 19.6929L20.0271 20.3112Z" fill="#212121"/>
</g>
<rect x="145.875" y="18.9678" width="10.6058" height="1.17997" rx="0.589986" fill="#21213E"/>
<rect x="145.875" y="22.5071" width="10.6058" height="1.17997" rx="0.589986" fill="#21213E"/>
<path fill-rule="evenodd" clip-rule="evenodd" d="M146.263 34.2393C158.903 24.6515 168.815 12.5815 175.202 -1H177C175.797 1.62934 174.459 4.20308 172.988 6.72122C164.137 21.8873 150.598 34.8819 134.156 43.872C133.24 44.3724 132.404 43.1002 133.315 42.6015C137.87 40.1137 142.199 37.3179 146.263 34.2393ZM2 89.709C5.60839 87.2124 9.41948 84.9526 13.4026 82.9476C14.3371 82.4767 15.177 83.7488 14.2444 84.2181C9.94571 86.3827 5.85109 88.8483 2 91.591V89.709ZM146.086 24.4218C154.202 16.9397 160.902 8.35646 165.931 -1H164.086C159.719 6.97135 154.113 14.3665 147.429 20.9716C138.741 29.589 128.341 36.7347 116.742 42.057C103.124 48.2673 88.1482 51.7764 73.093 54.0133C65.4134 55.1546 57.6837 55.9166 49.9466 56.6655C42.0371 57.4291 34.0998 58.2614 26.3682 59.9783C17.6726 61.9111 8.98804 65.1683 2 70.2063V72.1521C8.05358 67.4952 15.6127 64.2657 23.2719 62.2545C30.9923 60.2285 38.9927 59.2327 46.9764 58.4282C48.5366 58.2713 50.0971 58.1181 51.6574 57.9649L51.6599 57.9647L51.6602 57.9647C57.8535 57.3568 64.0446 56.7491 70.2062 55.9066C85.3096 53.8447 100.329 50.6038 114.189 44.8088C126.143 39.7874 136.954 32.8778 146.086 24.4218ZM109.262 34.4502C96.8364 39.0728 83.5593 41.7447 70.1524 42.8582C64.4399 43.3337 58.6946 43.5167 52.9493 43.6998C43.857 43.9894 34.7648 44.279 25.8027 45.7279C17.4742 47.0737 9.14564 49.4659 2 53.4819V51.7322C9.97627 47.4448 19.2597 45.0673 28.4448 43.8557C36.5226 42.7906 44.6699 42.5196 52.8187 42.2485C59.4198 42.0289 66.0219 41.8093 72.5887 41.1675C86.0011 39.8561 99.3097 36.9079 111.6 31.9484C123.048 27.3291 133.542 20.9471 142.169 12.8367C146.65 8.63821 150.564 3.99487 153.831 -1H155.746C151.712 5.32155 146.68 11.1056 140.8 16.179C131.756 24.0261 120.932 30.1089 109.262 34.4502Z" fill="#0D3EF8" fill-opacity="0.18"/>
<rect x="37.5" y="39.4697" width="95.9505" height="19.7316" rx="9.86578" fill="#D8E3FF" stroke="#BFCDF4"/>
<path d="M52.5828 44.047C53.4367 44.047 54.1817 44.2126 54.8177 44.5437C55.4625 44.8748 55.9592 45.3628 56.3077 46.0075C56.665 46.6523 56.8436 47.4409 56.8436 48.3732C56.8436 48.9657 56.739 49.58 56.5299 50.2161C56.3208 50.8434 56.0158 51.4011 55.615 51.889C55.1968 52.2811 54.7175 52.5992 54.1773 52.8432C53.6371 53.0784 53.062 53.1961 52.4521 53.1961C51.6069 53.1961 50.8619 53.0305 50.2171 52.6994C49.581 52.3683 49.0844 51.8803 48.7271 51.2355C48.3786 50.5908 48.2043 49.8022 48.2043 48.8699C48.2043 48.2861 48.3132 47.6761 48.5311 47.0401C48.7489 46.404 49.0582 45.842 49.459 45.354C49.8686 44.9619 50.3391 44.6483 50.8706 44.413C51.4108 44.169 51.9815 44.047 52.5828 44.047ZM50.5308 47.955C50.5308 48.9657 50.6615 49.7804 50.9229 50.3991C51.1843 51.0177 51.5807 51.4752 52.1122 51.7714C52.6438 52.059 53.3321 52.2245 54.1773 52.2681C54.2819 51.8324 54.3646 51.3227 54.4256 50.7389C54.4953 50.1464 54.5302 49.6628 54.5302 49.2881C54.5302 48.2687 54.3951 47.4496 54.125 46.831C53.8636 46.2036 53.4628 45.7418 52.9226 45.4455C52.3824 45.1493 51.694 44.9837 50.8575 44.9489C50.7617 45.402 50.6833 45.9291 50.6223 46.5303C50.5613 47.1316 50.5308 47.6064 50.5308 47.955ZM61.1173 46.9224C61.6227 46.9224 62.067 47.0401 62.4504 47.2753C62.8425 47.5019 63.1431 47.8199 63.3523 48.2294C63.5701 48.6303 63.679 49.0877 63.679 49.6018C63.679 50.0462 63.6049 50.5211 63.4568 51.0264C63.3174 51.5231 63.1431 51.9065 62.934 52.1766C62.7685 52.4118 62.4678 52.6428 62.0322 52.8693C61.5965 53.0871 61.2306 53.1961 60.9343 53.1961C60.7165 53.1961 60.3636 53.1568 59.8756 53.0784L59.9018 55.8493L60.9082 55.8885V56.2675H57.4446V55.8885L57.9282 55.8493L57.9935 47.8766L57.4969 47.9942L57.3662 47.6021L59.392 46.9617L59.8103 48.4516L61.1173 46.9224ZM61.4832 52.2027C61.7011 51.7061 61.81 51.1005 61.81 50.386C61.81 49.9852 61.7446 49.6366 61.6139 49.3404C61.4832 49.0441 61.309 48.8176 61.0911 48.6608C60.882 48.5039 60.6555 48.4255 60.4115 48.4255L59.8364 49.0006L59.8626 51.6538C60.4376 51.9239 60.9779 52.1069 61.4832 52.2027ZM67.7927 46.9224C68.2981 46.9224 68.7424 47.0401 69.1258 47.2753C69.5179 47.5019 69.8185 47.8199 70.0277 48.2294C70.2455 48.6303 70.3544 49.0877 70.3544 49.6018C70.3544 50.0462 70.2803 50.5211 70.1322 51.0264C69.9928 51.5231 69.8185 51.9065 69.6094 52.1766C69.4439 52.4118 69.1433 52.6428 68.7076 52.8693C68.2719 53.0871 67.906 53.1961 67.6097 53.1961C67.3919 53.1961 67.039 53.1568 66.551 53.0784L66.5772 55.8493L67.5836 55.8885V56.2675H64.12V55.8885L64.6036 55.8493L64.669 47.8766L64.1723 47.9942L64.0416 47.6021L66.0674 46.9617L66.4857 48.4516L67.7927 46.9224ZM68.1586 52.2027C68.3765 51.7061 68.4854 51.1005 68.4854 50.386C68.4854 49.9852 68.42 49.6366 68.2893 49.3404C68.1586 49.0441 67.9844 48.8176 67.7665 48.6608C67.5574 48.5039 67.3309 48.4255 67.0869 48.4255L66.5118 49.0006L66.538 51.6538C67.113 51.9239 67.6533 52.1069 68.1586 52.2027ZM73.7885 46.9224C74.6598 46.9224 75.3612 47.1795 75.8927 47.6936C76.4242 48.2077 76.69 48.9396 76.69 49.8893C76.69 50.2989 76.6159 50.7215 76.4678 51.1571C76.3284 51.5928 76.1193 51.9762 75.8404 52.3073C75.5616 52.5774 75.2349 52.7952 74.8602 52.9608C74.4942 53.1176 74.1065 53.1961 73.697 53.1961C72.8256 53.1961 72.1242 52.939 71.5927 52.4249C71.0612 51.9108 70.7954 51.1789 70.7954 50.2292C70.7954 49.8283 70.8695 49.4101 71.0176 48.9744C71.1657 48.5388 71.3792 48.1554 71.658 47.8243C71.9369 47.5542 72.2593 47.3363 72.6252 47.1708C72.9999 47.0052 73.3876 46.9224 73.7885 46.9224ZM72.6775 49.6018C72.6775 50.4296 72.8387 51.0482 73.1611 51.4577C73.4922 51.8673 73.9758 52.1112 74.6119 52.1897C74.6729 51.9283 74.7208 51.6364 74.7556 51.314C74.7905 50.9916 74.8079 50.7258 74.8079 50.5167C74.8079 49.6802 74.6424 49.0616 74.3113 48.6608C73.9889 48.2512 73.514 48.0073 72.8866 47.9288C72.8256 48.1989 72.7733 48.4952 72.7298 48.8176C72.6949 49.14 72.6775 49.4014 72.6775 49.6018ZM79.4946 48.9091L79.4424 52.5818L80.6056 52.621V53H77.1159V52.621L77.5995 52.5818L77.5603 47.9027L77.0636 48.0203L76.9329 47.6282L78.998 46.9878L79.4424 48.3863C79.7299 47.8025 80.0436 47.3494 80.3834 47.027C80.5751 46.9573 80.806 46.9224 81.0761 46.9224C81.4421 46.9224 81.7862 46.9878 82.1086 47.1185L81.6904 48.8176C81.4377 48.7653 81.1153 48.7174 80.7232 48.6738C80.3311 48.6303 80.0087 48.5998 79.756 48.5823L79.4946 48.9091ZM86.2597 51.9675L84.6652 53.1176C84.0204 53.1176 83.5498 52.9608 83.2536 52.6471C82.9661 52.3247 82.8223 51.8106 82.8223 51.1048V47.6282H81.9466V47.21C82.3126 47.0096 82.709 46.7264 83.136 46.3604C83.5716 45.9858 83.9681 45.5937 84.3253 45.1841L84.7566 45.3148L84.6913 47.1185H86.2205V47.6674L84.6652 47.6413V50.6474C84.6652 51.0656 84.7436 51.3706 84.9004 51.5623C85.066 51.754 85.2838 51.8498 85.5539 51.8498L86.0375 51.5754L86.2597 51.9675ZM93.1592 52.1243L91.3425 53.1568C91.0637 53.0087 90.8589 52.8083 90.7282 52.5556C90.5975 52.2942 90.5322 51.9631 90.5322 51.5623L89.4081 53.1961C88.5891 53.1961 87.9835 53 87.5914 52.6079C87.1993 52.2071 87.0033 51.5928 87.0033 50.765V47.5367L86.5197 47.4975V47.1185H88.8461V50.2422C88.8461 50.6343 88.9463 50.9393 89.1467 51.1571C89.3559 51.3662 89.6303 51.4752 89.9702 51.4839L90.5322 50.9611V47.5367L90.0616 47.4975V47.1185H92.375V50.8042C92.375 51.1266 92.3925 51.3662 92.4273 51.5231C92.4709 51.6799 92.5362 51.815 92.6234 51.9283L93.0155 51.7322L93.1592 52.1243ZM99.6641 52.621V53H96.8671V52.621L97.3507 52.5818V49.824C97.3507 49.4406 97.2418 49.1443 97.024 48.9352C96.8149 48.7261 96.523 48.6172 96.1483 48.6085L95.73 49.0398L95.6778 52.5818L96.1614 52.621V53H93.3513V52.621L93.8349 52.5818L93.7957 47.9027L93.299 48.0203L93.1683 47.6282L95.2334 46.9878L95.6908 48.4516L96.7757 46.8963C97.6034 46.8963 98.2134 47.0924 98.6055 47.4845C98.9976 47.8766 99.1936 48.4821 99.1936 49.3012V52.5818L99.6641 52.621ZM100.794 44.3607L102.467 43.9817V45.4717L100.794 45.72V44.3607ZM102.598 52.5818L103.082 52.621V53H100.272V52.621L100.755 52.5818L100.716 47.9288L100.219 48.0334L100.089 47.6544L102.454 46.9224L102.637 47.2361L102.598 52.5818ZM107.741 51.9675L106.146 53.1176C105.502 53.1176 105.031 52.9608 104.735 52.6471C104.447 52.3247 104.304 51.8106 104.304 51.1048V47.6282H103.428V47.21C103.794 47.0096 104.19 46.7264 104.617 46.3604C105.053 45.9858 105.449 45.5937 105.807 45.1841L106.238 45.3148L106.173 47.1185H107.702V47.6674L106.146 47.6413V50.6474C106.146 51.0656 106.225 51.3706 106.382 51.5623C106.547 51.754 106.765 51.8498 107.035 51.8498L107.519 51.5754L107.741 51.9675ZM108.759 44.3607L110.432 43.9817V45.4717L108.759 45.72V44.3607ZM110.563 52.5818L111.046 52.621V53H108.236V52.621L108.72 52.5818L108.681 47.9288L108.184 48.0334L108.053 47.6544L110.419 46.9224L110.602 47.2361L110.563 52.5818ZM114.595 46.9224C115.361 46.9224 115.963 47.2013 116.398 47.7589C116.843 48.3079 117.06 49.0529 117.052 49.9939L113.444 50.1115C113.505 50.6256 113.684 51.0177 113.98 51.2878C114.277 51.5579 114.669 51.693 115.157 51.693C115.836 51.693 116.39 51.5057 116.816 51.131L117.052 51.3401C116.747 51.9239 116.333 52.3814 115.81 52.7125C115.296 53.0349 114.747 53.1961 114.163 53.1961C113.37 53.1961 112.739 52.9346 112.268 52.4118C111.806 51.8803 111.575 51.1658 111.575 50.2684C111.575 49.7369 111.68 49.2097 111.889 48.6869C112.107 48.1641 112.381 47.7284 112.712 47.3799C112.939 47.2492 113.231 47.1403 113.588 47.0531C113.945 46.966 114.281 46.9224 114.595 46.9224ZM115.117 49.5626C115.109 48.9527 115.022 48.4691 114.856 48.1118C114.69 47.7546 114.455 47.5411 114.15 47.4714C113.932 47.6979 113.754 48.016 113.614 48.4255C113.484 48.8263 113.418 49.2402 113.418 49.6671V49.7064L115.117 49.5626ZM119.407 48.0987C119.407 48.334 119.498 48.5475 119.681 48.7392C119.873 48.9309 120.16 49.1574 120.544 49.4188C121.014 49.7412 121.371 50.0331 121.615 50.2945C121.859 50.5559 121.981 50.8783 121.981 51.2617C121.981 51.6015 121.881 51.9195 121.681 52.2158C121.48 52.5121 121.197 52.7517 120.831 52.9346C120.465 53.1089 120.047 53.1961 119.576 53.1961C119.123 53.1961 118.692 53.0871 118.283 52.8693C117.882 52.6515 117.585 52.3726 117.394 52.0328L118.518 51.131C118.866 51.7845 119.224 52.3204 119.59 52.7386C119.738 52.6253 119.86 52.4946 119.956 52.3465C120.06 52.1897 120.112 52.0372 120.112 51.889C120.112 51.6451 120.021 51.436 119.838 51.2617C119.664 51.0787 119.389 50.8609 119.014 50.6082C118.71 50.4078 118.466 50.2335 118.283 50.0854C118.1 49.9373 117.943 49.7586 117.812 49.5495C117.69 49.3404 117.629 49.1051 117.629 48.8437C117.629 48.5213 117.734 48.212 117.943 47.9158C118.161 47.6195 118.461 47.3799 118.845 47.1969C119.228 47.0139 119.664 46.9224 120.152 46.9224C120.526 46.9224 120.879 47.0052 121.21 47.1708C121.55 47.3276 121.825 47.528 122.034 47.772L121.014 48.7784C120.596 48.2469 120.134 47.772 119.629 47.3538C119.481 47.5454 119.407 47.7938 119.407 48.0987ZM118.975 53H118.988H118.975Z" fill="#424769"/>
<path d="M152.333 135.924H149.168C149.081 135.924 149.026 135.826 149.07 135.75L150.647 133.009L152.225 130.268C152.268 130.192 152.377 130.192 152.42 130.268L153.998 133.009L155.575 135.75C155.619 135.826 155.564 135.924 155.477 135.924H152.333Z" fill="#44B480"/>
<path d="M150.615 136.817H147.449C147.362 136.817 147.308 136.72 147.351 136.643L148.929 133.902L150.506 131.161C150.549 131.085 150.658 131.085 150.702 131.161L152.279 133.902L153.856 136.643C153.9 136.72 153.845 136.817 153.758 136.817H150.615Z" stroke="black" stroke-width="0.155207" stroke-miterlimit="10"/>
<path d="M106.254 199.867C107.25 200.864 107.25 202.47 106.254 203.467L102.617 199.867C103.632 198.871 105.257 198.871 106.254 199.867Z" fill="#F0CF67"/>
<path d="M99.6851 201.547C98.6883 200.55 98.6883 198.944 99.6851 197.948L103.322 201.547C102.325 202.544 100.682 202.544 99.6851 201.547Z" stroke="black" stroke-width="0.326855" stroke-miterlimit="10"/>
<path d="M129.045 83.8923L124.758 80.4688L123.933 85.8912L129.045 83.8923ZM124.955 80.9693L128.513 83.8103L124.267 85.4726L124.955 80.9693Z" fill="black"/>
<g filter="url(#filter0_bd_1773_5134)">
<rect x="30.9297" y="93.9131" width="107.555" height="96.5394" rx="11.4928" fill="url(#paint0_linear_1773_5134)" shape-rendering="crispEdges"/>
</g>
<g filter="url(#filter1_bd_1773_5134)">
<rect x="34.6719" y="92.4805" width="104.129" height="93.8148" transform="rotate(3.92957 34.6719 92.4805)" fill="url(#paint1_linear_1773_5134)" shape-rendering="crispEdges"/>
</g>
<g filter="url(#filter2_bd_1773_5134)">
<rect x="37.9376" y="89.5728" width="103.975" height="93.5184" transform="rotate(7.53067 37.9376 89.5728)" stroke="black" stroke-width="0.67222" shape-rendering="crispEdges"/>
</g>
<path d="M22.7278 187.451C22.5836 186.282 21.5265 185.45 20.3668 185.593C19.2071 185.736 18.3838 186.8 18.528 187.969C18.6722 189.139 19.7292 189.97 20.889 189.827C22.0487 189.684 22.872 188.621 22.7278 187.451Z" fill="#F6D05D"/>
<path d="M24.9918 145.002L23.642 146.352L22.2922 145.002L20.9531 146.341L22.303 147.691L20.9531 149.041L22.2922 150.38L23.642 149.03L24.9918 150.38L26.3309 149.041L24.981 147.691L26.3309 146.341L24.9918 145.002Z" stroke="black" stroke-width="0.268888" stroke-miterlimit="10"/>
<path d="M131.626 187.45C131.482 186.28 130.425 185.448 129.265 185.591C128.105 185.734 127.282 186.798 127.426 187.967C127.571 189.137 128.628 189.969 129.787 189.826C130.947 189.682 131.77 188.619 131.626 187.45Z" fill="#44B480"/>
<path d="M41.1756 144.762L44.0373 140.478H47.0852L41.8699 147.979L41.0402 152.67H37.9753L38.805 147.979L36.2312 140.478H39.4654L40.7862 144.762H41.1756ZM52.2545 140.36C54.9751 140.36 56.3354 141.472 56.3354 143.695C56.3354 144.068 56.2959 144.469 56.2168 144.898L55.6242 148.284C55.3533 149.853 54.7662 151.016 53.8632 151.772C52.9601 152.529 51.6901 152.907 50.0532 152.907C48.4164 152.907 47.2762 152.529 46.6328 151.772C46.1925 151.253 45.9724 150.536 45.9724 149.622C45.9724 149.216 46.0176 148.77 46.1079 148.284L46.7005 144.898C47.2311 141.872 49.0824 140.36 52.2545 140.36ZM50.5104 150.282C51.0749 150.282 51.5264 150.136 51.8651 149.842C52.2037 149.549 52.4408 149.007 52.5763 148.217L53.152 144.965C53.1858 144.74 53.2028 144.536 53.2028 144.356C53.2028 143.441 52.7399 142.984 51.8143 142.984C50.6515 143.007 49.9573 143.667 49.7315 144.965L49.1558 148.217C49.1106 148.499 49.0881 148.792 49.0881 149.097C49.0881 149.887 49.5622 150.282 50.5104 150.282ZM65.3109 151.789C64.4191 152.534 63.1548 152.907 61.5179 152.907C59.8811 152.907 58.7466 152.529 58.1144 151.772C57.6628 151.253 57.4371 150.536 57.4371 149.622C57.4371 149.216 57.4822 148.77 57.5725 148.284L58.9441 140.478H61.992L60.6205 148.217C60.5753 148.499 60.5527 148.792 60.5527 149.097C60.5527 149.887 61.0269 150.282 61.9751 150.282C62.5395 150.282 62.9911 150.136 63.3297 149.842C63.6684 149.549 63.9055 149.007 64.0409 148.217L65.4125 140.478H68.4604L67.0889 148.284C66.8066 149.865 66.214 151.033 65.3109 151.789ZM84.2359 140.478L82.1023 152.67H79.0374L79.8164 148.267H76.5144L75.7524 152.67H72.6876L74.8381 140.478H77.886L76.9716 145.626H80.2735L81.1879 140.478H84.2359ZM90.5225 152.67L90.6241 150.011H87.7963L86.9666 152.67H83.7324L88.0841 140.478H93.672L93.7397 152.67H90.5225ZM89.8282 143.441L88.4905 147.742H90.7087L90.895 143.441H89.8282ZM99.9739 149.707L103.191 140.478H106.493L101.87 152.67H96.4518L96.3163 140.478H99.6352L99.5844 149.707H99.9739ZM114.442 152.67H105.942L108.092 140.478H116.592L116.118 143.12H110.666L110.276 145.406H114.781L114.307 148.047H109.802L109.464 150.028H114.916L114.442 152.67ZM126.488 152.67L126.59 150.011H123.762L122.933 152.67H119.698L124.05 140.478H129.638L129.706 152.67H126.488ZM125.794 143.441L124.457 147.742H126.675L126.861 143.441H125.794ZM58.7073 158.478L60.5191 164.32L64.4137 158.478H67.614L65.4636 170.67H62.3987L63.6179 163.795L61.0102 167.893H58.792L57.6405 163.795L56.4214 170.67H53.3734L55.5239 158.478H58.7073ZM73.9037 170.67L74.0053 168.011H71.1775L70.3478 170.67H67.1136L71.4654 158.478H77.0532L77.121 170.67H73.9037ZM73.2095 161.441L71.8718 165.742H74.09L74.2762 161.441H73.2095ZM89.8208 161.12H85.6553L83.9789 170.67H80.9141L82.5904 161.12H78.408L78.8821 158.478H90.2949L89.8208 161.12ZM93.8219 170.907C92.2076 170.907 91.09 170.557 90.4692 169.857C90.0402 169.36 89.8257 168.666 89.8257 167.774C89.8257 167.391 89.8652 166.979 89.9442 166.538L90.6385 162.644C91.1465 159.788 92.9809 158.36 96.1417 158.36C97.4512 158.36 98.4446 158.642 99.1219 159.206C99.7992 159.759 100.138 160.521 100.138 161.492C100.138 161.944 100.07 162.395 99.9347 162.847C99.8105 163.287 99.6863 163.615 99.5622 163.829L99.3759 164.168H96.3788C96.7513 163.739 96.9376 163.129 96.9376 162.339C96.9376 161.921 96.8303 161.594 96.6158 161.357C96.4013 161.108 96.0853 160.984 95.6676 160.984C94.5274 160.984 93.8501 161.616 93.6356 162.881L93.043 166.301C92.9865 166.595 92.9583 166.883 92.9583 167.165C92.9583 167.91 93.4042 168.282 94.296 168.282C95.3684 168.282 96.0119 167.678 96.2264 166.471H99.2743L99.1896 166.962C98.7381 169.592 96.9488 170.907 93.8219 170.907ZM112.05 158.478L109.916 170.67H106.851L107.63 166.267H104.328L103.566 170.67H100.501L102.652 158.478H105.7L104.785 163.626H108.087L109.002 158.478H112.05ZM115.458 166.233H113.205L114.425 157.276H117.303L115.458 166.233ZM112.173 169.688C112.173 168.965 112.331 168.44 112.647 168.113C112.963 167.774 113.465 167.605 114.154 167.605C115.102 167.605 115.576 168.023 115.576 168.858C115.576 169.569 115.412 170.089 115.085 170.416C114.769 170.743 114.267 170.907 113.578 170.907C112.641 170.907 112.173 170.501 112.173 169.688Z" fill="#222222"/>
<path d="M67.8321 113.976L65.2968 123.701H62.4289L60.8773 117.301L59.2702 123.701H56.4023L53.9363 113.976H56.4716L57.8709 121.055L59.6027 113.976H62.2073L63.8698 121.055L65.2829 113.976H67.8321ZM72.5392 123.812C71.7818 123.812 71.0983 123.651 70.4887 123.327C69.8884 123.004 69.4127 122.542 69.0618 121.942C68.72 121.342 68.5491 120.64 68.5491 119.836C68.5491 119.042 68.7246 118.344 69.0756 117.744C69.4266 117.135 69.9069 116.668 70.5164 116.345C71.126 116.022 71.8095 115.86 72.5669 115.86C73.3242 115.86 74.0077 116.022 74.6173 116.345C75.2269 116.668 75.7072 117.135 76.0581 117.744C76.4091 118.344 76.5846 119.042 76.5846 119.836C76.5846 120.63 76.4045 121.332 76.0443 121.942C75.6933 122.542 75.2084 123.004 74.5896 123.327C73.98 123.651 73.2965 123.812 72.5392 123.812ZM72.5392 121.762C72.9917 121.762 73.375 121.596 73.6891 121.263C74.0123 120.931 74.174 120.455 74.174 119.836C74.174 119.217 74.017 118.742 73.7029 118.409C73.3981 118.077 73.0194 117.91 72.5669 117.91C72.1051 117.91 71.7218 118.077 71.417 118.409C71.1122 118.732 70.9598 119.208 70.9598 119.836C70.9598 120.455 71.1076 120.931 71.4031 121.263C71.7079 121.596 72.0866 121.762 72.5392 121.762ZM81.3604 123.812C80.6031 123.812 79.9196 123.651 79.31 123.327C78.7096 123.004 78.234 122.542 77.883 121.942C77.5413 121.342 77.3704 120.64 77.3704 119.836C77.3704 119.042 77.5459 118.344 77.8969 117.744C78.2478 117.135 78.7281 116.668 79.3377 116.345C79.9473 116.022 80.6308 115.86 81.3881 115.86C82.1455 115.86 82.829 116.022 83.4386 116.345C84.0481 116.668 84.5284 117.135 84.8794 117.744C85.2304 118.344 85.4059 119.042 85.4059 119.836C85.4059 120.63 85.2257 121.332 84.8655 121.942C84.5146 122.542 84.0297 123.004 83.4108 123.327C82.8013 123.651 82.1178 123.812 81.3604 123.812ZM81.3604 121.762C81.813 121.762 82.1963 121.596 82.5103 121.263C82.8336 120.931 82.9952 120.455 82.9952 119.836C82.9952 119.217 82.8382 118.742 82.5242 118.409C82.2194 118.077 81.8407 117.91 81.3881 117.91C80.9263 117.91 80.543 118.077 80.2382 118.409C79.9334 118.732 79.781 119.208 79.781 119.836C79.781 120.455 79.9288 120.931 80.2244 121.263C80.5292 121.596 80.9078 121.762 81.3604 121.762ZM91.4147 115.888C92.3014 115.888 93.0126 116.183 93.5482 116.774C94.0839 117.356 94.3518 118.16 94.3518 119.185V123.701H91.9966V119.504C91.9966 118.986 91.8626 118.585 91.5948 118.298C91.327 118.012 90.9667 117.869 90.5142 117.869C90.0616 117.869 89.7014 118.012 89.4335 118.298C89.1657 118.585 89.0318 118.986 89.0318 119.504V123.701H86.6627V113.449H89.0318V117.01C89.2719 116.668 89.5998 116.396 90.0154 116.192C90.431 115.989 90.8975 115.888 91.4147 115.888ZM99.517 123.812C98.7597 123.812 98.0762 123.651 97.4666 123.327C96.8663 123.004 96.3906 122.542 96.0396 121.942C95.6979 121.342 95.527 120.64 95.527 119.836C95.527 119.042 95.7025 118.344 96.0535 117.744C96.4045 117.135 96.8847 116.668 97.4943 116.345C98.1039 116.022 98.7874 115.86 99.5447 115.86C100.302 115.86 100.986 116.022 101.595 116.345C102.205 116.668 102.685 117.135 103.036 117.744C103.387 118.344 103.562 119.042 103.562 119.836C103.562 120.63 103.382 121.332 103.022 121.942C102.671 122.542 102.186 123.004 101.567 123.327C100.958 123.651 100.274 123.812 99.517 123.812ZM99.517 121.762C99.9696 121.762 100.353 121.596 100.667 121.263C100.99 120.931 101.152 120.455 101.152 119.836C101.152 119.217 100.995 118.742 100.681 118.409C100.376 118.077 99.9973 117.91 99.5447 117.91C99.0829 117.91 98.6996 118.077 98.3948 118.409C98.0901 118.732 97.9377 119.208 97.9377 119.836C97.9377 120.455 98.0854 120.931 98.381 121.263C98.6858 121.596 99.0645 121.762 99.517 121.762ZM108.338 123.812C107.581 123.812 106.897 123.651 106.288 123.327C105.688 123.004 105.212 122.542 104.861 121.942C104.519 121.342 104.348 120.64 104.348 119.836C104.348 119.042 104.524 118.344 104.875 117.744C105.226 117.135 105.706 116.668 106.316 116.345C106.925 116.022 107.609 115.86 108.366 115.86C109.123 115.86 109.807 116.022 110.416 116.345C111.026 116.668 111.506 117.135 111.857 117.744C112.208 118.344 112.384 119.042 112.384 119.836C112.384 120.63 112.204 121.332 111.843 121.942C111.492 122.542 111.008 123.004 110.389 123.327C109.779 123.651 109.096 123.812 108.338 123.812ZM108.338 121.762C108.791 121.762 109.174 121.596 109.488 121.263C109.811 120.931 109.973 120.455 109.973 119.836C109.973 119.217 109.816 118.742 109.502 118.409C109.197 118.077 108.819 117.91 108.366 117.91C107.904 117.91 107.521 118.077 107.216 118.409C106.911 118.732 106.759 119.208 106.759 119.836C106.759 120.455 106.907 120.931 107.202 121.263C107.507 121.596 107.886 121.762 108.338 121.762ZM116.758 113.629L116.481 120.266H114.472L114.195 113.629H116.758ZM115.511 123.812C115.095 123.812 114.754 123.692 114.486 123.452C114.227 123.203 114.098 122.898 114.098 122.538C114.098 122.168 114.227 121.859 114.486 121.609C114.754 121.36 115.095 121.235 115.511 121.235C115.917 121.235 116.25 121.36 116.508 121.609C116.776 121.859 116.91 122.168 116.91 122.538C116.91 122.898 116.776 123.203 116.508 123.452C116.25 123.692 115.917 123.812 115.511 123.812Z" fill="#14AB65"/>
<path d="M66.4883 113.976L63.953 123.701H61.0852L59.5335 117.301L57.9264 123.701H55.0586L52.5925 113.976H55.1279L56.5271 121.055L58.2589 113.976H60.8635L62.526 121.055L63.9392 113.976H66.4883ZM71.1954 123.812C70.4381 123.812 69.7546 123.651 69.145 123.327C68.5446 123.004 68.069 122.542 67.718 121.942C67.3763 121.342 67.2054 120.64 67.2054 119.836C67.2054 119.042 67.3809 118.344 67.7319 117.744C68.0828 117.135 68.5631 116.668 69.1727 116.345C69.7823 116.022 70.4658 115.86 71.2231 115.86C71.9805 115.86 72.664 116.022 73.2736 116.345C73.8831 116.668 74.3634 117.135 74.7144 117.744C75.0654 118.344 75.2409 119.042 75.2409 119.836C75.2409 120.63 75.0607 121.332 74.7005 121.942C74.3496 122.542 73.8647 123.004 73.2458 123.327C72.6363 123.651 71.9528 123.812 71.1954 123.812ZM71.1954 121.762C71.648 121.762 72.0313 121.596 72.3453 121.263C72.6686 120.931 72.8302 120.455 72.8302 119.836C72.8302 119.217 72.6732 118.742 72.3592 118.409C72.0544 118.077 71.6757 117.91 71.2231 117.91C70.7613 117.91 70.378 118.077 70.0732 118.409C69.7684 118.732 69.616 119.208 69.616 119.836C69.616 120.455 69.7638 120.931 70.0594 121.263C70.3642 121.596 70.7428 121.762 71.1954 121.762ZM80.0167 123.812C79.2593 123.812 78.5758 123.651 77.9662 123.327C77.3659 123.004 76.8902 122.542 76.5393 121.942C76.1975 121.342 76.0266 120.64 76.0266 119.836C76.0266 119.042 76.2021 118.344 76.5531 117.744C76.9041 117.135 77.3844 116.668 77.9939 116.345C78.6035 116.022 79.287 115.86 80.0444 115.86C80.8017 115.86 81.4852 116.022 82.0948 116.345C82.7044 116.668 83.1847 117.135 83.5356 117.744C83.8866 118.344 84.0621 119.042 84.0621 119.836C84.0621 120.63 83.882 121.332 83.5218 121.942C83.1708 122.542 82.6859 123.004 82.0671 123.327C81.4575 123.651 80.774 123.812 80.0167 123.812ZM80.0167 121.762C80.4692 121.762 80.8525 121.596 81.1666 121.263C81.4898 120.931 81.6515 120.455 81.6515 119.836C81.6515 119.217 81.4945 118.742 81.1804 118.409C80.8756 118.077 80.4969 117.91 80.0444 117.91C79.5826 117.91 79.1993 118.077 78.8945 118.409C78.5897 118.732 78.4373 119.208 78.4373 119.836C78.4373 120.455 78.5851 120.931 78.8806 121.263C79.1854 121.596 79.5641 121.762 80.0167 121.762ZM90.0709 115.888C90.9576 115.888 91.6688 116.183 92.2045 116.774C92.7402 117.356 93.008 118.16 93.008 119.185V123.701H90.6528V119.504C90.6528 118.986 90.5189 118.585 90.2511 118.298C89.9832 118.012 89.623 117.869 89.1704 117.869C88.7178 117.869 88.3576 118.012 88.0898 118.298C87.8219 118.585 87.688 118.986 87.688 119.504V123.701H85.3189V113.449H87.688V117.01C87.9282 116.668 88.256 116.396 88.6717 116.192C89.0873 115.989 89.5537 115.888 90.0709 115.888ZM98.1733 123.812C97.4159 123.812 96.7325 123.651 96.1229 123.327C95.5225 123.004 95.0469 122.542 94.6959 121.942C94.3541 121.342 94.1833 120.64 94.1833 119.836C94.1833 119.042 94.3588 118.344 94.7097 117.744C95.0607 117.135 95.541 116.668 96.1506 116.345C96.7602 116.022 97.4436 115.86 98.201 115.86C98.9584 115.86 99.6418 116.022 100.251 116.345C100.861 116.668 101.341 117.135 101.692 117.744C102.043 118.344 102.219 119.042 102.219 119.836C102.219 120.63 102.039 121.332 101.678 121.942C101.327 122.542 100.843 123.004 100.224 123.327C99.6141 123.651 98.9307 123.812 98.1733 123.812ZM98.1733 121.762C98.6259 121.762 99.0092 121.596 99.3232 121.263C99.6465 120.931 99.8081 120.455 99.8081 119.836C99.8081 119.217 99.6511 118.742 99.337 118.409C99.0323 118.077 98.6536 117.91 98.201 117.91C97.7392 117.91 97.3559 118.077 97.0511 118.409C96.7463 118.732 96.5939 119.208 96.5939 119.836C96.5939 120.455 96.7417 120.931 97.0372 121.263C97.342 121.596 97.7207 121.762 98.1733 121.762ZM106.995 123.812C106.237 123.812 105.554 123.651 104.944 123.327C104.344 123.004 103.868 122.542 103.517 121.942C103.175 121.342 103.005 120.64 103.005 119.836C103.005 119.042 103.18 118.344 103.531 117.744C103.882 117.135 104.362 116.668 104.972 116.345C105.581 116.022 106.265 115.86 107.022 115.86C107.78 115.86 108.463 116.022 109.073 116.345C109.682 116.668 110.163 117.135 110.514 117.744C110.864 118.344 111.04 119.042 111.04 119.836C111.04 120.63 110.86 121.332 110.5 121.942C110.149 122.542 109.664 123.004 109.045 123.327C108.435 123.651 107.752 123.812 106.995 123.812ZM106.995 121.762C107.447 121.762 107.83 121.596 108.144 121.263C108.468 120.931 108.629 120.455 108.629 119.836C108.629 119.217 108.472 118.742 108.158 118.409C107.854 118.077 107.475 117.91 107.022 117.91C106.56 117.91 106.177 118.077 105.872 118.409C105.568 118.732 105.415 119.208 105.415 119.836C105.415 120.455 105.563 120.931 105.858 121.263C106.163 121.596 106.542 121.762 106.995 121.762ZM115.414 113.629L115.137 120.266H113.128L112.851 113.629H115.414ZM114.167 123.812C113.752 123.812 113.41 123.692 113.142 123.452C112.883 123.203 112.754 122.898 112.754 122.538C112.754 122.168 112.883 121.859 113.142 121.609C113.41 121.36 113.752 121.235 114.167 121.235C114.574 121.235 114.906 121.36 115.165 121.609C115.432 121.859 115.566 122.168 115.566 122.538C115.566 122.898 115.432 123.203 115.165 123.452C114.906 123.692 114.574 123.812 114.167 123.812Z" fill="#25FFAE"/>
<circle cx="89.1796" cy="94.8324" r="11.458" fill="#13C39C" stroke="#25FFAE" stroke-width="0.708744"/>
<path fill-rule="evenodd" clip-rule="evenodd" d="M96.1525 90.4089L88.3051 100.221L82.1406 95.0832L83.3037 93.6875L88.0434 97.6366L94.735 89.2749L96.1525 90.4089Z" fill="white"/>
<path d="M25.4153 105.44C25.2711 104.271 24.214 103.439 23.0543 103.582C21.8946 103.725 21.0713 104.789 21.2155 105.958C21.3597 107.127 22.4167 107.959 23.5765 107.816C24.7362 107.673 25.5595 106.609 25.4153 105.44Z" fill="#74BEF9"/>
</g>
<rect x="1.25" y="1.25" width="168.05" height="322.85" rx="18.06" stroke="#292929" stroke-width="1.5"/>
<defs>
<filter id="filter0_bd_1773_5134" x="19.4369" y="82.4203" width="130.54" height="119.525" filterUnits="userSpaceOnUse" color-interpolation-filters="sRGB">
<feFlood flood-opacity="0" result="BackgroundImageFix"/>
<feGaussianBlur in="BackgroundImageFix" stdDeviation="5.74639"/>
<feComposite in2="SourceAlpha" operator="in" result="effect1_backgroundBlur_1773_5134"/>
<feColorMatrix in="SourceAlpha" type="matrix" values="0 0 0 0 0 0 0 0 0 0 0 0 0 0 0 0 0 0 127 0" result="hardAlpha"/>
<feOffset dx="1.14928" dy="2.29856"/>
<feGaussianBlur stdDeviation="3.44784"/>
<feComposite in2="hardAlpha" operator="out"/>
<feColorMatrix type="matrix" values="0 0 0 0 0.427451 0 0 0 0 0.552941 0 0 0 0 0.678431 0 0 0 0.25 0"/>
<feBlend mode="normal" in2="effect1_backgroundBlur_1773_5134" result="effect2_dropShadow_1773_5134"/>
<feBlend mode="normal" in="SourceGraphic" in2="effect2_dropShadow_1773_5134" result="shape"/>
</filter>
<filter id="filter1_bd_1773_5134" x="15.9273" y="80.1656" width="134.942" height="125.36" filterUnits="userSpaceOnUse" color-interpolation-filters="sRGB">
<feFlood flood-opacity="0" result="BackgroundImageFix"/>
<feGaussianBlur in="BackgroundImageFix" stdDeviation="6.15744"/>
<feComposite in2="SourceAlpha" operator="in" result="effect1_backgroundBlur_1773_5134"/>
<feColorMatrix in="SourceAlpha" type="matrix" values="0 0 0 0 0 0 0 0 0 0 0 0 0 0 0 0 0 0 127 0" result="hardAlpha"/>
<feOffset dx="1.11267" dy="2.22535"/>
<feGaussianBlur stdDeviation="3.33802"/>
<feComposite in2="hardAlpha" operator="out"/>
<feColorMatrix type="matrix" values="0 0 0 0 0.427451 0 0 0 0 0.552941 0 0 0 0 0.678431 0 0 0 0.25 0"/>
<feBlend mode="normal" in2="effect1_backgroundBlur_1773_5134" result="effect2_dropShadow_1773_5134"/>
<feBlend mode="normal" in="SourceGraphic" in2="effect2_dropShadow_1773_5134" result="shape"/>
</filter>
<filter id="filter2_bd_1773_5134" x="14.178" y="78.0688" width="138.339" height="129.346" filterUnits="userSpaceOnUse" color-interpolation-filters="sRGB">
<feFlood flood-opacity="0" result="BackgroundImageFix"/>
<feGaussianBlur in="BackgroundImageFix" stdDeviation="5.56337"/>
<feComposite in2="SourceAlpha" operator="in" result="effect1_backgroundBlur_1773_5134"/>
<feColorMatrix in="SourceAlpha" type="matrix" values="0 0 0 0 0 0 0 0 0 0 0 0 0 0 0 0 0 0 127 0" result="hardAlpha"/>
<feOffset dx="1.11267" dy="2.22535"/>
<feGaussianBlur stdDeviation="3.33802"/>
<feComposite in2="hardAlpha" operator="out"/>
<feColorMatrix type="matrix" values="0 0 0 0 0.427451 0 0 0 0 0.552941 0 0 0 0 0.678431 0 0 0 0.25 0"/>
<feBlend mode="normal" in2="effect1_backgroundBlur_1773_5134" result="effect2_dropShadow_1773_5134"/>
<feBlend mode="normal" in="SourceGraphic" in2="effect2_dropShadow_1773_5134" result="shape"/>
</filter>
<linearGradient id="paint0_linear_1773_5134" x1="84.7073" y1="93.9131" x2="84.7073" y2="190.452" gradientUnits="userSpaceOnUse">
<stop stop-color="#78C3FF"/>
<stop offset="0.711458" stop-color="#2393EE" stop-opacity="0.558896"/>
<stop offset="1" stop-color="#007FE7" stop-opacity="0.38"/>
</linearGradient>
<linearGradient id="paint1_linear_1773_5134" x1="86.7366" y1="92.4805" x2="86.7366" y2="186.295" gradientUnits="userSpaceOnUse">
<stop stop-color="#FFD24D"/>
<stop offset="1" stop-color="#F3CF63" stop-opacity="0.93"/>
</linearGradient>
<clipPath id="clip0_1773_5134">
<rect x="2" y="2" width="166.55" height="321.35" rx="17.31" fill="white"/>
</clipPath>
</defs>
</svg>
