<svg width="163" height="48" viewBox="0 0 163 48" fill="none" xmlns="http://www.w3.org/2000/svg">
<path d="M23.8221 27.6521C23.2441 27.6521 22.6791 27.4808 22.1985 27.1596C21.718 26.8385 21.3434 26.3821 21.1222 25.8481C20.901 25.3142 20.8432 24.7266 20.9559 24.1597C21.0687 23.5928 21.347 23.0721 21.7557 22.6634C22.1644 22.2547 22.6851 21.9764 23.252 21.8636C23.8189 21.7509 24.4064 21.8087 24.9404 22.0299C25.4744 22.2511 25.9308 22.6257 26.2519 23.1063C26.573 23.5868 26.7444 24.1518 26.7444 24.7298C26.7444 25.5049 26.4365 26.2482 25.8885 26.7962C25.3405 27.3443 24.5972 27.6521 23.8221 27.6521ZM40.0958 26.2823L26.5983 44.6017C26.5063 44.7243 26.378 44.815 26.2317 44.8607C26.0853 44.9064 25.9283 44.9049 25.7828 44.8564C25.6373 44.8079 25.5108 44.7149 25.4212 44.5905C25.3315 44.4661 25.2833 44.3167 25.2833 44.1633V30.3918C26.6606 30.0362 27.861 29.1904 28.6594 28.013C29.4578 26.8357 29.7994 25.4075 29.6202 23.9963C29.4409 22.5851 28.7532 21.2877 27.6858 20.3473C26.6184 19.4069 25.2447 18.8881 23.8221 18.8881C22.3995 18.8881 21.0258 19.4069 19.9584 20.3473C18.891 21.2877 18.2033 22.5851 18.024 23.9963C17.8448 25.4075 18.1864 26.8357 18.9848 28.013C19.7832 29.1904 20.9836 30.0362 22.3609 30.3918V44.1633C22.3609 44.3167 22.3127 44.4661 22.223 44.5905C22.1334 44.7149 22.0068 44.8079 21.8614 44.8564C21.7159 44.9049 21.5589 44.9064 21.4125 44.8607C21.2662 44.815 21.1379 44.7243 21.0459 44.6017L7.54836 26.2823C7.2304 25.85 7.03679 25.339 6.9885 24.8046C6.9402 24.2701 7.03907 23.7327 7.27439 23.2504L12.1328 13.424V6.46524C12.1328 5.69019 12.4407 4.94688 12.9887 4.39884C13.5367 3.8508 14.2801 3.54291 15.0551 3.54291H32.5891C33.3641 3.54291 34.1075 3.8508 34.6555 4.39884C35.2035 4.94688 35.5114 5.69019 35.5114 6.46524V13.424L40.3698 23.2504C40.6051 23.7327 40.704 24.2701 40.6557 24.8046C40.6074 25.339 40.4138 25.85 40.0958 26.2823ZM32.5891 6.46524H15.0551V12.3099H32.5891V6.46524Z" fill="#44B480"/>
<path d="M118.688 30.1262C117.764 30.1262 116.936 29.9762 116.204 29.6762C115.472 29.3762 114.884 28.9322 114.44 28.3442C114.008 27.7562 113.78 27.0482 113.756 26.2202H117.032C117.08 26.6882 117.242 27.0482 117.518 27.3002C117.794 27.5402 118.154 27.6602 118.598 27.6602C119.054 27.6602 119.414 27.5582 119.678 27.3542C119.942 27.1382 120.074 26.8442 120.074 26.4722C120.074 26.1602 119.966 25.9022 119.75 25.6982C119.546 25.4942 119.288 25.3262 118.976 25.1942C118.676 25.0622 118.244 24.9122 117.68 24.7442C116.864 24.4922 116.198 24.2402 115.682 23.9882C115.166 23.7362 114.722 23.3642 114.35 22.8722C113.978 22.3802 113.792 21.7382 113.792 20.9462C113.792 19.7702 114.218 18.8522 115.07 18.1922C115.922 17.5202 117.032 17.1842 118.4 17.1842C119.792 17.1842 120.914 17.5202 121.766 18.1922C122.618 18.8522 123.074 19.7762 123.134 20.9642H119.804C119.78 20.5562 119.63 20.2382 119.354 20.0102C119.078 19.7702 118.724 19.6502 118.292 19.6502C117.92 19.6502 117.62 19.7522 117.392 19.9562C117.164 20.1482 117.05 20.4302 117.05 20.8022C117.05 21.2102 117.242 21.5282 117.626 21.7562C118.01 21.9842 118.61 22.2302 119.426 22.4942C120.242 22.7702 120.902 23.0342 121.406 23.2862C121.922 23.5382 122.366 23.9042 122.738 24.3842C123.11 24.8642 123.296 25.4822 123.296 26.2382C123.296 26.9582 123.11 27.6122 122.738 28.2002C122.378 28.7882 121.85 29.2562 121.154 29.6042C120.458 29.9522 119.636 30.1262 118.688 30.1262ZM124.578 24.9602C124.578 23.9282 124.77 23.0222 125.154 22.2422C125.55 21.4622 126.084 20.8622 126.756 20.4422C127.428 20.0222 128.178 19.8122 129.006 19.8122C129.714 19.8122 130.332 19.9562 130.86 20.2442C131.4 20.5322 131.814 20.9102 132.102 21.3782V19.9562H135.18V30.0002H132.102V28.5782C131.802 29.0462 131.382 29.4242 130.842 29.7122C130.314 30.0002 129.696 30.1442 128.988 30.1442C128.172 30.1442 127.428 29.9342 126.756 29.5142C126.084 29.0822 125.55 28.4762 125.154 27.6962C124.77 26.9042 124.578 25.9922 124.578 24.9602ZM132.102 24.9782C132.102 24.2102 131.886 23.6042 131.454 23.1602C131.034 22.7162 130.518 22.4942 129.906 22.4942C129.294 22.4942 128.772 22.7162 128.34 23.1602C127.92 23.5922 127.71 24.1922 127.71 24.9602C127.71 25.7282 127.92 26.3402 128.34 26.7962C128.772 27.2402 129.294 27.4622 129.906 27.4622C130.518 27.4622 131.034 27.2402 131.454 26.7962C131.886 26.3522 132.102 25.7462 132.102 24.9782ZM140.485 16.6802V30.0002H137.407V16.6802H140.485ZM152.184 24.8162C152.184 25.1042 152.166 25.4042 152.13 25.7162H145.164C145.212 26.3402 145.41 26.8202 145.758 27.1562C146.118 27.4802 146.556 27.6422 147.072 27.6422C147.84 27.6422 148.374 27.3182 148.674 26.6702H151.95C151.782 27.3302 151.476 27.9242 151.032 28.4522C150.6 28.9802 150.054 29.3942 149.394 29.6942C148.734 29.9942 147.996 30.1442 147.18 30.1442C146.196 30.1442 145.32 29.9342 144.552 29.5142C143.784 29.0942 143.184 28.4942 142.752 27.7142C142.32 26.9342 142.104 26.0222 142.104 24.9782C142.104 23.9342 142.314 23.0222 142.734 22.2422C143.166 21.4622 143.766 20.8622 144.534 20.4422C145.302 20.0222 146.184 19.8122 147.18 19.8122C148.152 19.8122 149.016 20.0162 149.772 20.4242C150.528 20.8322 151.116 21.4142 151.536 22.1702C151.968 22.9262 152.184 23.8082 152.184 24.8162ZM149.034 24.0062C149.034 23.4782 148.854 23.0582 148.494 22.7462C148.134 22.4342 147.684 22.2782 147.144 22.2782C146.628 22.2782 146.19 22.4282 145.83 22.7282C145.482 23.0282 145.266 23.4542 145.182 24.0062H149.034ZM157.893 30.1442C157.017 30.1442 156.237 29.9942 155.553 29.6942C154.869 29.3942 154.329 28.9862 153.933 28.4702C153.537 27.9422 153.315 27.3542 153.267 26.7062H156.309C156.345 27.0542 156.507 27.3362 156.795 27.5522C157.083 27.7682 157.437 27.8762 157.857 27.8762C158.241 27.8762 158.535 27.8042 158.739 27.6602C158.955 27.5042 159.063 27.3062 159.063 27.0662C159.063 26.7782 158.913 26.5682 158.613 26.4362C158.313 26.2922 157.827 26.1362 157.155 25.9682C156.435 25.8002 155.835 25.6262 155.355 25.4462C154.875 25.2542 154.461 24.9602 154.113 24.5642C153.765 24.1562 153.591 23.6102 153.591 22.9262C153.591 22.3502 153.747 21.8282 154.059 21.3602C154.383 20.8802 154.851 20.5022 155.463 20.2262C156.087 19.9502 156.825 19.8122 157.677 19.8122C158.937 19.8122 159.927 20.1242 160.647 20.7482C161.379 21.3722 161.799 22.2002 161.907 23.2322H159.063C159.015 22.8842 158.859 22.6082 158.595 22.4042C158.343 22.2002 158.007 22.0982 157.587 22.0982C157.227 22.0982 156.951 22.1702 156.759 22.3142C156.567 22.4462 156.471 22.6322 156.471 22.8722C156.471 23.1602 156.621 23.3762 156.921 23.5202C157.233 23.6642 157.713 23.8082 158.361 23.9522C159.105 24.1442 159.711 24.3362 160.179 24.5282C160.647 24.7082 161.055 25.0082 161.403 25.4282C161.763 25.8362 161.949 26.3882 161.961 27.0842C161.961 27.6722 161.793 28.2002 161.457 28.6682C161.133 29.1242 160.659 29.4842 160.035 29.7482C159.423 30.0122 158.709 30.1442 157.893 30.1442Z" fill="#414141"/>
</svg>
