<svg width="158" height="48" viewBox="0 0 158 48" fill="none" xmlns="http://www.w3.org/2000/svg">
<g clip-path="url(#clip0_1531_7383)">
<path d="M12.4431 18.1551H39.4097V13.7716C39.4097 11.3516 37.6645 9.38812 35.5133 9.38812H22.5252L17.3299 3.54346H4.34175C2.18978 3.54346 0.445312 5.50599 0.445312 7.92696V37.9174L7.79498 21.3788C8.67655 19.3971 10.4624 18.1551 12.4431 18.1551ZM44.5319 21.0775H12.4431C11.4609 21.0775 10.5598 21.6984 10.1215 22.6939L0.445312 44.4561H36.7391C37.7229 44.4561 38.6223 43.8304 39.0623 42.8406L46.8552 25.3066C47.7871 23.3605 46.5289 21.0775 44.5319 21.0775Z" fill="#FF99C7"/>
</g>
<path d="M123.206 17.5586V20.0246H119.858V30.1946H116.78V20.0246H113.432V17.5586H123.206ZM134.219 25.0106C134.219 25.2986 134.201 25.5986 134.165 25.9106H127.199C127.247 26.5346 127.445 27.0146 127.793 27.3506C128.153 27.6746 128.591 27.8366 129.107 27.8366C129.875 27.8366 130.409 27.5126 130.709 26.8646H133.985C133.817 27.5246 133.511 28.1186 133.067 28.6466C132.635 29.1746 132.089 29.5886 131.429 29.8886C130.769 30.1886 130.031 30.3386 129.215 30.3386C128.231 30.3386 127.355 30.1286 126.587 29.7086C125.819 29.2886 125.219 28.6886 124.787 27.9086C124.355 27.1286 124.139 26.2166 124.139 25.1726C124.139 24.1286 124.349 23.2166 124.769 22.4366C125.201 21.6566 125.801 21.0566 126.569 20.6366C127.337 20.2166 128.219 20.0066 129.215 20.0066C130.187 20.0066 131.051 20.2106 131.807 20.6186C132.563 21.0266 133.151 21.6086 133.571 22.3646C134.003 23.1206 134.219 24.0026 134.219 25.0106ZM131.069 24.2006C131.069 23.6726 130.889 23.2526 130.529 22.9406C130.169 22.6286 129.719 22.4726 129.179 22.4726C128.663 22.4726 128.225 22.6226 127.865 22.9226C127.517 23.2226 127.301 23.6486 127.217 24.2006H131.069ZM135.231 25.1726C135.231 24.1286 135.441 23.2166 135.861 22.4366C136.293 21.6566 136.887 21.0566 137.643 20.6366C138.411 20.2166 139.287 20.0066 140.271 20.0066C141.531 20.0066 142.581 20.3366 143.421 20.9966C144.273 21.6566 144.831 22.5866 145.095 23.7866H141.819C141.543 23.0186 141.009 22.6346 140.217 22.6346C139.653 22.6346 139.203 22.8566 138.867 23.3006C138.531 23.7326 138.363 24.3566 138.363 25.1726C138.363 25.9886 138.531 26.6186 138.867 27.0626C139.203 27.4946 139.653 27.7106 140.217 27.7106C141.009 27.7106 141.543 27.3266 141.819 26.5586H145.095C144.831 27.7346 144.273 28.6586 143.421 29.3306C142.569 30.0026 141.519 30.3386 140.271 30.3386C139.287 30.3386 138.411 30.1286 137.643 29.7086C136.887 29.2886 136.293 28.6886 135.861 27.9086C135.441 27.1286 135.231 26.2166 135.231 25.1726ZM152.915 20.0426C154.067 20.0426 154.991 20.4266 155.687 21.1946C156.383 21.9506 156.731 22.9946 156.731 24.3266V30.1946H153.671V24.7406C153.671 24.0686 153.497 23.5466 153.149 23.1746C152.801 22.8026 152.333 22.6166 151.745 22.6166C151.157 22.6166 150.689 22.8026 150.341 23.1746C149.993 23.5466 149.819 24.0686 149.819 24.7406V30.1946H146.741V16.8746H149.819V21.5006C150.131 21.0566 150.557 20.7026 151.097 20.4386C151.637 20.1746 152.243 20.0426 152.915 20.0426Z" fill="#414141"/>
<defs>
<clipPath id="clip0_1531_7383">
<rect width="46.7573" height="46.7573" fill="white" transform="translate(0.445312 0.621338)"/>
</clipPath>
</defs>
</svg>
