<svg width="314" height="58" viewBox="0 0 314 58" fill="none" xmlns="http://www.w3.org/2000/svg">
<path d="M32.9709 30.1002L33.4687 26.915H30.3561V24.848C30.3561 23.9766 30.7909 23.1272 32.185 23.1272H33.6V20.4154C33.6 20.4154 32.3159 20.2002 31.0881 20.2002C28.5248 20.2002 26.8493 21.7258 26.8493 24.4874V26.915H24V30.1002H26.8493V37.8002H30.3561V30.1002H32.9709Z" fill="white"/>
<path d="M169.478 23.0166C169.19 21.908 168.343 21.0349 167.267 20.7386C165.318 20.2002 157.5 20.2002 157.5 20.2002C157.5 20.2002 149.682 20.2002 147.733 20.7386C146.657 21.0349 145.81 21.908 145.522 23.0166C145 25.026 145 29.2184 145 29.2184C145 29.2184 145 33.4108 145.522 35.4202C145.81 36.5288 146.657 37.3655 147.733 37.6618C149.682 38.2002 157.5 38.2002 157.5 38.2002C157.5 38.2002 165.318 38.2002 167.267 37.6618C168.343 37.3655 169.19 36.5288 169.478 35.4202C170 33.4108 170 29.2184 170 29.2184C170 29.2184 170 25.026 169.478 23.0166ZM154.943 33.0248V25.412L161.477 29.2185L154.943 33.0248Z" fill="white"/>
<rect x="64" width="58" height="58" rx="29" fill="#263041"/>
<path d="M99.7908 25.0894C99.802 25.26 99.802 25.4305 99.802 25.6011C99.802 30.8031 96.1726 36.797 89.5391 36.797C87.4954 36.797 85.597 36.1513 84 35.0305C84.2904 35.0671 84.5695 35.0793 84.8711 35.0793C86.5573 35.0793 88.1096 34.458 89.3492 33.3981C87.7634 33.3615 86.4345 32.2285 85.9766 30.6691C86.2 30.7056 86.4233 30.73 86.6579 30.73C86.9817 30.73 87.3056 30.6813 87.6071 30.596C85.9543 30.2305 84.7147 28.6468 84.7147 26.7341V26.6854C85.1949 26.9778 85.7533 27.1605 86.3451 27.1848C85.3736 26.4782 84.737 25.2721 84.737 23.9077C84.737 23.1767 84.9157 22.5067 85.2284 21.9219C87.004 24.3097 89.6731 25.8691 92.6659 26.0397C92.6101 25.7473 92.5766 25.4427 92.5766 25.1382C92.5766 22.9696 94.1847 21.2031 96.1837 21.2031C97.2223 21.2031 98.1603 21.6783 98.8192 22.4458C99.6344 22.2752 100.416 21.9463 101.109 21.4955C100.841 22.4092 100.271 23.1768 99.5228 23.664C100.249 23.5788 100.952 23.3595 101.6 23.0549C101.109 23.8346 100.494 24.529 99.7908 25.0894Z" fill="white"/>
<path d="M228.829 19.7998H212.367C211.613 19.7998 211 20.3953 211 21.1264V36.8732C211 37.6043 211.613 38.1998 212.367 38.1998H228.829C229.583 38.1998 230.2 37.6043 230.2 36.8732V21.1264C230.2 20.3953 229.583 19.7998 228.829 19.7998ZM216.803 35.5712H213.957V26.7902H216.807V35.5712H216.803ZM215.38 25.5909C214.467 25.5909 213.73 24.8803 213.73 24.0096C213.73 23.1389 214.467 22.4284 215.38 22.4284C216.289 22.4284 217.03 23.1389 217.03 24.0096C217.03 24.8844 216.293 25.5909 215.38 25.5909ZM227.47 35.5712H224.624V31.2998C224.624 30.2812 224.603 28.9711 223.146 28.9711C221.663 28.9711 221.436 30.08 221.436 31.2259V35.5712H218.59V26.7902H221.32V27.9894H221.359C221.74 27.2994 222.67 26.5725 224.054 26.5725C226.934 26.5725 227.47 28.3919 227.47 30.7577V35.5712Z" fill="white"/>
<path d="M284.802 24.4878C282.305 24.4878 280.291 26.5025 280.291 29.0002C280.291 31.4979 282.305 33.5126 284.802 33.5126C287.299 33.5126 289.313 31.4979 289.313 29.0002C289.313 26.5025 287.299 24.4878 284.802 24.4878ZM284.802 31.9339C283.188 31.9339 281.869 30.6182 281.869 29.0002C281.869 27.3822 283.184 26.0665 284.802 26.0665C286.42 26.0665 287.735 27.3822 287.735 29.0002C287.735 30.6182 286.416 31.9339 284.802 31.9339ZM290.55 24.3032C290.55 24.8884 290.079 25.3557 289.498 25.3557C288.913 25.3557 288.446 24.8844 288.446 24.3032C288.446 23.722 288.917 23.2507 289.498 23.2507C290.079 23.2507 290.55 23.722 290.55 24.3032ZM293.538 25.3714C293.471 23.9615 293.149 22.7127 292.117 21.6837C291.088 20.6548 289.84 20.3327 288.43 20.262C286.977 20.1796 282.623 20.1796 281.17 20.262C279.764 20.3288 278.516 20.6508 277.483 21.6798C276.451 22.7087 276.133 23.9576 276.062 25.3675C275.979 26.8206 275.979 31.1759 276.062 32.629C276.129 34.0389 276.451 35.2877 277.483 36.3167C278.516 37.3456 279.76 37.6677 281.17 37.7383C282.623 37.8208 286.977 37.8208 288.43 37.7383C289.84 37.6716 291.088 37.3495 292.117 36.3167C293.146 35.2877 293.467 34.0389 293.538 32.629C293.621 31.1759 293.621 26.8245 293.538 25.3714ZM291.661 34.1881C291.355 34.9578 290.762 35.5509 289.989 35.8611C288.83 36.3206 286.082 36.2146 284.802 36.2146C283.522 36.2146 280.77 36.3167 279.615 35.8611C278.846 35.5548 278.253 34.9618 277.943 34.1881C277.483 33.0296 277.589 30.2805 277.589 29.0002C277.589 27.7199 277.487 24.9669 277.943 23.8123C278.249 23.0425 278.842 22.4495 279.615 22.1393C280.773 21.6798 283.522 21.7858 284.802 21.7858C286.082 21.7858 288.834 21.6837 289.989 22.1393C290.758 22.4456 291.351 23.0386 291.661 23.8123C292.121 24.9708 292.015 27.7199 292.015 29.0002C292.015 30.2805 292.121 33.0335 291.661 34.1881Z" fill="white"/>
</svg>
