<svg width="102" height="90" viewBox="0 0 102 90" fill="none" xmlns="http://www.w3.org/2000/svg">
<g opacity="0.5">
<circle cx="21.7878" cy="6.14473" r="4.30989" transform="rotate(15 21.7878 6.14473)" fill="#574BB8"/>
<circle cx="46.7663" cy="12.8381" r="4.30989" transform="rotate(15 46.7663 12.8381)" fill="#574BB8"/>
<circle cx="71.7438" cy="19.5305" r="4.30989" transform="rotate(15 71.7438 19.5305)" fill="#574BB8"/>
<circle cx="96.7224" cy="26.2238" r="4.30989" transform="rotate(15 96.7224 26.2238)" fill="#574BB8"/>
<circle cx="16.5817" cy="25.5725" r="4.30989" transform="rotate(15 16.5817 25.5725)" fill="#574BB8"/>
<circle cx="41.5602" cy="32.2658" r="4.30989" transform="rotate(15 41.5602 32.2658)" fill="#574BB8"/>
<circle cx="66.5378" cy="38.9582" r="4.30989" transform="rotate(15 66.5378 38.9582)" fill="#574BB8"/>
<circle cx="91.5163" cy="45.6506" r="4.30989" transform="rotate(15 91.5163 45.6506)" fill="#574BB8"/>
<circle cx="11.3767" cy="45.0002" r="4.30989" transform="rotate(15 11.3767 45.0002)" fill="#574BB8"/>
<circle cx="36.3552" cy="51.6936" r="4.30989" transform="rotate(15 36.3552 51.6936)" fill="#574BB8"/>
<circle cx="61.3327" cy="58.3859" r="4.30989" transform="rotate(15 61.3327 58.3859)" fill="#574BB8"/>
<circle cx="86.3112" cy="65.0793" r="4.30989" transform="rotate(15 86.3112 65.0793)" fill="#574BB8"/>
<circle cx="6.1706" cy="64.427" r="4.30989" transform="rotate(15 6.1706 64.427)" fill="#574BB8"/>
<circle cx="31.1491" cy="71.1203" r="4.30989" transform="rotate(15 31.1491 71.1203)" fill="#574BB8"/>
<circle cx="56.1267" cy="77.8127" r="4.30989" transform="rotate(15 56.1267 77.8127)" fill="#574BB8"/>
<circle cx="81.1052" cy="84.5061" r="4.30989" transform="rotate(15 81.1052 84.5061)" fill="#574BB8"/>
</g>
</svg>
