<svg width="139" height="63" viewBox="0 0 139 63" fill="none" xmlns="http://www.w3.org/2000/svg">
<g opacity="0.5">
<circle cx="135.034" cy="3.39106" r="3.12055" transform="rotate(90 135.034 3.39106)" fill="#0075D1"/>
<circle cx="116.31" cy="3.39106" r="3.12055" transform="rotate(90 116.31 3.39106)" fill="#0075D1"/>
<circle cx="97.5875" cy="3.39106" r="3.12055" transform="rotate(90 97.5875 3.39106)" fill="#0075D1"/>
<circle cx="78.8638" cy="3.39106" r="3.12055" transform="rotate(90 78.8638 3.39106)" fill="#0075D1"/>
<circle cx="60.1402" cy="3.39106" r="3.12055" transform="rotate(90 60.1402 3.39106)" fill="#0075D1"/>
<circle cx="41.4175" cy="3.39106" r="3.12055" transform="rotate(90 41.4175 3.39106)" fill="#0075D1"/>
<circle cx="22.6939" cy="3.39106" r="3.12055" transform="rotate(90 22.6939 3.39106)" fill="#0075D1"/>
<circle cx="3.97027" cy="3.39106" r="3.12055" transform="rotate(90 3.97027 3.39106)" fill="#0075D1"/>
<circle cx="135.034" cy="22.1147" r="3.12055" transform="rotate(90 135.034 22.1147)" fill="#0075D1"/>
<circle cx="116.31" cy="22.1147" r="3.12055" transform="rotate(90 116.31 22.1147)" fill="#0075D1"/>
<circle cx="97.5875" cy="22.1147" r="3.12055" transform="rotate(90 97.5875 22.1147)" fill="#0075D1"/>
<circle cx="78.8638" cy="22.1147" r="3.12055" transform="rotate(90 78.8638 22.1147)" fill="#0075D1"/>
<circle cx="60.1402" cy="22.1147" r="3.12055" transform="rotate(90 60.1402 22.1147)" fill="#0075D1"/>
<circle cx="41.4175" cy="22.1147" r="3.12055" transform="rotate(90 41.4175 22.1147)" fill="#0075D1"/>
<circle cx="22.6939" cy="22.1147" r="3.12055" transform="rotate(90 22.6939 22.1147)" fill="#0075D1"/>
<circle cx="3.97027" cy="22.1147" r="3.12055" transform="rotate(90 3.97027 22.1147)" fill="#0075D1"/>
<circle cx="135.034" cy="40.8373" r="3.12055" transform="rotate(90 135.034 40.8373)" fill="#0075D1"/>
<circle cx="116.31" cy="40.8373" r="3.12055" transform="rotate(90 116.31 40.8373)" fill="#0075D1"/>
<circle cx="97.5875" cy="40.8373" r="3.12055" transform="rotate(90 97.5875 40.8373)" fill="#0075D1"/>
<circle cx="78.8638" cy="40.8373" r="3.12055" transform="rotate(90 78.8638 40.8373)" fill="#0075D1"/>
<circle cx="60.1402" cy="40.8373" r="3.12055" transform="rotate(90 60.1402 40.8373)" fill="#0075D1"/>
<circle cx="41.4175" cy="40.8373" r="3.12055" transform="rotate(90 41.4175 40.8373)" fill="#0075D1"/>
<circle cx="22.6939" cy="40.8373" r="3.12055" transform="rotate(90 22.6939 40.8373)" fill="#0075D1"/>
<circle cx="3.97027" cy="40.8373" r="3.12055" transform="rotate(90 3.97027 40.8373)" fill="#0075D1"/>
<circle cx="135.034" cy="59.561" r="3.12055" transform="rotate(90 135.034 59.561)" fill="#0075D1"/>
<circle cx="116.31" cy="59.561" r="3.12055" transform="rotate(90 116.31 59.561)" fill="#0075D1"/>
<circle cx="97.5875" cy="59.561" r="3.12055" transform="rotate(90 97.5875 59.561)" fill="#0075D1"/>
<circle cx="78.8638" cy="59.561" r="3.12055" transform="rotate(90 78.8638 59.561)" fill="#0075D1"/>
<circle cx="60.1402" cy="59.561" r="3.12055" transform="rotate(90 60.1402 59.561)" fill="#0075D1"/>
<circle cx="41.4175" cy="59.561" r="3.12055" transform="rotate(90 41.4175 59.561)" fill="#0075D1"/>
<circle cx="22.6939" cy="59.561" r="3.12055" transform="rotate(90 22.6939 59.561)" fill="#0075D1"/>
<circle cx="3.97027" cy="59.561" r="3.12055" transform="rotate(90 3.97027 59.561)" fill="#0075D1"/>
</g>
</svg>
