<svg width="123" height="56" viewBox="0 0 123 56" fill="none" xmlns="http://www.w3.org/2000/svg">
<g opacity="0.5">
<circle cx="119.309" cy="2.77464" r="2.77464" transform="rotate(90 119.309 2.77464)" fill="#44B480"/>
<circle cx="102.661" cy="2.77464" r="2.77464" transform="rotate(90 102.661 2.77464)" fill="#44B480"/>
<circle cx="86.0134" cy="2.77464" r="2.77464" transform="rotate(90 86.0134 2.77464)" fill="#44B480"/>
<circle cx="69.366" cy="2.77464" r="2.77464" transform="rotate(90 69.366 2.77464)" fill="#44B480"/>
<circle cx="52.718" cy="2.77464" r="2.77464" transform="rotate(90 52.718 2.77464)" fill="#44B480"/>
<circle cx="36.0701" cy="2.77464" r="2.77464" transform="rotate(90 36.0701 2.77464)" fill="#44B480"/>
<circle cx="19.4221" cy="2.77464" r="2.77464" transform="rotate(90 19.4221 2.77464)" fill="#44B480"/>
<circle cx="2.77419" cy="2.77464" r="2.77464" transform="rotate(90 2.77419 2.77464)" fill="#44B480"/>
<circle cx="119.309" cy="19.4231" r="2.77464" transform="rotate(90 119.309 19.4231)" fill="#44B480"/>
<circle cx="102.661" cy="19.4231" r="2.77464" transform="rotate(90 102.661 19.4231)" fill="#44B480"/>
<circle cx="86.0134" cy="19.4231" r="2.77464" transform="rotate(90 86.0134 19.4231)" fill="#44B480"/>
<circle cx="69.366" cy="19.4231" r="2.77464" transform="rotate(90 69.366 19.4231)" fill="#44B480"/>
<circle cx="52.718" cy="19.4231" r="2.77464" transform="rotate(90 52.718 19.4231)" fill="#44B480"/>
<circle cx="36.0701" cy="19.4231" r="2.77464" transform="rotate(90 36.0701 19.4231)" fill="#44B480"/>
<circle cx="19.4221" cy="19.4231" r="2.77464" transform="rotate(90 19.4221 19.4231)" fill="#44B480"/>
<circle cx="2.77419" cy="19.4231" r="2.77464" transform="rotate(90 2.77419 19.4231)" fill="#44B480"/>
<circle cx="119.309" cy="36.0705" r="2.77464" transform="rotate(90 119.309 36.0705)" fill="#44B480"/>
<circle cx="102.661" cy="36.0705" r="2.77464" transform="rotate(90 102.661 36.0705)" fill="#44B480"/>
<circle cx="86.0134" cy="36.0705" r="2.77464" transform="rotate(90 86.0134 36.0705)" fill="#44B480"/>
<circle cx="69.366" cy="36.0705" r="2.77464" transform="rotate(90 69.366 36.0705)" fill="#44B480"/>
<circle cx="52.718" cy="36.0705" r="2.77464" transform="rotate(90 52.718 36.0705)" fill="#44B480"/>
<circle cx="36.0701" cy="36.0705" r="2.77464" transform="rotate(90 36.0701 36.0705)" fill="#44B480"/>
<circle cx="19.4221" cy="36.0705" r="2.77464" transform="rotate(90 19.4221 36.0705)" fill="#44B480"/>
<circle cx="2.77419" cy="36.0705" r="2.77464" transform="rotate(90 2.77419 36.0705)" fill="#44B480"/>
<circle cx="119.309" cy="52.718" r="2.77464" transform="rotate(90 119.309 52.718)" fill="#44B480"/>
<circle cx="102.661" cy="52.718" r="2.77464" transform="rotate(90 102.661 52.718)" fill="#44B480"/>
<circle cx="86.0134" cy="52.718" r="2.77464" transform="rotate(90 86.0134 52.718)" fill="#44B480"/>
<circle cx="69.366" cy="52.718" r="2.77464" transform="rotate(90 69.366 52.718)" fill="#44B480"/>
<circle cx="52.718" cy="52.718" r="2.77464" transform="rotate(90 52.718 52.718)" fill="#44B480"/>
<circle cx="36.0701" cy="52.718" r="2.77464" transform="rotate(90 36.0701 52.718)" fill="#44B480"/>
<circle cx="19.4221" cy="52.718" r="2.77464" transform="rotate(90 19.4221 52.718)" fill="#44B480"/>
<circle cx="2.77419" cy="52.718" r="2.77464" transform="rotate(90 2.77419 52.718)" fill="#44B480"/>
</g>
</svg>
