<svg width="14" height="18" viewBox="0 0 14 18" fill="none" xmlns="http://www.w3.org/2000/svg">
<path fill-rule="evenodd" clip-rule="evenodd" d="M10.2543 12.0853C11.3065 10.6121 12.0259 8.99288 12.0259 7.35392C12.0259 4.42468 9.67185 2.05006 6.76798 2.05006C3.86412 2.05006 1.51007 4.42468 1.51007 7.35392C1.51007 8.99288 2.22942 10.6121 3.28158 12.0853C4.32582 13.5475 5.60981 14.7417 6.52529 15.498C6.67544 15.622 6.86052 15.622 7.01067 15.498C7.92615 14.7417 9.21013 13.5475 10.2543 12.0853ZM7.96257 16.6703C9.90364 15.0666 13.5281 11.5149 13.5281 7.35392C13.5281 3.58775 10.5015 0.534668 6.76798 0.534668C3.03444 0.534668 0.0078125 3.58775 0.0078125 7.35392C0.0078125 11.5149 3.63229 15.0666 5.57338 16.6703C6.27719 17.2518 7.25877 17.2518 7.96257 16.6703Z" fill="white"/>
<path fill-rule="evenodd" clip-rule="evenodd" d="M6.77014 5.83863C5.94044 5.83863 5.26788 6.51709 5.26788 7.35401C5.26788 8.19096 5.94044 8.8694 6.77014 8.8694C7.59983 8.8694 8.2724 8.19096 8.2724 7.35401C8.2724 6.51709 7.59983 5.83863 6.77014 5.83863ZM3.76562 7.35401C3.76562 5.68016 5.11079 4.32324 6.77014 4.32324C8.42946 4.32324 9.77465 5.68016 9.77465 7.35401C9.77465 9.02783 8.42946 10.3848 6.77014 10.3848C5.11079 10.3848 3.76562 9.02783 3.76562 7.35401Z" fill="white"/>
</svg>
