<svg width="95" height="61" viewBox="0 0 95 61" fill="none" xmlns="http://www.w3.org/2000/svg">
<g id="LogoSVG 1">
<g id="Group 34629">
<path id="Vector" d="M73.8212 33.721V54.5531H68.8373V33.721L49.7188 6.8512H55.111L71.4984 29.2947L87.8857 6.8512H92.9398L73.8212 33.721Z" fill="black"/>
<path id="Vector_2" d="M7.96094 6.79236H17.131V9.84299H11.3239V15.4793H15.9376V18.53H11.3239V25.0834H17.131V28.134H7.96094V6.79236Z" fill="black"/>
<path id="Vector_3" d="M19.0547 6.79236H23.2728L26.54 19.5681H26.6038V6.79236H29.5967V28.134H26.1444L22.1114 12.5561H22.0475V28.134H19.0547V6.79236Z" fill="black"/>
<path id="Vector_4" d="M31.3359 28.134V25.0834C31.6953 25.1691 32.0641 25.2097 32.4335 25.2044C33.1036 25.2044 33.6077 25.0388 33.9332 24.7013C34.2586 24.3637 34.4181 23.8542 34.4181 23.1664V6.79236H37.7811V23.0709C37.7811 24.8244 37.3791 26.1258 36.575 26.9749C35.771 27.8283 34.5394 28.255 32.893 28.255C32.3713 28.2634 31.85 28.2229 31.3359 28.134Z" fill="black"/>
<path id="Vector_5" d="M41.2677 27.039C40.3871 26.1028 39.9531 24.7781 39.9531 23.0713V11.8559C39.9531 10.1427 40.3871 8.82439 41.2677 7.88819C42.1483 6.95198 43.4054 6.48706 45.0518 6.48706C46.6982 6.48706 47.9681 6.95198 48.8424 7.88819C49.7166 8.82439 50.1569 10.1427 50.1569 11.8559V23.0713C50.1569 24.7781 49.7187 26.1007 48.8424 27.039C47.9681 27.9689 46.7046 28.4401 45.0518 28.4401C43.3991 28.4401 42.1419 27.9689 41.2677 27.039ZM46.794 23.2878V11.6394C46.794 10.2383 46.2132 9.53769 45.0518 9.53769C43.8904 9.53769 43.3097 10.2383 43.3097 11.6394V23.2878C43.3097 24.6889 43.8904 25.3895 45.0518 25.3895C46.2132 25.3895 46.794 24.6889 46.794 23.2878Z" fill="black"/>
<path id="Vector_6" d="M1.20312 33.2097H6.00191L8.13967 48.482H8.20349L10.3412 33.2097H15.1337V54.5514H11.9557V38.3939H11.8983L9.45423 54.5514H6.64643L4.19599 38.3939H4.13855V54.5514H1.20312V33.2097Z" fill="black"/>
<path id="Vector_7" d="M18.7066 53.4564C17.8303 52.5223 17.3942 51.1997 17.3985 49.4886V38.2733C17.3985 36.5601 17.8324 35.2417 18.7066 34.3055C19.5809 33.3693 20.8508 32.9044 22.4972 32.9044C24.1436 32.9044 25.4135 33.3693 26.2877 34.3055C27.162 35.2417 27.6023 36.5601 27.6023 38.2733V49.4886C27.6023 51.1955 27.1641 52.518 26.2877 53.4564C25.4135 54.3862 24.15 54.8575 22.4972 54.8575C20.8444 54.8575 19.5873 54.3862 18.7066 53.4564ZM24.2393 49.7052V38.0567C24.2393 36.6556 23.6586 35.9551 22.4972 35.9551C21.3358 35.9551 20.7551 36.6556 20.7551 38.0567V49.7052C20.7551 51.1063 21.3358 51.8069 22.4972 51.8069C23.6586 51.8069 24.2393 51.1063 24.2393 49.7052Z" fill="black"/>
<path id="Vector_8" d="M29.8594 33.2097H34.0775L37.3447 45.9854H37.4021V33.2097H40.4014V54.5514H36.9491L32.916 38.9734H32.8522V54.5514H29.8594V33.2097Z" fill="black"/>
<path id="Vector_9" d="M42.9062 33.2097H48.0369C49.7088 33.2097 50.9617 33.6555 51.7955 34.5472C52.6293 35.4388 53.0462 36.7507 53.0462 38.483V49.2781C53.0462 51.0019 52.6293 52.3117 51.7955 53.2076C50.9617 54.1035 49.7088 54.5514 48.0369 54.5514H42.9062V33.2097ZM47.9794 51.5008C48.5282 51.5008 48.9494 51.3416 49.2429 51.0167C49.5365 50.6919 49.6896 50.1633 49.6896 49.4309V38.3302C49.6896 37.5978 49.5429 37.0692 49.2429 36.7444C48.943 36.4196 48.5282 36.2603 47.9794 36.2603H46.2692V51.5008H47.9794Z" fill="black"/>
<path id="Vector_10" d="M57.8436 33.2097H62.3935L65.8777 54.5514H62.5148L61.9085 50.3162V50.3735H58.0861L57.4799 54.5514H54.3594L57.8436 33.2097ZM61.5065 47.4757L60.0133 36.9291H59.9495L58.4881 47.4757H61.5065Z" fill="black"/>
<path id="Vector_11" d="M78.3523 53.4691C77.5185 52.5478 77.1016 51.2209 77.1016 49.4886V48.2722H80.2795V49.737C80.2795 51.119 80.8602 51.8069 82.0216 51.8069C82.5895 51.8069 83.0235 51.6413 83.317 51.3037C83.6106 50.9662 83.7637 50.4249 83.7637 49.6733C83.7637 48.7817 83.5595 47.992 83.1511 47.3105C82.7427 46.6291 81.9897 45.8139 80.8921 44.8586C79.5095 43.6358 78.5416 42.5318 77.9886 41.5468C77.4398 40.5597 77.1654 39.4515 77.1654 38.2096C77.1654 36.524 77.5929 35.2184 78.448 34.2928C79.3031 33.3693 80.5411 32.9044 82.1747 32.9044C83.8084 32.9044 85.0017 33.3693 85.8249 34.2928C86.6481 35.2163 87.0629 36.541 87.0629 38.2733V39.1522H83.885V38.0567C83.885 37.3243 83.7382 36.7894 83.4574 36.4582C83.1766 36.127 82.7555 35.9551 82.2003 35.9551C81.0835 35.9551 80.522 36.6365 80.522 37.9931C80.5203 38.7594 80.7372 39.5105 81.1474 40.1584C81.5685 40.8335 82.3279 41.6423 83.4255 42.5977C84.8294 43.8205 85.7972 44.9286 86.329 45.9221C86.8587 46.922 87.1203 48.0875 87.1203 49.4313C87.1203 51.1764 86.6885 52.518 85.8249 53.4564C84.957 54.3862 83.6999 54.8575 82.0535 54.8575C80.4071 54.8575 79.1883 54.3926 78.3523 53.4691Z" fill="black"/>
<path id="Vector_12" d="M71.3288 17.251C73.6936 17.251 75.6107 15.3377 75.6107 12.9775C75.6107 10.6174 73.6936 8.7041 71.3288 8.7041C68.9639 8.7041 67.0469 10.6174 67.0469 12.9775C67.0469 15.3377 68.9639 17.251 71.3288 17.251Z" fill="#F9B400"/>
</g>
</g>
</svg>
