<svg width="19" height="19" viewBox="0 0 19 19" fill="none" xmlns="http://www.w3.org/2000/svg">
<g clip-path="url(#clip0_1982_5557)">
<path fill-rule="evenodd" clip-rule="evenodd" d="M4.26067 1.06206C5.23032 0.0839322 6.83399 0.198897 7.65676 1.30552L9.02255 3.14245C9.69534 4.04741 9.60618 5.31374 8.81321 6.11361L7.80626 7.12935C7.90385 7.3856 8.22509 7.94781 9.20335 8.93464C10.1816 9.92146 10.739 10.2455 10.9931 10.3439L12 9.32826C12.7929 8.52836 14.0483 8.43835 14.9454 9.11709L16.7664 10.4948C17.8634 11.3248 17.9774 12.9425 17.0077 13.9206C16.6925 14.2386 16.6392 14.2924 16.1131 14.8231C15.5769 15.3639 14.4385 15.8694 13.2858 15.92C11.4821 15.9991 9.03217 15.1912 6.01659 12.1493C3.00105 9.10739 2.20015 6.63597 2.27857 4.8165C2.3222 3.80437 2.64119 2.69273 3.37019 1.96879C3.89207 1.43388 3.95994 1.36541 4.26067 1.06206ZM3.77941 4.88233C3.72505 6.14354 4.25198 8.22619 7.07885 11.0778C9.90573 13.9294 11.9703 14.4609 13.2206 14.406C14.3877 14.3548 15.0139 13.7859 15.0508 13.7515L15.9455 12.849C16.2687 12.523 16.2308 11.9837 15.865 11.7071L14.044 10.3294C13.745 10.1032 13.3265 10.1332 13.0622 10.3998C12.664 10.8015 12.3921 11.0797 11.86 11.6145C10.7547 12.7254 8.86248 10.7339 8.14111 10.0062C7.47818 9.3375 5.45789 7.36818 6.54563 6.25792C6.54779 6.25574 6.84077 5.9602 7.75094 5.04207C8.01526 4.77545 8.045 4.35334 7.82072 4.05168L6.45496 2.21476C6.1807 1.84588 5.64614 1.80756 5.32293 2.1336C5.02544 2.43369 4.68877 2.7733 4.42915 3.037C3.89482 3.57973 3.80801 4.21889 3.77941 4.88233Z" fill="white"/>
</g>
<defs>
<clipPath id="clip0_1982_5557">
<rect width="18.0271" height="18.1847" fill="white" transform="translate(0.765625 0.287842)"/>
</clipPath>
</defs>
</svg>
