<svg width="57" height="87" viewBox="0 0 57 87" fill="none" xmlns="http://www.w3.org/2000/svg">
<path d="M11.1262 1.50293L7.94611 7.30123C4.76602 13.0995 -1.59417 24.6961 3.19182 24.2683C7.97781 23.8405 23.91 11.3882 25.6451 14.2517C27.3802 17.1152 14.9182 35.2944 13.6091 41.4419C12.3 47.5894 22.1438 41.7052 29.5715 38.4275C36.9993 35.1498 42.011 34.4784 36.6924 44.9514C31.3738 55.4243 15.7248 77.0416 18.3515 78.9432C20.9781 80.8449 41.8804 63.0309 50.0404 58.9632C58.2004 54.8956 53.6181 64.5742 51.6814 71.3988C49.7447 78.2233 50.4537 82.1938 50.8081 84.179L51.1626 86.1642" stroke="#574BB8" stroke-width="2.87326"/>
</svg>
